# rocket, from simple_landed_rocket_roblox_tripod.glb
mtllib rocket.mtl
usemtl rocket
v 0 1.39 0
v 0.92 1.39 0
v 1.08 1.57 0
v 1.2 1.94 0
v 1.27 2.54 0
v 1.29 3.34 0
v 1.24 4.04 0
v 1.15 4.54 0
v 1 4.94 0
v 0.92 5.14 0
v 0 5.14 0
v 0.897 1.39 -0.205
v 1.053 1.57 -0.24
v 1.17 1.94 -0.267
v 1.238 2.54 -0.283
v 1.258 3.34 -0.287
v 1.209 4.04 -0.276
v 1.121 4.54 -0.256
v 0.975 4.94 -0.223
v 0.897 5.14 -0.205
v 0.829 1.39 -0.399
v 0.973 1.57 -0.469
v 1.081 1.94 -0.521
v 1.144 2.54 -0.551
v 1.162 3.34 -0.56
v 1.117 4.04 -0.538
v 1.036 4.54 -0.499
v 0.901 4.94 -0.434
v 0.829 5.14 -0.399
v 0.719 1.39 -0.574
v 0.844 1.57 -0.673
v 0.938 1.94 -0.748
v 0.993 2.54 -0.792
v 1.009 3.34 -0.804
v 0.969 4.04 -0.773
v 0.899 4.54 -0.717
v 0.782 4.94 -0.623
v 0.719 5.14 -0.574
v 0.574 1.39 -0.719
v 0.673 1.57 -0.844
v 0.748 1.94 -0.938
v 0.792 2.54 -0.993
v 0.804 3.34 -1.009
v 0.773 4.04 -0.969
v 0.717 4.54 -0.899
v 0.623 4.94 -0.782
v 0.574 5.14 -0.719
v 0.399 1.39 -0.829
v 0.469 1.57 -0.973
v 0.521 1.94 -1.081
v 0.551 2.54 -1.144
v 0.56 3.34 -1.162
v 0.538 4.04 -1.117
v 0.499 4.54 -1.036
v 0.434 4.94 -0.901
v 0.399 5.14 -0.829
v 0.205 1.39 -0.897
v 0.24 1.57 -1.053
v 0.267 1.94 -1.17
v 0.283 2.54 -1.238
v 0.287 3.34 -1.258
v 0.276 4.04 -1.209
v 0.256 4.54 -1.121
v 0.223 4.94 -0.975
v 0.205 5.14 -0.897
v 0 1.39 -0.92
v 0 1.57 -1.08
v 0 1.94 -1.2
v 0 2.54 -1.27
v 0 3.34 -1.29
v 0 4.04 -1.24
v 0 4.54 -1.15
v 0 4.94 -1
v 0 5.14 -0.92
v -0.205 1.39 -0.897
v -0.24 1.57 -1.053
v -0.267 1.94 -1.17
v -0.283 2.54 -1.238
v -0.287 3.34 -1.258
v -0.276 4.04 -1.209
v -0.256 4.54 -1.121
v -0.223 4.94 -0.975
v -0.205 5.14 -0.897
v -0.399 1.39 -0.829
v -0.469 1.57 -0.973
v -0.521 1.94 -1.081
v -0.551 2.54 -1.144
v -0.56 3.34 -1.162
v -0.538 4.04 -1.117
v -0.499 4.54 -1.036
v -0.434 4.94 -0.901
v -0.399 5.14 -0.829
v -0.574 1.39 -0.719
v -0.673 1.57 -0.844
v -0.748 1.94 -0.938
v -0.792 2.54 -0.993
v -0.804 3.34 -1.009
v -0.773 4.04 -0.969
v -0.717 4.54 -0.899
v -0.623 4.94 -0.782
v -0.574 5.14 -0.719
v -0.719 1.39 -0.574
v -0.844 1.57 -0.673
v -0.938 1.94 -0.748
v -0.993 2.54 -0.792
v -1.009 3.34 -0.804
v -0.969 4.04 -0.773
v -0.899 4.54 -0.717
v -0.782 4.94 -0.623
v -0.719 5.14 -0.574
v -0.829 1.39 -0.399
v -0.973 1.57 -0.469
v -1.081 1.94 -0.521
v -1.144 2.54 -0.551
v -1.162 3.34 -0.56
v -1.117 4.04 -0.538
v -1.036 4.54 -0.499
v -0.901 4.94 -0.434
v -0.829 5.14 -0.399
v -0.897 1.39 -0.205
v -1.053 1.57 -0.24
v -1.17 1.94 -0.267
v -1.238 2.54 -0.283
v -1.258 3.34 -0.287
v -1.209 4.04 -0.276
v -1.121 4.54 -0.256
v -0.975 4.94 -0.223
v -0.897 5.14 -0.205
v -0.92 1.39 -0
v -1.08 1.57 -0
v -1.2 1.94 -0
v -1.27 2.54 -0
v -1.29 3.34 -0
v -1.24 4.04 0
v -1.15 4.54 0
v -1 4.94 0
v -0.92 5.14 0
v -0.897 1.39 0.205
v -1.053 1.57 0.24
v -1.17 1.94 0.267
v -1.238 2.54 0.283
v -1.258 3.34 0.287
v -1.209 4.04 0.276
v -1.121 4.54 0.256
v -0.975 4.94 0.223
v -0.897 5.14 0.205
v -0.829 1.39 0.399
v -0.973 1.57 0.469
v -1.081 1.94 0.521
v -1.144 2.54 0.551
v -1.162 3.34 0.56
v -1.117 4.04 0.538
v -1.036 4.54 0.499
v -0.901 4.94 0.434
v -0.829 5.14 0.399
v -0.719 1.39 0.574
v -0.844 1.57 0.673
v -0.938 1.94 0.748
v -0.993 2.54 0.792
v -1.009 3.34 0.804
v -0.969 4.04 0.773
v -0.899 4.54 0.717
v -0.782 4.94 0.623
v -0.719 5.14 0.574
v -0.574 1.39 0.719
v -0.673 1.57 0.844
v -0.748 1.94 0.938
v -0.792 2.54 0.993
v -0.804 3.34 1.009
v -0.773 4.04 0.969
v -0.717 4.54 0.899
v -0.623 4.94 0.782
v -0.574 5.14 0.719
v -0.399 1.39 0.829
v -0.469 1.57 0.973
v -0.521 1.94 1.081
v -0.551 2.54 1.144
v -0.56 3.34 1.162
v -0.538 4.04 1.117
v -0.499 4.54 1.036
v -0.434 4.94 0.901
v -0.399 5.14 0.829
v -0.205 1.39 0.897
v -0.24 1.57 1.053
v -0.267 1.94 1.17
v -0.283 2.54 1.238
v -0.287 3.34 1.258
v -0.276 4.04 1.209
v -0.256 4.54 1.121
v -0.223 4.94 0.975
v -0.205 5.14 0.897
v -0 1.39 0.92
v -0 1.57 1.08
v -0 1.94 1.2
v -0 2.54 1.27
v -0 3.34 1.29
v -0 4.04 1.24
v -0 4.54 1.15
v -0 4.94 1
v -0 5.14 0.92
v 0.205 1.39 0.897
v 0.24 1.57 1.053
v 0.267 1.94 1.17
v 0.283 2.54 1.238
v 0.287 3.34 1.258
v 0.276 4.04 1.209
v 0.256 4.54 1.121
v 0.223 4.94 0.975
v 0.205 5.14 0.897
v 0.399 1.39 0.829
v 0.469 1.57 0.973
v 0.521 1.94 1.081
v 0.551 2.54 1.144
v 0.56 3.34 1.162
v 0.538 4.04 1.117
v 0.499 4.54 1.036
v 0.434 4.94 0.901
v 0.399 5.14 0.829
v 0.574 1.39 0.719
v 0.673 1.57 0.844
v 0.748 1.94 0.938
v 0.792 2.54 0.993
v 0.804 3.34 1.009
v 0.773 4.04 0.969
v 0.717 4.54 0.899
v 0.623 4.94 0.782
v 0.574 5.14 0.719
v 0.719 1.39 0.574
v 0.844 1.57 0.673
v 0.938 1.94 0.748
v 0.993 2.54 0.792
v 1.009 3.34 0.804
v 0.969 4.04 0.773
v 0.899 4.54 0.717
v 0.782 4.94 0.623
v 0.719 5.14 0.574
v 0.829 1.39 0.399
v 0.973 1.57 0.469
v 1.081 1.94 0.521
v 1.144 2.54 0.551
v 1.162 3.34 0.56
v 1.117 4.04 0.538
v 1.036 4.54 0.499
v 0.901 4.94 0.434
v 0.829 5.14 0.399
v 0.897 1.39 0.205
v 1.053 1.57 0.24
v 1.17 1.94 0.267
v 1.238 2.54 0.283
v 1.258 3.34 0.287
v 1.209 4.04 0.276
v 1.121 4.54 0.256
v 0.975 4.94 0.223
v 0.897 5.14 0.205
v 0 5.04 0
v 0.92 5.04 0
v 0.94 5.14 0
v 0.88 5.39 0
v 0.77 5.76 0
v 0.61 6.14 0
v 0.42 6.52 0
v 0.22 6.82 0
v 0.06 6.99 0
v 0 7.04 0
v 0.897 5.04 -0.205
v 0.916 5.14 -0.209
v 0.858 5.39 -0.196
v 0.751 5.76 -0.171
v 0.595 6.14 -0.136
v 0.409 6.52 -0.093
v 0.214 6.82 -0.049
v 0.058 6.99 -0.013
v 0.829 5.04 -0.399
v 0.847 5.14 -0.408
v 0.793 5.39 -0.382
v 0.694 5.76 -0.334
v 0.55 6.14 -0.265
v 0.378 6.52 -0.182
v 0.198 6.82 -0.095
v 0.054 6.99 -0.026
v 0.719 5.04 -0.574
v 0.735 5.14 -0.586
v 0.688 5.39 -0.549
v 0.602 5.76 -0.48
v 0.477 6.14 -0.38
v 0.328 6.52 -0.262
v 0.172 6.82 -0.137
v 0.047 6.99 -0.037
v 0.574 5.04 -0.719
v 0.586 5.14 -0.735
v 0.549 5.39 -0.688
v 0.48 5.76 -0.602
v 0.38 6.14 -0.477
v 0.262 6.52 -0.328
v 0.137 6.82 -0.172
v 0.037 6.99 -0.047
v 0.399 5.04 -0.829
v 0.408 5.14 -0.847
v 0.382 5.39 -0.793
v 0.334 5.76 -0.694
v 0.265 6.14 -0.55
v 0.182 6.52 -0.378
v 0.095 6.82 -0.198
v 0.026 6.99 -0.054
v 0.205 5.04 -0.897
v 0.209 5.14 -0.916
v 0.196 5.39 -0.858
v 0.171 5.76 -0.751
v 0.136 6.14 -0.595
v 0.093 6.52 -0.409
v 0.049 6.82 -0.214
v 0.013 6.99 -0.058
v 0 5.04 -0.92
v 0 5.14 -0.94
v 0 5.39 -0.88
v 0 5.76 -0.77
v 0 6.14 -0.61
v 0 6.52 -0.42
v 0 6.82 -0.22
v 0 6.99 -0.06
v -0.205 5.04 -0.897
v -0.209 5.14 -0.916
v -0.196 5.39 -0.858
v -0.171 5.76 -0.751
v -0.136 6.14 -0.595
v -0.093 6.52 -0.409
v -0.049 6.82 -0.214
v -0.013 6.99 -0.058
v -0.399 5.04 -0.829
v -0.408 5.14 -0.847
v -0.382 5.39 -0.793
v -0.334 5.76 -0.694
v -0.265 6.14 -0.55
v -0.182 6.52 -0.378
v -0.095 6.82 -0.198
v -0.026 6.99 -0.054
v -0.574 5.04 -0.719
v -0.586 5.14 -0.735
v -0.549 5.39 -0.688
v -0.48 5.76 -0.602
v -0.38 6.14 -0.477
v -0.262 6.52 -0.328
v -0.137 6.82 -0.172
v -0.037 6.99 -0.047
v -0.719 5.04 -0.574
v -0.735 5.14 -0.586
v -0.688 5.39 -0.549
v -0.602 5.76 -0.48
v -0.477 6.14 -0.38
v -0.328 6.52 -0.262
v -0.172 6.82 -0.137
v -0.047 6.99 -0.037
v -0.829 5.04 -0.399
v -0.847 5.14 -0.408
v -0.793 5.39 -0.382
v -0.694 5.76 -0.334
v -0.55 6.14 -0.265
v -0.378 6.52 -0.182
v -0.198 6.82 -0.095
v -0.054 6.99 -0.026
v -0.897 5.04 -0.205
v -0.916 5.14 -0.209
v -0.858 5.39 -0.196
v -0.751 5.76 -0.171
v -0.595 6.14 -0.136
v -0.409 6.52 -0.093
v -0.214 6.82 -0.049
v -0.058 6.99 -0.013
v -0.92 5.04 -0
v -0.94 5.14 -0
v -0.88 5.39 -0
v -0.77 5.76 -0
v -0.61 6.14 -0
v -0.42 6.52 0
v -0.22 6.82 0
v -0.06 6.99 0
v -0.897 5.04 0.205
v -0.916 5.14 0.209
v -0.858 5.39 0.196
v -0.751 5.76 0.171
v -0.595 6.14 0.136
v -0.409 6.52 0.093
v -0.214 6.82 0.049
v -0.058 6.99 0.013
v -0.829 5.04 0.399
v -0.847 5.14 0.408
v -0.793 5.39 0.382
v -0.694 5.76 0.334
v -0.55 6.14 0.265
v -0.378 6.52 0.182
v -0.198 6.82 0.095
v -0.054 6.99 0.026
v -0.719 5.04 0.574
v -0.735 5.14 0.586
v -0.688 5.39 0.549
v -0.602 5.76 0.48
v -0.477 6.14 0.38
v -0.328 6.52 0.262
v -0.172 6.82 0.137
v -0.047 6.99 0.037
v -0.574 5.04 0.719
v -0.586 5.14 0.735
v -0.549 5.39 0.688
v -0.48 5.76 0.602
v -0.38 6.14 0.477
v -0.262 6.52 0.328
v -0.137 6.82 0.172
v -0.037 6.99 0.047
v -0.399 5.04 0.829
v -0.408 5.14 0.847
v -0.382 5.39 0.793
v -0.334 5.76 0.694
v -0.265 6.14 0.55
v -0.182 6.52 0.378
v -0.095 6.82 0.198
v -0.026 6.99 0.054
v -0.205 5.04 0.897
v -0.209 5.14 0.916
v -0.196 5.39 0.858
v -0.171 5.76 0.751
v -0.136 6.14 0.595
v -0.093 6.52 0.409
v -0.049 6.82 0.214
v -0.013 6.99 0.058
v -0 5.04 0.92
v -0 5.14 0.94
v -0 5.39 0.88
v -0 5.76 0.77
v -0 6.14 0.61
v -0 6.52 0.42
v -0 6.82 0.22
v -0 6.99 0.06
v 0.205 5.04 0.897
v 0.209 5.14 0.916
v 0.196 5.39 0.858
v 0.171 5.76 0.751
v 0.136 6.14 0.595
v 0.093 6.52 0.409
v 0.049 6.82 0.214
v 0.013 6.99 0.058
v 0.399 5.04 0.829
v 0.408 5.14 0.847
v 0.382 5.39 0.793
v 0.334 5.76 0.694
v 0.265 6.14 0.55
v 0.182 6.52 0.378
v 0.095 6.82 0.198
v 0.026 6.99 0.054
v 0.574 5.04 0.719
v 0.586 5.14 0.735
v 0.549 5.39 0.688
v 0.48 5.76 0.602
v 0.38 6.14 0.477
v 0.262 6.52 0.328
v 0.137 6.82 0.172
v 0.037 6.99 0.047
v 0.719 5.04 0.574
v 0.735 5.14 0.586
v 0.688 5.39 0.549
v 0.602 5.76 0.48
v 0.477 6.14 0.38
v 0.328 6.52 0.262
v 0.172 6.82 0.137
v 0.047 6.99 0.037
v 0.829 5.04 0.399
v 0.847 5.14 0.408
v 0.793 5.39 0.382
v 0.694 5.76 0.334
v 0.55 6.14 0.265
v 0.378 6.52 0.182
v 0.198 6.82 0.095
v 0.054 6.99 0.026
v 0.897 5.04 0.205
v 0.916 5.14 0.209
v 0.858 5.39 0.196
v 0.751 5.76 0.171
v 0.595 6.14 0.136
v 0.409 6.52 0.093
v 0.214 6.82 0.049
v 0.058 6.99 0.013
v 0 1.18 -0
v 1.02 1.18 -0
v 1.02 1.66 0
v 0 1.66 0
v 0.985 1.18 -0.264
v 0.985 1.66 -0.264
v 0.883 1.18 -0.51
v 0.883 1.66 -0.51
v 0.721 1.18 -0.721
v 0.721 1.66 -0.721
v 0.51 1.18 -0.883
v 0.51 1.66 -0.883
v 0.264 1.18 -0.985
v 0.264 1.66 -0.985
v 0 1.18 -1.02
v 0 1.66 -1.02
v -0.264 1.18 -0.985
v -0.264 1.66 -0.985
v -0.51 1.18 -0.883
v -0.51 1.66 -0.883
v -0.721 1.18 -0.721
v -0.721 1.66 -0.721
v -0.883 1.18 -0.51
v -0.883 1.66 -0.51
v -0.985 1.18 -0.264
v -0.985 1.66 -0.264
v -1.02 1.18 -0
v -1.02 1.66 -0
v -0.985 1.18 0.264
v -0.985 1.66 0.264
v -0.883 1.18 0.51
v -0.883 1.66 0.51
v -0.721 1.18 0.721
v -0.721 1.66 0.721
v -0.51 1.18 0.883
v -0.51 1.66 0.883
v -0.264 1.18 0.985
v -0.264 1.66 0.985
v -0 1.18 1.02
v -0 1.66 1.02
v 0.264 1.18 0.985
v 0.264 1.66 0.985
v 0.51 1.18 0.883
v 0.51 1.66 0.883
v 0.721 1.18 0.721
v 0.721 1.66 0.721
v 0.883 1.18 0.51
v 0.883 1.66 0.51
v 0.985 1.18 0.264
v 0.985 1.66 0.264
v 0.83 1.46 -0.19
v 1.03 3.09 -0.19
v 1.43 2.89 -0.19
v 1.8 2.49 -0.19
v 2.02 1.89 -0.19
v 1.92 0.99 -0.19
v 1.66 0.66 -0.19
v 1.26 1.22 -0.19
v 0.83 1.46 0.19
v 1.03 3.09 0.19
v 1.43 2.89 0.19
v 1.8 2.49 0.19
v 2.02 1.89 0.19
v 1.92 0.99 0.19
v 1.66 0.66 0.19
v 1.26 1.22 0.19
v -0.83 1.46 -0.19
v -1.03 3.09 -0.19
v -1.43 2.89 -0.19
v -1.8 2.49 -0.19
v -2.02 1.89 -0.19
v -1.92 0.99 -0.19
v -1.66 0.66 -0.19
v -1.26 1.22 -0.19
v -0.83 1.46 0.19
v -1.03 3.09 0.19
v -1.43 2.89 0.19
v -1.8 2.49 0.19
v -2.02 1.89 0.19
v -1.92 0.99 0.19
v -1.66 0.66 0.19
v -1.26 1.22 0.19
v 0 3.86 1.1
v 0.78 3.86 1.1
v 0.78 3.86 1.26
v 0 3.86 1.26
v 0.76 4.034 1.1
v 0.76 4.034 1.26
v 0.703 4.198 1.1
v 0.703 4.198 1.26
v 0.61 4.346 1.1
v 0.61 4.346 1.26
v 0.486 4.47 1.1
v 0.486 4.47 1.26
v 0.338 4.563 1.1
v 0.338 4.563 1.26
v 0.174 4.62 1.1
v 0.174 4.62 1.26
v 0 4.64 1.1
v 0 4.64 1.26
v -0.174 4.62 1.1
v -0.174 4.62 1.26
v -0.338 4.563 1.1
v -0.338 4.563 1.26
v -0.486 4.47 1.1
v -0.486 4.47 1.26
v -0.61 4.346 1.1
v -0.61 4.346 1.26
v -0.703 4.198 1.1
v -0.703 4.198 1.26
v -0.76 4.034 1.1
v -0.76 4.034 1.26
v -0.78 3.86 1.1
v -0.78 3.86 1.26
v -0.76 3.686 1.1
v -0.76 3.686 1.26
v -0.703 3.522 1.1
v -0.703 3.522 1.26
v -0.61 3.374 1.1
v -0.61 3.374 1.26
v -0.486 3.25 1.1
v -0.486 3.25 1.26
v -0.338 3.157 1.1
v -0.338 3.157 1.26
v -0.174 3.1 1.1
v -0.174 3.1 1.26
v -0 3.08 1.1
v -0 3.08 1.26
v 0.174 3.1 1.1
v 0.174 3.1 1.26
v 0.338 3.157 1.1
v 0.338 3.157 1.26
v 0.486 3.25 1.1
v 0.486 3.25 1.26
v 0.61 3.374 1.1
v 0.61 3.374 1.26
v 0.703 3.522 1.1
v 0.703 3.522 1.26
v 0.76 3.686 1.1
v 0.76 3.686 1.26
v 0 3.86 1.155
v 0.62 3.86 1.155
v 0.62 3.86 1.345
v 0 3.86 1.345
v 0.604 3.998 1.155
v 0.604 3.998 1.345
v 0.559 4.129 1.155
v 0.559 4.129 1.345
v 0.485 4.247 1.155
v 0.485 4.247 1.345
v 0.387 4.345 1.155
v 0.387 4.345 1.345
v 0.269 4.419 1.155
v 0.269 4.419 1.345
v 0.138 4.464 1.155
v 0.138 4.464 1.345
v 0 4.48 1.155
v 0 4.48 1.345
v -0.138 4.464 1.155
v -0.138 4.464 1.345
v -0.269 4.419 1.155
v -0.269 4.419 1.345
v -0.387 4.345 1.155
v -0.387 4.345 1.345
v -0.485 4.247 1.155
v -0.485 4.247 1.345
v -0.559 4.129 1.155
v -0.559 4.129 1.345
v -0.604 3.998 1.155
v -0.604 3.998 1.345
v -0.62 3.86 1.155
v -0.62 3.86 1.345
v -0.604 3.722 1.155
v -0.604 3.722 1.345
v -0.559 3.591 1.155
v -0.559 3.591 1.345
v -0.485 3.473 1.155
v -0.485 3.473 1.345
v -0.387 3.375 1.155
v -0.387 3.375 1.345
v -0.269 3.301 1.155
v -0.269 3.301 1.345
v -0.138 3.256 1.155
v -0.138 3.256 1.345
v -0 3.24 1.155
v -0 3.24 1.345
v 0.138 3.256 1.155
v 0.138 3.256 1.345
v 0.269 3.301 1.155
v 0.269 3.301 1.345
v 0.387 3.375 1.155
v 0.387 3.375 1.345
v 0.485 3.473 1.155
v 0.485 3.473 1.345
v 0.559 3.591 1.155
v 0.559 3.591 1.345
v 0.604 3.722 1.155
v 0.604 3.722 1.345
v 0 1.34 0.82
v 0.03 1.311 0.718
v 0.03 0.241 1.018
v 0 0.27 1.12
v 0.079 1.319 0.746
v 0.079 0.249 1.046
v 0.107 1.333 0.794
v 0.107 0.263 1.094
v 0.106 1.348 0.849
v 0.106 0.278 1.149
v 0.077 1.361 0.896
v 0.077 0.291 1.196
v 0.027 1.369 0.923
v 0.027 0.299 1.223
v -0.03 1.369 0.922
v -0.03 0.299 1.222
v -0.079 1.361 0.894
v -0.079 0.291 1.194
v -0.107 1.347 0.846
v -0.107 0.277 1.146
v -0.106 1.332 0.791
v -0.106 0.262 1.091
v -0.077 1.319 0.744
v -0.077 0.249 1.044
v -0.027 1.311 0.717
v -0.027 0.241 1.017
v -0.25 0 0.95
v -0.25 0 1.29
v -0.25 0.22 0.95
v -0.25 0.22 1.29
v 0.25 0 0.95
v 0.25 0 1.29
v 0.25 0.22 0.95
v 0.25 0.22 1.29
v -0.084 1.476 0.82
v 0.084 1.476 0.82
v -0.084 1.204 0.82
v 0.084 1.204 0.82
v 0 1.256 0.956
v 0 1.424 0.956
v 0 1.256 0.684
v 0 1.424 0.684
v 0.136 1.34 0.736
v 0.136 1.34 0.904
v -0.136 1.34 0.736
v -0.136 1.34 0.904
v 0 1.5 0.82
v 0 1.18 0.82
v -0.049 1.211 0.9
v 0.049 1.211 0.9
v -0.049 1.469 0.9
v 0.049 1.469 0.9
v 0 1.34 0.98
v -0.049 1.211 0.74
v 0.049 1.211 0.74
v -0.049 1.469 0.74
v 0.049 1.469 0.74
v 0 1.34 0.66
v 0.129 1.42 0.771
v 0.129 1.26 0.771
v 0.08 1.291 0.691
v 0.08 1.389 0.691
v 0.129 1.42 0.869
v 0.129 1.26 0.869
v 0.08 1.291 0.949
v 0.08 1.389 0.949
v 0.16 1.34 0.82
v -0.129 1.42 0.771
v -0.129 1.26 0.771
v -0.08 1.291 0.691
v -0.08 1.389 0.691
v -0.129 1.42 0.869
v -0.129 1.26 0.869
v -0.08 1.291 0.949
v -0.08 1.389 0.949
v -0.16 1.34 0.82
v -0.71 1.34 -0.41
v -0.725 1.328 -0.302
v -0.985 0.258 -0.452
v -0.97 0.27 -0.56
v -0.776 1.344 -0.322
v -1.036 0.274 -0.472
v -0.809 1.358 -0.366
v -1.069 0.288 -0.516
v -0.816 1.367 -0.422
v -1.076 0.297 -0.572
v -0.794 1.369 -0.474
v -1.054 0.299 -0.624
v -0.75 1.364 -0.51
v -1.01 0.294 -0.66
v -0.695 1.352 -0.518
v -0.955 0.282 -0.668
v -0.644 1.336 -0.498
v -0.904 0.266 -0.648
v -0.611 1.322 -0.454
v -0.871 0.252 -0.604
v -0.604 1.313 -0.398
v -0.864 0.243 -0.548
v -0.626 1.311 -0.346
v -0.886 0.241 -0.496
v -0.67 1.316 -0.31
v -0.93 0.246 -0.46
v -1.22 0 -0.73
v -1.22 0 -0.39
v -1.22 0.22 -0.73
v -1.22 0.22 -0.39
v -0.72 0 -0.73
v -0.72 0 -0.39
v -0.72 0.22 -0.73
v -0.72 0.22 -0.39
v -0.794 1.476 -0.41
v -0.626 1.476 -0.41
v -0.794 1.204 -0.41
v -0.626 1.204 -0.41
v -0.71 1.256 -0.274
v -0.71 1.424 -0.274
v -0.71 1.256 -0.546
v -0.71 1.424 -0.546
v -0.574 1.34 -0.494
v -0.574 1.34 -0.326
v -0.846 1.34 -0.494
v -0.846 1.34 -0.326
v -0.71 1.5 -0.41
v -0.71 1.18 -0.41
v -0.76 1.211 -0.33
v -0.661 1.211 -0.33
v -0.76 1.469 -0.33
v -0.661 1.469 -0.33
v -0.71 1.34 -0.25
v -0.76 1.211 -0.49
v -0.661 1.211 -0.49
v -0.76 1.469 -0.49
v -0.661 1.469 -0.49
v -0.71 1.34 -0.57
v -0.581 1.42 -0.459
v -0.581 1.26 -0.459
v -0.63 1.291 -0.539
v -0.63 1.389 -0.539
v -0.581 1.42 -0.361
v -0.581 1.26 -0.361
v -0.63 1.291 -0.281
v -0.63 1.389 -0.281
v -0.55 1.34 -0.41
v -0.84 1.42 -0.459
v -0.84 1.26 -0.459
v -0.79 1.291 -0.539
v -0.79 1.389 -0.539
v -0.84 1.42 -0.361
v -0.84 1.26 -0.361
v -0.79 1.291 -0.281
v -0.79 1.389 -0.281
v -0.87 1.34 -0.41
v 0.71 1.34 -0.41
v 0.695 1.352 -0.518
v 0.955 0.282 -0.668
v 0.97 0.27 -0.56
v 0.75 1.364 -0.51
v 1.01 0.294 -0.66
v 0.794 1.369 -0.474
v 1.054 0.299 -0.624
v 0.816 1.367 -0.422
v 1.076 0.297 -0.572
v 0.809 1.358 -0.366
v 1.069 0.288 -0.516
v 0.776 1.344 -0.322
v 1.036 0.274 -0.472
v 0.725 1.328 -0.302
v 0.985 0.258 -0.452
v 0.67 1.316 -0.31
v 0.93 0.246 -0.46
v 0.626 1.311 -0.346
v 0.886 0.241 -0.496
v 0.604 1.313 -0.398
v 0.864 0.243 -0.548
v 0.611 1.322 -0.454
v 0.871 0.252 -0.604
v 0.644 1.336 -0.498
v 0.904 0.266 -0.648
v 0.72 0 -0.73
v 0.72 0 -0.39
v 0.72 0.22 -0.73
v 0.72 0.22 -0.39
v 1.22 0 -0.73
v 1.22 0 -0.39
v 1.22 0.22 -0.73
v 1.22 0.22 -0.39
v 0.626 1.476 -0.41
v 0.794 1.476 -0.41
v 0.626 1.204 -0.41
v 0.794 1.204 -0.41
v 0.71 1.256 -0.274
v 0.71 1.424 -0.274
v 0.71 1.256 -0.546
v 0.71 1.424 -0.546
v 0.846 1.34 -0.494
v 0.846 1.34 -0.326
v 0.574 1.34 -0.494
v 0.574 1.34 -0.326
v 0.71 1.5 -0.41
v 0.71 1.18 -0.41
v 0.661 1.211 -0.33
v 0.76 1.211 -0.33
v 0.661 1.469 -0.33
v 0.76 1.469 -0.33
v 0.71 1.34 -0.25
v 0.661 1.211 -0.49
v 0.76 1.211 -0.49
v 0.661 1.469 -0.49
v 0.76 1.469 -0.49
v 0.71 1.34 -0.57
v 0.84 1.42 -0.459
v 0.84 1.26 -0.459
v 0.79 1.291 -0.539
v 0.79 1.389 -0.539
v 0.84 1.42 -0.361
v 0.84 1.26 -0.361
v 0.79 1.291 -0.281
v 0.79 1.389 -0.281
v 0.87 1.34 -0.41
v 0.581 1.42 -0.459
v 0.581 1.26 -0.459
v 0.63 1.291 -0.539
v 0.63 1.389 -0.539
v 0.581 1.42 -0.361
v 0.581 1.26 -0.361
v 0.63 1.291 -0.281
v 0.63 1.389 -0.281
v 0.55 1.34 -0.41
v 0 0.87 -0
v 0.18 0.87 -0
v 0.18 1.21 0
v 0 1.21 0
v 0.162 0.87 -0.078
v 0.162 1.21 -0.078
v 0.112 0.87 -0.141
v 0.112 1.21 -0.141
v 0.04 0.87 -0.175
v 0.04 1.21 -0.175
v -0.04 0.87 -0.175
v -0.04 1.21 -0.175
v -0.112 0.87 -0.141
v -0.112 1.21 -0.141
v -0.162 0.87 -0.078
v -0.162 1.21 -0.078
v -0.18 0.87 -0
v -0.18 1.21 -0
v -0.162 0.87 0.078
v -0.162 1.21 0.078
v -0.112 0.87 0.141
v -0.112 1.21 0.141
v -0.04 0.87 0.175
v -0.04 1.21 0.175
v 0.04 0.87 0.175
v 0.04 1.21 0.175
v 0.112 0.87 0.141
v 0.112 1.21 0.141
v 0.162 0.87 0.078
v 0.162 1.21 0.078
vt 0.02 0.5
vt 0.02 0.5
vt 0.027 0.5
vt 0.043 0.5
vt 0.069 0.5
vt 0.103 0.5
vt 0.133 0.5
vt 0.154 0.5
vt 0.171 0.5
vt 0.18 0.5
vt 0.18 0.5
vt 0.02 0.433
vt 0.027 0.421
vt 0.043 0.413
vt 0.069 0.408
vt 0.103 0.406
vt 0.133 0.41
vt 0.154 0.416
vt 0.171 0.427
vt 0.18 0.433
vt 0.02 0.369
vt 0.027 0.347
vt 0.043 0.33
vt 0.069 0.32
vt 0.103 0.317
vt 0.133 0.324
vt 0.154 0.337
vt 0.171 0.358
vt 0.18 0.369
vt 0.02 0.312
vt 0.027 0.28
vt 0.043 0.255
vt 0.069 0.241
vt 0.103 0.237
vt 0.133 0.247
vt 0.154 0.266
vt 0.171 0.296
vt 0.18 0.312
vt 0.02 0.265
vt 0.027 0.224
vt 0.043 0.193
vt 0.069 0.175
vt 0.103 0.17
vt 0.133 0.183
vt 0.154 0.206
vt 0.171 0.244
vt 0.18 0.265
vt 0.02 0.229
vt 0.027 0.182
vt 0.043 0.146
vt 0.069 0.126
vt 0.103 0.12
vt 0.133 0.135
vt 0.154 0.161
vt 0.171 0.205
vt 0.18 0.229
vt 0.02 0.207
vt 0.027 0.156
vt 0.043 0.117
vt 0.069 0.095
vt 0.103 0.089
vt 0.133 0.105
vt 0.154 0.133
vt 0.171 0.181
vt 0.18 0.207
vt 0.02 0.199
vt 0.027 0.147
vt 0.043 0.108
vt 0.069 0.085
vt 0.103 0.078
vt 0.133 0.094
vt 0.154 0.124
vt 0.171 0.173
vt 0.18 0.199
vt 0.02 0.207
vt 0.027 0.156
vt 0.043 0.117
vt 0.069 0.095
vt 0.103 0.089
vt 0.133 0.105
vt 0.154 0.133
vt 0.171 0.181
vt 0.18 0.207
vt 0.02 0.229
vt 0.027 0.182
vt 0.043 0.146
vt 0.069 0.126
vt 0.103 0.12
vt 0.133 0.135
vt 0.154 0.161
vt 0.171 0.205
vt 0.18 0.229
vt 0.02 0.265
vt 0.027 0.224
vt 0.043 0.193
vt 0.069 0.175
vt 0.103 0.17
vt 0.133 0.183
vt 0.154 0.206
vt 0.171 0.244
vt 0.18 0.265
vt 0.02 0.312
vt 0.027 0.28
vt 0.043 0.255
vt 0.069 0.241
vt 0.103 0.237
vt 0.133 0.247
vt 0.154 0.266
vt 0.171 0.296
vt 0.18 0.312
vt 0.02 0.369
vt 0.027 0.347
vt 0.043 0.33
vt 0.069 0.32
vt 0.103 0.317
vt 0.133 0.324
vt 0.154 0.337
vt 0.171 0.358
vt 0.18 0.369
vt 0.02 0.433
vt 0.027 0.421
vt 0.043 0.413
vt 0.069 0.408
vt 0.103 0.406
vt 0.133 0.41
vt 0.154 0.416
vt 0.171 0.427
vt 0.18 0.433
vt 0.02 0.5
vt 0.027 0.5
vt 0.043 0.5
vt 0.069 0.5
vt 0.103 0.5
vt 0.133 0.5
vt 0.154 0.5
vt 0.171 0.5
vt 0.18 0.5
vt 0.02 0.567
vt 0.027 0.579
vt 0.043 0.587
vt 0.069 0.592
vt 0.103 0.594
vt 0.133 0.59
vt 0.154 0.584
vt 0.171 0.573
vt 0.18 0.567
vt 0.02 0.631
vt 0.027 0.653
vt 0.043 0.67
vt 0.069 0.68
vt 0.103 0.683
vt 0.133 0.676
vt 0.154 0.663
vt 0.171 0.642
vt 0.18 0.631
vt 0.02 0.688
vt 0.027 0.72
vt 0.043 0.745
vt 0.069 0.759
vt 0.103 0.763
vt 0.133 0.753
vt 0.154 0.734
vt 0.171 0.704
vt 0.18 0.688
vt 0.02 0.735
vt 0.027 0.776
vt 0.043 0.807
vt 0.069 0.825
vt 0.103 0.83
vt 0.133 0.817
vt 0.154 0.794
vt 0.171 0.756
vt 0.18 0.735
vt 0.02 0.771
vt 0.027 0.818
vt 0.043 0.854
vt 0.069 0.874
vt 0.103 0.88
vt 0.133 0.865
vt 0.154 0.839
vt 0.171 0.795
vt 0.18 0.771
vt 0.02 0.793
vt 0.027 0.844
vt 0.043 0.883
vt 0.069 0.905
vt 0.103 0.911
vt 0.133 0.895
vt 0.154 0.867
vt 0.171 0.819
vt 0.18 0.793
vt 0.02 0.801
vt 0.027 0.853
vt 0.043 0.892
vt 0.069 0.915
vt 0.103 0.922
vt 0.133 0.906
vt 0.154 0.876
vt 0.171 0.827
vt 0.18 0.801
vt 0.02 0.793
vt 0.027 0.844
vt 0.043 0.883
vt 0.069 0.905
vt 0.103 0.911
vt 0.133 0.895
vt 0.154 0.867
vt 0.171 0.819
vt 0.18 0.793
vt 0.02 0.771
vt 0.027 0.818
vt 0.043 0.854
vt 0.069 0.874
vt 0.103 0.88
vt 0.133 0.865
vt 0.154 0.839
vt 0.171 0.795
vt 0.18 0.771
vt 0.02 0.735
vt 0.027 0.776
vt 0.043 0.807
vt 0.069 0.825
vt 0.103 0.83
vt 0.133 0.817
vt 0.154 0.794
vt 0.171 0.756
vt 0.18 0.735
vt 0.02 0.688
vt 0.027 0.72
vt 0.043 0.745
vt 0.069 0.759
vt 0.103 0.763
vt 0.133 0.753
vt 0.154 0.734
vt 0.171 0.704
vt 0.18 0.688
vt 0.02 0.631
vt 0.027 0.653
vt 0.043 0.67
vt 0.069 0.68
vt 0.103 0.683
vt 0.133 0.676
vt 0.154 0.663
vt 0.171 0.642
vt 0.18 0.631
vt 0.02 0.567
vt 0.027 0.579
vt 0.043 0.587
vt 0.069 0.592
vt 0.103 0.594
vt 0.133 0.59
vt 0.154 0.584
vt 0.171 0.573
vt 0.18 0.567
vt 0.219 0.5
vt 0.219 0.5
vt 0.227 0.5
vt 0.247 0.5
vt 0.276 0.5
vt 0.307 0.5
vt 0.337 0.5
vt 0.361 0.5
vt 0.375 0.5
vt 0.379 0.5
vt 0.219 0.408
vt 0.227 0.406
vt 0.247 0.412
vt 0.276 0.423
vt 0.307 0.439
vt 0.337 0.458
vt 0.361 0.478
vt 0.375 0.494
vt 0.219 0.321
vt 0.227 0.317
vt 0.247 0.329
vt 0.276 0.35
vt 0.307 0.381
vt 0.337 0.418
vt 0.361 0.457
vt 0.375 0.488
vt 0.219 0.243
vt 0.227 0.237
vt 0.247 0.254
vt 0.276 0.285
vt 0.307 0.329
vt 0.337 0.382
vt 0.361 0.438
vt 0.375 0.483
vt 0.219 0.177
vt 0.227 0.17
vt 0.247 0.191
vt 0.276 0.23
vt 0.307 0.286
vt 0.337 0.353
vt 0.361 0.423
vt 0.375 0.479
vt 0.219 0.128
vt 0.227 0.12
vt 0.247 0.144
vt 0.276 0.189
vt 0.307 0.253
vt 0.337 0.33
vt 0.361 0.411
vt 0.375 0.476
vt 0.219 0.097
vt 0.227 0.089
vt 0.247 0.115
vt 0.276 0.163
vt 0.307 0.233
vt 0.337 0.316
vt 0.361 0.404
vt 0.375 0.474
vt 0.219 0.087
vt 0.227 0.078
vt 0.247 0.105
vt 0.276 0.154
vt 0.307 0.226
vt 0.337 0.312
vt 0.361 0.401
vt 0.375 0.473
vt 0.219 0.097
vt 0.227 0.089
vt 0.247 0.115
vt 0.276 0.163
vt 0.307 0.233
vt 0.337 0.316
vt 0.361 0.404
vt 0.375 0.474
vt 0.219 0.128
vt 0.227 0.12
vt 0.247 0.144
vt 0.276 0.189
vt 0.307 0.253
vt 0.337 0.33
vt 0.361 0.411
vt 0.375 0.476
vt 0.219 0.177
vt 0.227 0.17
vt 0.247 0.191
vt 0.276 0.23
vt 0.307 0.286
vt 0.337 0.353
vt 0.361 0.423
vt 0.375 0.479
vt 0.219 0.243
vt 0.227 0.237
vt 0.247 0.254
vt 0.276 0.285
vt 0.307 0.329
vt 0.337 0.382
vt 0.361 0.438
vt 0.375 0.483
vt 0.219 0.321
vt 0.227 0.317
vt 0.247 0.329
vt 0.276 0.35
vt 0.307 0.381
vt 0.337 0.418
vt 0.361 0.457
vt 0.375 0.488
vt 0.219 0.408
vt 0.227 0.406
vt 0.247 0.412
vt 0.276 0.423
vt 0.307 0.439
vt 0.337 0.458
vt 0.361 0.478
vt 0.375 0.494
vt 0.219 0.5
vt 0.227 0.5
vt 0.247 0.5
vt 0.276 0.5
vt 0.307 0.5
vt 0.337 0.5
vt 0.361 0.5
vt 0.375 0.5
vt 0.219 0.592
vt 0.227 0.594
vt 0.247 0.588
vt 0.276 0.577
vt 0.307 0.561
vt 0.337 0.542
vt 0.361 0.522
vt 0.375 0.506
vt 0.219 0.679
vt 0.227 0.683
vt 0.247 0.671
vt 0.276 0.65
vt 0.307 0.619
vt 0.337 0.582
vt 0.361 0.543
vt 0.375 0.512
vt 0.219 0.757
vt 0.227 0.763
vt 0.247 0.746
vt 0.276 0.715
vt 0.307 0.671
vt 0.337 0.618
vt 0.361 0.562
vt 0.375 0.517
vt 0.219 0.823
vt 0.227 0.83
vt 0.247 0.809
vt 0.276 0.77
vt 0.307 0.714
vt 0.337 0.647
vt 0.361 0.577
vt 0.375 0.521
vt 0.219 0.872
vt 0.227 0.88
vt 0.247 0.856
vt 0.276 0.811
vt 0.307 0.747
vt 0.337 0.67
vt 0.361 0.589
vt 0.375 0.524
vt 0.219 0.903
vt 0.227 0.911
vt 0.247 0.885
vt 0.276 0.837
vt 0.307 0.767
vt 0.337 0.684
vt 0.361 0.596
vt 0.375 0.526
vt 0.219 0.913
vt 0.227 0.922
vt 0.247 0.895
vt 0.276 0.846
vt 0.307 0.774
vt 0.337 0.688
vt 0.361 0.599
vt 0.375 0.527
vt 0.219 0.903
vt 0.227 0.911
vt 0.247 0.885
vt 0.276 0.837
vt 0.307 0.767
vt 0.337 0.684
vt 0.361 0.596
vt 0.375 0.526
vt 0.219 0.872
vt 0.227 0.88
vt 0.247 0.856
vt 0.276 0.811
vt 0.307 0.747
vt 0.337 0.67
vt 0.361 0.589
vt 0.375 0.524
vt 0.219 0.823
vt 0.227 0.83
vt 0.247 0.809
vt 0.276 0.77
vt 0.307 0.714
vt 0.337 0.647
vt 0.361 0.577
vt 0.375 0.521
vt 0.219 0.757
vt 0.227 0.763
vt 0.247 0.746
vt 0.276 0.715
vt 0.307 0.671
vt 0.337 0.618
vt 0.361 0.562
vt 0.375 0.517
vt 0.219 0.679
vt 0.227 0.683
vt 0.247 0.671
vt 0.276 0.65
vt 0.307 0.619
vt 0.337 0.582
vt 0.361 0.543
vt 0.375 0.512
vt 0.219 0.592
vt 0.227 0.594
vt 0.247 0.588
vt 0.276 0.577
vt 0.307 0.561
vt 0.337 0.542
vt 0.361 0.522
vt 0.375 0.506
vt 0.498 0.5
vt 0.578 0.5
vt 0.578 0.5
vt 0.498 0.5
vt 0.575 0.391
vt 0.575 0.391
vt 0.567 0.289
vt 0.567 0.289
vt 0.555 0.202
vt 0.555 0.202
vt 0.538 0.135
vt 0.538 0.135
vt 0.519 0.093
vt 0.519 0.093
vt 0.498 0.078
vt 0.498 0.078
vt 0.477 0.093
vt 0.477 0.093
vt 0.458 0.135
vt 0.458 0.135
vt 0.441 0.202
vt 0.441 0.202
vt 0.429 0.289
vt 0.429 0.289
vt 0.421 0.391
vt 0.421 0.391
vt 0.418 0.5
vt 0.418 0.5
vt 0.421 0.609
vt 0.421 0.609
vt 0.429 0.711
vt 0.429 0.711
vt 0.441 0.798
vt 0.441 0.798
vt 0.458 0.865
vt 0.458 0.865
vt 0.477 0.907
vt 0.477 0.907
vt 0.498 0.922
vt 0.498 0.922
vt 0.519 0.907
vt 0.519 0.907
vt 0.538 0.865
vt 0.538 0.865
vt 0.555 0.798
vt 0.555 0.798
vt 0.567 0.711
vt 0.567 0.711
vt 0.575 0.609
vt 0.575 0.609
vt 0.219 0.356
vt 0.246 0.922
vt 0.3 0.852
vt 0.349 0.714
vt 0.379 0.505
vt 0.365 0.193
vt 0.33 0.078
vt 0.277 0.273
vt 0.219 0.356
vt 0.246 0.922
vt 0.3 0.852
vt 0.349 0.714
vt 0.379 0.505
vt 0.365 0.193
vt 0.33 0.078
vt 0.277 0.273
vt 0.379 0.356
vt 0.352 0.922
vt 0.298 0.852
vt 0.248 0.714
vt 0.219 0.505
vt 0.232 0.193
vt 0.267 0.078
vt 0.321 0.273
vt 0.379 0.356
vt 0.352 0.922
vt 0.298 0.852
vt 0.248 0.714
vt 0.219 0.505
vt 0.232 0.193
vt 0.267 0.078
vt 0.321 0.273
vt 0.697 0.5
vt 0.777 0.5
vt 0.777 0.5
vt 0.697 0.5
vt 0.775 0.594
vt 0.775 0.594
vt 0.769 0.683
vt 0.769 0.683
vt 0.76 0.763
vt 0.76 0.763
vt 0.747 0.83
vt 0.747 0.83
vt 0.732 0.88
vt 0.732 0.88
vt 0.715 0.911
vt 0.715 0.911
vt 0.697 0.922
vt 0.697 0.922
vt 0.679 0.911
vt 0.679 0.911
vt 0.663 0.88
vt 0.663 0.88
vt 0.647 0.83
vt 0.647 0.83
vt 0.635 0.763
vt 0.635 0.763
vt 0.625 0.683
vt 0.625 0.683
vt 0.619 0.594
vt 0.619 0.594
vt 0.617 0.5
vt 0.617 0.5
vt 0.619 0.406
vt 0.619 0.406
vt 0.625 0.317
vt 0.625 0.317
vt 0.635 0.237
vt 0.635 0.237
vt 0.647 0.17
vt 0.647 0.17
vt 0.663 0.12
vt 0.663 0.12
vt 0.679 0.089
vt 0.679 0.089
vt 0.697 0.078
vt 0.697 0.078
vt 0.715 0.089
vt 0.715 0.089
vt 0.732 0.12
vt 0.732 0.12
vt 0.747 0.17
vt 0.747 0.17
vt 0.76 0.237
vt 0.76 0.237
vt 0.769 0.317
vt 0.769 0.317
vt 0.775 0.406
vt 0.775 0.406
vt 0.896 0.5
vt 0.977 0.5
vt 0.977 0.5
vt 0.896 0.5
vt 0.975 0.594
vt 0.975 0.594
vt 0.969 0.683
vt 0.969 0.683
vt 0.959 0.763
vt 0.959 0.763
vt 0.946 0.83
vt 0.946 0.83
vt 0.931 0.88
vt 0.931 0.88
vt 0.914 0.911
vt 0.914 0.911
vt 0.896 0.922
vt 0.896 0.922
vt 0.879 0.911
vt 0.879 0.911
vt 0.862 0.88
vt 0.862 0.88
vt 0.847 0.83
vt 0.847 0.83
vt 0.834 0.763
vt 0.834 0.763
vt 0.824 0.683
vt 0.824 0.683
vt 0.818 0.594
vt 0.818 0.594
vt 0.816 0.5
vt 0.816 0.5
vt 0.818 0.406
vt 0.818 0.406
vt 0.824 0.317
vt 0.824 0.317
vt 0.834 0.237
vt 0.834 0.237
vt 0.847 0.17
vt 0.847 0.17
vt 0.862 0.12
vt 0.862 0.12
vt 0.879 0.089
vt 0.879 0.089
vt 0.896 0.078
vt 0.896 0.078
vt 0.914 0.089
vt 0.914 0.089
vt 0.931 0.12
vt 0.931 0.12
vt 0.946 0.17
vt 0.946 0.17
vt 0.959 0.237
vt 0.959 0.237
vt 0.969 0.317
vt 0.969 0.317
vt 0.975 0.406
vt 0.975 0.406
vt 0.574 0.249
vt 0.57 0.079
vt 0.418 0.58
vt 0.422 0.751
vt 0.571 0.126
vt 0.419 0.627
vt 0.573 0.206
vt 0.421 0.707
vt 0.575 0.297
vt 0.423 0.798
vt 0.577 0.376
vt 0.425 0.877
vt 0.578 0.421
vt 0.426 0.922
vt 0.578 0.42
vt 0.426 0.921
vt 0.577 0.373
vt 0.425 0.874
vt 0.575 0.293
vt 0.423 0.794
vt 0.573 0.202
vt 0.421 0.703
vt 0.571 0.123
vt 0.419 0.624
vt 0.57 0.078
vt 0.418 0.579
vt 0.418 0.078
vt 0.418 0.922
vt 0.418 0.078
vt 0.418 0.922
vt 0.578 0.078
vt 0.578 0.922
vt 0.578 0.078
vt 0.578 0.922
vt 0.456 0.859
vt 0.54 0.859
vt 0.456 0.141
vt 0.54 0.141
vt 0.498 0.278
vt 0.498 0.722
vt 0.498 0.278
vt 0.498 0.722
vt 0.566 0.5
vt 0.566 0.5
vt 0.43 0.5
vt 0.43 0.5
vt 0.498 0.922
vt 0.498 0.078
vt 0.473 0.159
vt 0.523 0.159
vt 0.473 0.841
vt 0.523 0.841
vt 0.498 0.5
vt 0.473 0.159
vt 0.523 0.159
vt 0.473 0.841
vt 0.523 0.841
vt 0.498 0.5
vt 0.563 0.711
vt 0.563 0.289
vt 0.538 0.37
vt 0.538 0.63
vt 0.563 0.711
vt 0.563 0.289
vt 0.538 0.37
vt 0.538 0.63
vt 0.578 0.5
vt 0.433 0.711
vt 0.433 0.289
vt 0.458 0.37
vt 0.458 0.63
vt 0.433 0.711
vt 0.433 0.289
vt 0.458 0.37
vt 0.458 0.63
vt 0.418 0.5
vt 0.574 0.673
vt 0.572 0.922
vt 0.421 0.577
vt 0.422 0.327
vt 0.574 0.875
vt 0.423 0.53
vt 0.576 0.774
vt 0.425 0.429
vt 0.578 0.646
vt 0.426 0.301
vt 0.578 0.525
vt 0.426 0.18
vt 0.577 0.443
vt 0.426 0.098
vt 0.576 0.423
vt 0.424 0.078
vt 0.573 0.47
vt 0.422 0.125
vt 0.571 0.571
vt 0.42 0.226
vt 0.57 0.699
vt 0.418 0.354
vt 0.57 0.82
vt 0.418 0.475
vt 0.571 0.902
vt 0.419 0.557
vt 0.418 0.078
vt 0.418 0.922
vt 0.418 0.078
vt 0.418 0.922
vt 0.578 0.078
vt 0.578 0.922
vt 0.578 0.078
vt 0.578 0.922
vt 0.456 0.859
vt 0.54 0.859
vt 0.456 0.141
vt 0.54 0.141
vt 0.498 0.278
vt 0.498 0.722
vt 0.498 0.278
vt 0.498 0.722
vt 0.566 0.5
vt 0.566 0.5
vt 0.43 0.5
vt 0.43 0.5
vt 0.498 0.922
vt 0.498 0.078
vt 0.473 0.159
vt 0.523 0.159
vt 0.473 0.841
vt 0.523 0.841
vt 0.498 0.5
vt 0.473 0.159
vt 0.523 0.159
vt 0.473 0.841
vt 0.523 0.841
vt 0.498 0.5
vt 0.563 0.711
vt 0.563 0.289
vt 0.538 0.37
vt 0.538 0.63
vt 0.563 0.711
vt 0.563 0.289
vt 0.538 0.37
vt 0.538 0.63
vt 0.578 0.5
vt 0.433 0.711
vt 0.433 0.289
vt 0.458 0.37
vt 0.458 0.63
vt 0.433 0.711
vt 0.433 0.289
vt 0.458 0.37
vt 0.458 0.63
vt 0.418 0.5
vt 0.574 0.673
vt 0.576 0.423
vt 0.424 0.078
vt 0.422 0.327
vt 0.577 0.443
vt 0.426 0.098
vt 0.578 0.525
vt 0.426 0.18
vt 0.578 0.646
vt 0.426 0.301
vt 0.576 0.774
vt 0.425 0.429
vt 0.574 0.875
vt 0.423 0.53
vt 0.572 0.922
vt 0.421 0.577
vt 0.571 0.902
vt 0.419 0.557
vt 0.57 0.82
vt 0.418 0.475
vt 0.57 0.699
vt 0.418 0.354
vt 0.571 0.571
vt 0.42 0.226
vt 0.573 0.47
vt 0.422 0.125
vt 0.418 0.078
vt 0.418 0.922
vt 0.418 0.078
vt 0.418 0.922
vt 0.578 0.078
vt 0.578 0.922
vt 0.578 0.078
vt 0.578 0.922
vt 0.456 0.859
vt 0.54 0.859
vt 0.456 0.141
vt 0.54 0.141
vt 0.498 0.278
vt 0.498 0.722
vt 0.498 0.278
vt 0.498 0.722
vt 0.566 0.5
vt 0.566 0.5
vt 0.43 0.5
vt 0.43 0.5
vt 0.498 0.922
vt 0.498 0.078
vt 0.473 0.159
vt 0.523 0.159
vt 0.473 0.841
vt 0.523 0.841
vt 0.498 0.5
vt 0.473 0.159
vt 0.523 0.159
vt 0.473 0.841
vt 0.523 0.841
vt 0.498 0.5
vt 0.563 0.711
vt 0.563 0.289
vt 0.538 0.37
vt 0.538 0.63
vt 0.563 0.711
vt 0.563 0.289
vt 0.538 0.37
vt 0.538 0.63
vt 0.578 0.5
vt 0.433 0.711
vt 0.433 0.289
vt 0.458 0.37
vt 0.458 0.63
vt 0.433 0.711
vt 0.433 0.289
vt 0.458 0.37
vt 0.458 0.63
vt 0.418 0.5
vt 0.498 0.5
vt 0.578 0.5
vt 0.578 0.5
vt 0.498 0.5
vt 0.57 0.312
vt 0.57 0.312
vt 0.548 0.162
vt 0.548 0.162
vt 0.516 0.078
vt 0.516 0.078
vt 0.48 0.078
vt 0.48 0.078
vt 0.448 0.162
vt 0.448 0.162
vt 0.426 0.312
vt 0.426 0.312
vt 0.418 0.5
vt 0.418 0.5
vt 0.426 0.688
vt 0.426 0.688
vt 0.448 0.838
vt 0.448 0.838
vt 0.48 0.922
vt 0.48 0.922
vt 0.516 0.922
vt 0.516 0.922
vt 0.548 0.838
vt 0.548 0.838
vt 0.57 0.688
vt 0.57 0.688
f 12/12 1/1 2/2
f 3/3 12/12 2/2
f 13/13 12/12 3/3
f 4/4 13/13 3/3
f 14/14 13/13 4/4
f 5/5 14/14 4/4
f 15/15 14/14 5/5
f 6/6 15/15 5/5
f 16/16 15/15 6/6
f 7/7 16/16 6/6
f 17/17 16/16 7/7
f 8/8 17/17 7/7
f 18/18 17/17 8/8
f 9/9 18/18 8/8
f 19/19 18/18 9/9
f 10/10 19/19 9/9
f 20/20 19/19 10/10
f 11/11 20/20 10/10
f 21/21 1/1 12/12
f 13/13 21/21 12/12
f 22/22 21/21 13/13
f 14/14 22/22 13/13
f 23/23 22/22 14/14
f 15/15 23/23 14/14
f 24/24 23/23 15/15
f 16/16 24/24 15/15
f 25/25 24/24 16/16
f 17/17 25/25 16/16
f 26/26 25/25 17/17
f 18/18 26/26 17/17
f 27/27 26/26 18/18
f 19/19 27/27 18/18
f 28/28 27/27 19/19
f 20/20 28/28 19/19
f 29/29 28/28 20/20
f 11/11 29/29 20/20
f 30/30 1/1 21/21
f 22/22 30/30 21/21
f 31/31 30/30 22/22
f 23/23 31/31 22/22
f 32/32 31/31 23/23
f 24/24 32/32 23/23
f 33/33 32/32 24/24
f 25/25 33/33 24/24
f 34/34 33/33 25/25
f 26/26 34/34 25/25
f 35/35 34/34 26/26
f 27/27 35/35 26/26
f 36/36 35/35 27/27
f 28/28 36/36 27/27
f 37/37 36/36 28/28
f 29/29 37/37 28/28
f 38/38 37/37 29/29
f 11/11 38/38 29/29
f 39/39 1/1 30/30
f 31/31 39/39 30/30
f 40/40 39/39 31/31
f 32/32 40/40 31/31
f 41/41 40/40 32/32
f 33/33 41/41 32/32
f 42/42 41/41 33/33
f 34/34 42/42 33/33
f 43/43 42/42 34/34
f 35/35 43/43 34/34
f 44/44 43/43 35/35
f 36/36 44/44 35/35
f 45/45 44/44 36/36
f 37/37 45/45 36/36
f 46/46 45/45 37/37
f 38/38 46/46 37/37
f 47/47 46/46 38/38
f 11/11 47/47 38/38
f 48/48 1/1 39/39
f 40/40 48/48 39/39
f 49/49 48/48 40/40
f 41/41 49/49 40/40
f 50/50 49/49 41/41
f 42/42 50/50 41/41
f 51/51 50/50 42/42
f 43/43 51/51 42/42
f 52/52 51/51 43/43
f 44/44 52/52 43/43
f 53/53 52/52 44/44
f 45/45 53/53 44/44
f 54/54 53/53 45/45
f 46/46 54/54 45/45
f 55/55 54/54 46/46
f 47/47 55/55 46/46
f 56/56 55/55 47/47
f 11/11 56/56 47/47
f 57/57 1/1 48/48
f 49/49 57/57 48/48
f 58/58 57/57 49/49
f 50/50 58/58 49/49
f 59/59 58/58 50/50
f 51/51 59/59 50/50
f 60/60 59/59 51/51
f 52/52 60/60 51/51
f 61/61 60/60 52/52
f 53/53 61/61 52/52
f 62/62 61/61 53/53
f 54/54 62/62 53/53
f 63/63 62/62 54/54
f 55/55 63/63 54/54
f 64/64 63/63 55/55
f 56/56 64/64 55/55
f 65/65 64/64 56/56
f 11/11 65/65 56/56
f 66/66 1/1 57/57
f 58/58 66/66 57/57
f 67/67 66/66 58/58
f 59/59 67/67 58/58
f 68/68 67/67 59/59
f 60/60 68/68 59/59
f 69/69 68/68 60/60
f 61/61 69/69 60/60
f 70/70 69/69 61/61
f 62/62 70/70 61/61
f 71/71 70/70 62/62
f 63/63 71/71 62/62
f 72/72 71/71 63/63
f 64/64 72/72 63/63
f 73/73 72/72 64/64
f 65/65 73/73 64/64
f 74/74 73/73 65/65
f 11/11 74/74 65/65
f 75/75 1/1 66/66
f 67/67 75/75 66/66
f 76/76 75/75 67/67
f 68/68 76/76 67/67
f 77/77 76/76 68/68
f 69/69 77/77 68/68
f 78/78 77/77 69/69
f 70/70 78/78 69/69
f 79/79 78/78 70/70
f 71/71 79/79 70/70
f 80/80 79/79 71/71
f 72/72 80/80 71/71
f 81/81 80/80 72/72
f 73/73 81/81 72/72
f 82/82 81/81 73/73
f 74/74 82/82 73/73
f 83/83 82/82 74/74
f 11/11 83/83 74/74
f 84/84 1/1 75/75
f 76/76 84/84 75/75
f 85/85 84/84 76/76
f 77/77 85/85 76/76
f 86/86 85/85 77/77
f 78/78 86/86 77/77
f 87/87 86/86 78/78
f 79/79 87/87 78/78
f 88/88 87/87 79/79
f 80/80 88/88 79/79
f 89/89 88/88 80/80
f 81/81 89/89 80/80
f 90/90 89/89 81/81
f 82/82 90/90 81/81
f 91/91 90/90 82/82
f 83/83 91/91 82/82
f 92/92 91/91 83/83
f 11/11 92/92 83/83
f 93/93 1/1 84/84
f 85/85 93/93 84/84
f 94/94 93/93 85/85
f 86/86 94/94 85/85
f 95/95 94/94 86/86
f 87/87 95/95 86/86
f 96/96 95/95 87/87
f 88/88 96/96 87/87
f 97/97 96/96 88/88
f 89/89 97/97 88/88
f 98/98 97/97 89/89
f 90/90 98/98 89/89
f 99/99 98/98 90/90
f 91/91 99/99 90/90
f 100/100 99/99 91/91
f 92/92 100/100 91/91
f 101/101 100/100 92/92
f 11/11 101/101 92/92
f 102/102 1/1 93/93
f 94/94 102/102 93/93
f 103/103 102/102 94/94
f 95/95 103/103 94/94
f 104/104 103/103 95/95
f 96/96 104/104 95/95
f 105/105 104/104 96/96
f 97/97 105/105 96/96
f 106/106 105/105 97/97
f 98/98 106/106 97/97
f 107/107 106/106 98/98
f 99/99 107/107 98/98
f 108/108 107/107 99/99
f 100/100 108/108 99/99
f 109/109 108/108 100/100
f 101/101 109/109 100/100
f 110/110 109/109 101/101
f 11/11 110/110 101/101
f 111/111 1/1 102/102
f 103/103 111/111 102/102
f 112/112 111/111 103/103
f 104/104 112/112 103/103
f 113/113 112/112 104/104
f 105/105 113/113 104/104
f 114/114 113/113 105/105
f 106/106 114/114 105/105
f 115/115 114/114 106/106
f 107/107 115/115 106/106
f 116/116 115/115 107/107
f 108/108 116/116 107/107
f 117/117 116/116 108/108
f 109/109 117/117 108/108
f 118/118 117/117 109/109
f 110/110 118/118 109/109
f 119/119 118/118 110/110
f 11/11 119/119 110/110
f 120/120 1/1 111/111
f 112/112 120/120 111/111
f 121/121 120/120 112/112
f 113/113 121/121 112/112
f 122/122 121/121 113/113
f 114/114 122/122 113/113
f 123/123 122/122 114/114
f 115/115 123/123 114/114
f 124/124 123/123 115/115
f 116/116 124/124 115/115
f 125/125 124/124 116/116
f 117/117 125/125 116/116
f 126/126 125/125 117/117
f 118/118 126/126 117/117
f 127/127 126/126 118/118
f 119/119 127/127 118/118
f 128/128 127/127 119/119
f 11/11 128/128 119/119
f 129/129 1/1 120/120
f 121/121 129/129 120/120
f 130/130 129/129 121/121
f 122/122 130/130 121/121
f 131/131 130/130 122/122
f 123/123 131/131 122/122
f 132/132 131/131 123/123
f 124/124 132/132 123/123
f 133/133 132/132 124/124
f 125/125 133/133 124/124
f 134/134 133/133 125/125
f 126/126 134/134 125/125
f 135/135 134/134 126/126
f 127/127 135/135 126/126
f 136/136 135/135 127/127
f 128/128 136/136 127/127
f 137/137 136/136 128/128
f 11/11 137/137 128/128
f 138/138 1/1 129/129
f 130/130 138/138 129/129
f 139/139 138/138 130/130
f 131/131 139/139 130/130
f 140/140 139/139 131/131
f 132/132 140/140 131/131
f 141/141 140/140 132/132
f 133/133 141/141 132/132
f 142/142 141/141 133/133
f 134/134 142/142 133/133
f 143/143 142/142 134/134
f 135/135 143/143 134/134
f 144/144 143/143 135/135
f 136/136 144/144 135/135
f 145/145 144/144 136/136
f 137/137 145/145 136/136
f 146/146 145/145 137/137
f 11/11 146/146 137/137
f 147/147 1/1 138/138
f 139/139 147/147 138/138
f 148/148 147/147 139/139
f 140/140 148/148 139/139
f 149/149 148/148 140/140
f 141/141 149/149 140/140
f 150/150 149/149 141/141
f 142/142 150/150 141/141
f 151/151 150/150 142/142
f 143/143 151/151 142/142
f 152/152 151/151 143/143
f 144/144 152/152 143/143
f 153/153 152/152 144/144
f 145/145 153/153 144/144
f 154/154 153/153 145/145
f 146/146 154/154 145/145
f 155/155 154/154 146/146
f 11/11 155/155 146/146
f 156/156 1/1 147/147
f 148/148 156/156 147/147
f 157/157 156/156 148/148
f 149/149 157/157 148/148
f 158/158 157/157 149/149
f 150/150 158/158 149/149
f 159/159 158/158 150/150
f 151/151 159/159 150/150
f 160/160 159/159 151/151
f 152/152 160/160 151/151
f 161/161 160/160 152/152
f 153/153 161/161 152/152
f 162/162 161/161 153/153
f 154/154 162/162 153/153
f 163/163 162/162 154/154
f 155/155 163/163 154/154
f 164/164 163/163 155/155
f 11/11 164/164 155/155
f 165/165 1/1 156/156
f 157/157 165/165 156/156
f 166/166 165/165 157/157
f 158/158 166/166 157/157
f 167/167 166/166 158/158
f 159/159 167/167 158/158
f 168/168 167/167 159/159
f 160/160 168/168 159/159
f 169/169 168/168 160/160
f 161/161 169/169 160/160
f 170/170 169/169 161/161
f 162/162 170/170 161/161
f 171/171 170/170 162/162
f 163/163 171/171 162/162
f 172/172 171/171 163/163
f 164/164 172/172 163/163
f 173/173 172/172 164/164
f 11/11 173/173 164/164
f 174/174 1/1 165/165
f 166/166 174/174 165/165
f 175/175 174/174 166/166
f 167/167 175/175 166/166
f 176/176 175/175 167/167
f 168/168 176/176 167/167
f 177/177 176/176 168/168
f 169/169 177/177 168/168
f 178/178 177/177 169/169
f 170/170 178/178 169/169
f 179/179 178/178 170/170
f 171/171 179/179 170/170
f 180/180 179/179 171/171
f 172/172 180/180 171/171
f 181/181 180/180 172/172
f 173/173 181/181 172/172
f 182/182 181/181 173/173
f 11/11 182/182 173/173
f 183/183 1/1 174/174
f 175/175 183/183 174/174
f 184/184 183/183 175/175
f 176/176 184/184 175/175
f 185/185 184/184 176/176
f 177/177 185/185 176/176
f 186/186 185/185 177/177
f 178/178 186/186 177/177
f 187/187 186/186 178/178
f 179/179 187/187 178/178
f 188/188 187/187 179/179
f 180/180 188/188 179/179
f 189/189 188/188 180/180
f 181/181 189/189 180/180
f 190/190 189/189 181/181
f 182/182 190/190 181/181
f 191/191 190/190 182/182
f 11/11 191/191 182/182
f 192/192 1/1 183/183
f 184/184 192/192 183/183
f 193/193 192/192 184/184
f 185/185 193/193 184/184
f 194/194 193/193 185/185
f 186/186 194/194 185/185
f 195/195 194/194 186/186
f 187/187 195/195 186/186
f 196/196 195/195 187/187
f 188/188 196/196 187/187
f 197/197 196/196 188/188
f 189/189 197/197 188/188
f 198/198 197/197 189/189
f 190/190 198/198 189/189
f 199/199 198/198 190/190
f 191/191 199/199 190/190
f 200/200 199/199 191/191
f 11/11 200/200 191/191
f 201/201 1/1 192/192
f 193/193 201/201 192/192
f 202/202 201/201 193/193
f 194/194 202/202 193/193
f 203/203 202/202 194/194
f 195/195 203/203 194/194
f 204/204 203/203 195/195
f 196/196 204/204 195/195
f 205/205 204/204 196/196
f 197/197 205/205 196/196
f 206/206 205/205 197/197
f 198/198 206/206 197/197
f 207/207 206/206 198/198
f 199/199 207/207 198/198
f 208/208 207/207 199/199
f 200/200 208/208 199/199
f 209/209 208/208 200/200
f 11/11 209/209 200/200
f 210/210 1/1 201/201
f 202/202 210/210 201/201
f 211/211 210/210 202/202
f 203/203 211/211 202/202
f 212/212 211/211 203/203
f 204/204 212/212 203/203
f 213/213 212/212 204/204
f 205/205 213/213 204/204
f 214/214 213/213 205/205
f 206/206 214/214 205/205
f 215/215 214/214 206/206
f 207/207 215/215 206/206
f 216/216 215/215 207/207
f 208/208 216/216 207/207
f 217/217 216/216 208/208
f 209/209 217/217 208/208
f 218/218 217/217 209/209
f 11/11 218/218 209/209
f 219/219 1/1 210/210
f 211/211 219/219 210/210
f 220/220 219/219 211/211
f 212/212 220/220 211/211
f 221/221 220/220 212/212
f 213/213 221/221 212/212
f 222/222 221/221 213/213
f 214/214 222/222 213/213
f 223/223 222/222 214/214
f 215/215 223/223 214/214
f 224/224 223/223 215/215
f 216/216 224/224 215/215
f 225/225 224/224 216/216
f 217/217 225/225 216/216
f 226/226 225/225 217/217
f 218/218 226/226 217/217
f 227/227 226/226 218/218
f 11/11 227/227 218/218
f 228/228 1/1 219/219
f 220/220 228/228 219/219
f 229/229 228/228 220/220
f 221/221 229/229 220/220
f 230/230 229/229 221/221
f 222/222 230/230 221/221
f 231/231 230/230 222/222
f 223/223 231/231 222/222
f 232/232 231/231 223/223
f 224/224 232/232 223/223
f 233/233 232/232 224/224
f 225/225 233/233 224/224
f 234/234 233/233 225/225
f 226/226 234/234 225/225
f 235/235 234/234 226/226
f 227/227 235/235 226/226
f 236/236 235/235 227/227
f 11/11 236/236 227/227
f 237/237 1/1 228/228
f 229/229 237/237 228/228
f 238/238 237/237 229/229
f 230/230 238/238 229/229
f 239/239 238/238 230/230
f 231/231 239/239 230/230
f 240/240 239/239 231/231
f 232/232 240/240 231/231
f 241/241 240/240 232/232
f 233/233 241/241 232/232
f 242/242 241/241 233/233
f 234/234 242/242 233/233
f 243/243 242/242 234/234
f 235/235 243/243 234/234
f 244/244 243/243 235/235
f 236/236 244/244 235/235
f 245/245 244/244 236/236
f 11/11 245/245 236/236
f 246/246 1/1 237/237
f 238/238 246/246 237/237
f 247/247 246/246 238/238
f 239/239 247/247 238/238
f 248/248 247/247 239/239
f 240/240 248/248 239/239
f 249/249 248/248 240/240
f 241/241 249/249 240/240
f 250/250 249/249 241/241
f 242/242 250/250 241/241
f 251/251 250/250 242/242
f 243/243 251/251 242/242
f 252/252 251/251 243/243
f 244/244 252/252 243/243
f 253/253 252/252 244/244
f 245/245 253/253 244/244
f 254/254 253/253 245/245
f 11/11 254/254 245/245
f 2/2 1/1 246/246
f 247/247 2/2 246/246
f 3/3 2/2 247/247
f 248/248 3/3 247/247
f 4/4 3/3 248/248
f 249/249 4/4 248/248
f 5/5 4/4 249/249
f 250/250 5/5 249/249
f 6/6 5/5 250/250
f 251/251 6/6 250/250
f 7/7 6/6 251/251
f 252/252 7/7 251/251
f 8/8 7/7 252/252
f 253/253 8/8 252/252
f 9/9 8/8 253/253
f 254/254 9/9 253/253
f 10/10 9/9 254/254
f 11/11 10/10 254/254
f 265/265 255/255 256/256
f 257/257 265/265 256/256
f 266/266 265/265 257/257
f 258/258 266/266 257/257
f 267/267 266/266 258/258
f 259/259 267/267 258/258
f 268/268 267/267 259/259
f 260/260 268/268 259/259
f 269/269 268/268 260/260
f 261/261 269/269 260/260
f 270/270 269/269 261/261
f 262/262 270/270 261/261
f 271/271 270/270 262/262
f 263/263 271/271 262/262
f 272/272 271/271 263/263
f 264/264 272/272 263/263
f 273/273 255/255 265/265
f 266/266 273/273 265/265
f 274/274 273/273 266/266
f 267/267 274/274 266/266
f 275/275 274/274 267/267
f 268/268 275/275 267/267
f 276/276 275/275 268/268
f 269/269 276/276 268/268
f 277/277 276/276 269/269
f 270/270 277/277 269/269
f 278/278 277/277 270/270
f 271/271 278/278 270/270
f 279/279 278/278 271/271
f 272/272 279/279 271/271
f 280/280 279/279 272/272
f 264/264 280/280 272/272
f 281/281 255/255 273/273
f 274/274 281/281 273/273
f 282/282 281/281 274/274
f 275/275 282/282 274/274
f 283/283 282/282 275/275
f 276/276 283/283 275/275
f 284/284 283/283 276/276
f 277/277 284/284 276/276
f 285/285 284/284 277/277
f 278/278 285/285 277/277
f 286/286 285/285 278/278
f 279/279 286/286 278/278
f 287/287 286/286 279/279
f 280/280 287/287 279/279
f 288/288 287/287 280/280
f 264/264 288/288 280/280
f 289/289 255/255 281/281
f 282/282 289/289 281/281
f 290/290 289/289 282/282
f 283/283 290/290 282/282
f 291/291 290/290 283/283
f 284/284 291/291 283/283
f 292/292 291/291 284/284
f 285/285 292/292 284/284
f 293/293 292/292 285/285
f 286/286 293/293 285/285
f 294/294 293/293 286/286
f 287/287 294/294 286/286
f 295/295 294/294 287/287
f 288/288 295/295 287/287
f 296/296 295/295 288/288
f 264/264 296/296 288/288
f 297/297 255/255 289/289
f 290/290 297/297 289/289
f 298/298 297/297 290/290
f 291/291 298/298 290/290
f 299/299 298/298 291/291
f 292/292 299/299 291/291
f 300/300 299/299 292/292
f 293/293 300/300 292/292
f 301/301 300/300 293/293
f 294/294 301/301 293/293
f 302/302 301/301 294/294
f 295/295 302/302 294/294
f 303/303 302/302 295/295
f 296/296 303/303 295/295
f 304/304 303/303 296/296
f 264/264 304/304 296/296
f 305/305 255/255 297/297
f 298/298 305/305 297/297
f 306/306 305/305 298/298
f 299/299 306/306 298/298
f 307/307 306/306 299/299
f 300/300 307/307 299/299
f 308/308 307/307 300/300
f 301/301 308/308 300/300
f 309/309 308/308 301/301
f 302/302 309/309 301/301
f 310/310 309/309 302/302
f 303/303 310/310 302/302
f 311/311 310/310 303/303
f 304/304 311/311 303/303
f 312/312 311/311 304/304
f 264/264 312/312 304/304
f 313/313 255/255 305/305
f 306/306 313/313 305/305
f 314/314 313/313 306/306
f 307/307 314/314 306/306
f 315/315 314/314 307/307
f 308/308 315/315 307/307
f 316/316 315/315 308/308
f 309/309 316/316 308/308
f 317/317 316/316 309/309
f 310/310 317/317 309/309
f 318/318 317/317 310/310
f 311/311 318/318 310/310
f 319/319 318/318 311/311
f 312/312 319/319 311/311
f 320/320 319/319 312/312
f 264/264 320/320 312/312
f 321/321 255/255 313/313
f 314/314 321/321 313/313
f 322/322 321/321 314/314
f 315/315 322/322 314/314
f 323/323 322/322 315/315
f 316/316 323/323 315/315
f 324/324 323/323 316/316
f 317/317 324/324 316/316
f 325/325 324/324 317/317
f 318/318 325/325 317/317
f 326/326 325/325 318/318
f 319/319 326/326 318/318
f 327/327 326/326 319/319
f 320/320 327/327 319/319
f 328/328 327/327 320/320
f 264/264 328/328 320/320
f 329/329 255/255 321/321
f 322/322 329/329 321/321
f 330/330 329/329 322/322
f 323/323 330/330 322/322
f 331/331 330/330 323/323
f 324/324 331/331 323/323
f 332/332 331/331 324/324
f 325/325 332/332 324/324
f 333/333 332/332 325/325
f 326/326 333/333 325/325
f 334/334 333/333 326/326
f 327/327 334/334 326/326
f 335/335 334/334 327/327
f 328/328 335/335 327/327
f 336/336 335/335 328/328
f 264/264 336/336 328/328
f 337/337 255/255 329/329
f 330/330 337/337 329/329
f 338/338 337/337 330/330
f 331/331 338/338 330/330
f 339/339 338/338 331/331
f 332/332 339/339 331/331
f 340/340 339/339 332/332
f 333/333 340/340 332/332
f 341/341 340/340 333/333
f 334/334 341/341 333/333
f 342/342 341/341 334/334
f 335/335 342/342 334/334
f 343/343 342/342 335/335
f 336/336 343/343 335/335
f 344/344 343/343 336/336
f 264/264 344/344 336/336
f 345/345 255/255 337/337
f 338/338 345/345 337/337
f 346/346 345/345 338/338
f 339/339 346/346 338/338
f 347/347 346/346 339/339
f 340/340 347/347 339/339
f 348/348 347/347 340/340
f 341/341 348/348 340/340
f 349/349 348/348 341/341
f 342/342 349/349 341/341
f 350/350 349/349 342/342
f 343/343 350/350 342/342
f 351/351 350/350 343/343
f 344/344 351/351 343/343
f 352/352 351/351 344/344
f 264/264 352/352 344/344
f 353/353 255/255 345/345
f 346/346 353/353 345/345
f 354/354 353/353 346/346
f 347/347 354/354 346/346
f 355/355 354/354 347/347
f 348/348 355/355 347/347
f 356/356 355/355 348/348
f 349/349 356/356 348/348
f 357/357 356/356 349/349
f 350/350 357/357 349/349
f 358/358 357/357 350/350
f 351/351 358/358 350/350
f 359/359 358/358 351/351
f 352/352 359/359 351/351
f 360/360 359/359 352/352
f 264/264 360/360 352/352
f 361/361 255/255 353/353
f 354/354 361/361 353/353
f 362/362 361/361 354/354
f 355/355 362/362 354/354
f 363/363 362/362 355/355
f 356/356 363/363 355/355
f 364/364 363/363 356/356
f 357/357 364/364 356/356
f 365/365 364/364 357/357
f 358/358 365/365 357/357
f 366/366 365/365 358/358
f 359/359 366/366 358/358
f 367/367 366/366 359/359
f 360/360 367/367 359/359
f 368/368 367/367 360/360
f 264/264 368/368 360/360
f 369/369 255/255 361/361
f 362/362 369/369 361/361
f 370/370 369/369 362/362
f 363/363 370/370 362/362
f 371/371 370/370 363/363
f 364/364 371/371 363/363
f 372/372 371/371 364/364
f 365/365 372/372 364/364
f 373/373 372/372 365/365
f 366/366 373/373 365/365
f 374/374 373/373 366/366
f 367/367 374/374 366/366
f 375/375 374/374 367/367
f 368/368 375/375 367/367
f 376/376 375/375 368/368
f 264/264 376/376 368/368
f 377/377 255/255 369/369
f 370/370 377/377 369/369
f 378/378 377/377 370/370
f 371/371 378/378 370/370
f 379/379 378/378 371/371
f 372/372 379/379 371/371
f 380/380 379/379 372/372
f 373/373 380/380 372/372
f 381/381 380/380 373/373
f 374/374 381/381 373/373
f 382/382 381/381 374/374
f 375/375 382/382 374/374
f 383/383 382/382 375/375
f 376/376 383/383 375/375
f 384/384 383/383 376/376
f 264/264 384/384 376/376
f 385/385 255/255 377/377
f 378/378 385/385 377/377
f 386/386 385/385 378/378
f 379/379 386/386 378/378
f 387/387 386/386 379/379
f 380/380 387/387 379/379
f 388/388 387/387 380/380
f 381/381 388/388 380/380
f 389/389 388/388 381/381
f 382/382 389/389 381/381
f 390/390 389/389 382/382
f 383/383 390/390 382/382
f 391/391 390/390 383/383
f 384/384 391/391 383/383
f 392/392 391/391 384/384
f 264/264 392/392 384/384
f 393/393 255/255 385/385
f 386/386 393/393 385/385
f 394/394 393/393 386/386
f 387/387 394/394 386/386
f 395/395 394/394 387/387
f 388/388 395/395 387/387
f 396/396 395/395 388/388
f 389/389 396/396 388/388
f 397/397 396/396 389/389
f 390/390 397/397 389/389
f 398/398 397/397 390/390
f 391/391 398/398 390/390
f 399/399 398/398 391/391
f 392/392 399/399 391/391
f 400/400 399/399 392/392
f 264/264 400/400 392/392
f 401/401 255/255 393/393
f 394/394 401/401 393/393
f 402/402 401/401 394/394
f 395/395 402/402 394/394
f 403/403 402/402 395/395
f 396/396 403/403 395/395
f 404/404 403/403 396/396
f 397/397 404/404 396/396
f 405/405 404/404 397/397
f 398/398 405/405 397/397
f 406/406 405/405 398/398
f 399/399 406/406 398/398
f 407/407 406/406 399/399
f 400/400 407/407 399/399
f 408/408 407/407 400/400
f 264/264 408/408 400/400
f 409/409 255/255 401/401
f 402/402 409/409 401/401
f 410/410 409/409 402/402
f 403/403 410/410 402/402
f 411/411 410/410 403/403
f 404/404 411/411 403/403
f 412/412 411/411 404/404
f 405/405 412/412 404/404
f 413/413 412/412 405/405
f 406/406 413/413 405/405
f 414/414 413/413 406/406
f 407/407 414/414 406/406
f 415/415 414/414 407/407
f 408/408 415/415 407/407
f 416/416 415/415 408/408
f 264/264 416/416 408/408
f 417/417 255/255 409/409
f 410/410 417/417 409/409
f 418/418 417/417 410/410
f 411/411 418/418 410/410
f 419/419 418/418 411/411
f 412/412 419/419 411/411
f 420/420 419/419 412/412
f 413/413 420/420 412/412
f 421/421 420/420 413/413
f 414/414 421/421 413/413
f 422/422 421/421 414/414
f 415/415 422/422 414/414
f 423/423 422/422 415/415
f 416/416 423/423 415/415
f 424/424 423/423 416/416
f 264/264 424/424 416/416
f 425/425 255/255 417/417
f 418/418 425/425 417/417
f 426/426 425/425 418/418
f 419/419 426/426 418/418
f 427/427 426/426 419/419
f 420/420 427/427 419/419
f 428/428 427/427 420/420
f 421/421 428/428 420/420
f 429/429 428/428 421/421
f 422/422 429/429 421/421
f 430/430 429/429 422/422
f 423/423 430/430 422/422
f 431/431 430/430 423/423
f 424/424 431/431 423/423
f 432/432 431/431 424/424
f 264/264 432/432 424/424
f 433/433 255/255 425/425
f 426/426 433/433 425/425
f 434/434 433/433 426/426
f 427/427 434/434 426/426
f 435/435 434/434 427/427
f 428/428 435/435 427/427
f 436/436 435/435 428/428
f 429/429 436/436 428/428
f 437/437 436/436 429/429
f 430/430 437/437 429/429
f 438/438 437/437 430/430
f 431/431 438/438 430/430
f 439/439 438/438 431/431
f 432/432 439/439 431/431
f 440/440 439/439 432/432
f 264/264 440/440 432/432
f 441/441 255/255 433/433
f 434/434 441/441 433/433
f 442/442 441/441 434/434
f 435/435 442/442 434/434
f 443/443 442/442 435/435
f 436/436 443/443 435/435
f 444/444 443/443 436/436
f 437/437 444/444 436/436
f 445/445 444/444 437/437
f 438/438 445/445 437/437
f 446/446 445/445 438/438
f 439/439 446/446 438/438
f 447/447 446/446 439/439
f 440/440 447/447 439/439
f 448/448 447/447 440/440
f 264/264 448/448 440/440
f 449/449 255/255 441/441
f 442/442 449/449 441/441
f 450/450 449/449 442/442
f 443/443 450/450 442/442
f 451/451 450/450 443/443
f 444/444 451/451 443/443
f 452/452 451/451 444/444
f 445/445 452/452 444/444
f 453/453 452/452 445/445
f 446/446 453/453 445/445
f 454/454 453/453 446/446
f 447/447 454/454 446/446
f 455/455 454/454 447/447
f 448/448 455/455 447/447
f 456/456 455/455 448/448
f 264/264 456/456 448/448
f 457/457 255/255 449/449
f 450/450 457/457 449/449
f 458/458 457/457 450/450
f 451/451 458/458 450/450
f 459/459 458/458 451/451
f 452/452 459/459 451/451
f 460/460 459/459 452/452
f 453/453 460/460 452/452
f 461/461 460/460 453/453
f 454/454 461/461 453/453
f 462/462 461/461 454/454
f 455/455 462/462 454/454
f 463/463 462/462 455/455
f 456/456 463/463 455/455
f 464/464 463/463 456/456
f 264/264 464/464 456/456
f 465/465 255/255 457/457
f 458/458 465/465 457/457
f 466/466 465/465 458/458
f 459/459 466/466 458/458
f 467/467 466/466 459/459
f 460/460 467/467 459/459
f 468/468 467/467 460/460
f 461/461 468/468 460/460
f 469/469 468/468 461/461
f 462/462 469/469 461/461
f 470/470 469/469 462/462
f 463/463 470/470 462/462
f 471/471 470/470 463/463
f 464/464 471/471 463/463
f 472/472 471/471 464/464
f 264/264 472/472 464/464
f 473/473 255/255 465/465
f 466/466 473/473 465/465
f 474/474 473/473 466/466
f 467/467 474/474 466/466
f 475/475 474/474 467/467
f 468/468 475/475 467/467
f 476/476 475/475 468/468
f 469/469 476/476 468/468
f 477/477 476/476 469/469
f 470/470 477/477 469/469
f 478/478 477/477 470/470
f 471/471 478/478 470/470
f 479/479 478/478 471/471
f 472/472 479/479 471/471
f 480/480 479/479 472/472
f 264/264 480/480 472/472
f 256/256 255/255 473/473
f 474/474 256/256 473/473
f 257/257 256/256 474/474
f 475/475 257/257 474/474
f 258/258 257/257 475/475
f 476/476 258/258 475/475
f 259/259 258/258 476/476
f 477/477 259/259 476/476
f 260/260 259/259 477/477
f 478/478 260/260 477/477
f 261/261 260/260 478/478
f 479/479 261/261 478/478
f 262/262 261/261 479/479
f 480/480 262/262 479/479
f 263/263 262/262 480/480
f 264/264 263/263 480/480
f 485/485 481/481 482/482
f 483/483 485/485 482/482
f 486/486 485/485 483/483
f 484/484 486/486 483/483
f 487/487 481/481 485/485
f 486/486 487/487 485/485
f 488/488 487/487 486/486
f 484/484 488/488 486/486
f 489/489 481/481 487/487
f 488/488 489/489 487/487
f 490/490 489/489 488/488
f 484/484 490/490 488/488
f 491/491 481/481 489/489
f 490/490 491/491 489/489
f 492/492 491/491 490/490
f 484/484 492/492 490/490
f 493/493 481/481 491/491
f 492/492 493/493 491/491
f 494/494 493/493 492/492
f 484/484 494/494 492/492
f 495/495 481/481 493/493
f 494/494 495/495 493/493
f 496/496 495/495 494/494
f 484/484 496/496 494/494
f 497/497 481/481 495/495
f 496/496 497/497 495/495
f 498/498 497/497 496/496
f 484/484 498/498 496/496
f 499/499 481/481 497/497
f 498/498 499/499 497/497
f 500/500 499/499 498/498
f 484/484 500/500 498/498
f 501/501 481/481 499/499
f 500/500 501/501 499/499
f 502/502 501/501 500/500
f 484/484 502/502 500/500
f 503/503 481/481 501/501
f 502/502 503/503 501/501
f 504/504 503/503 502/502
f 484/484 504/504 502/502
f 505/505 481/481 503/503
f 504/504 505/505 503/503
f 506/506 505/505 504/504
f 484/484 506/506 504/504
f 507/507 481/481 505/505
f 506/506 507/507 505/505
f 508/508 507/507 506/506
f 484/484 508/508 506/506
f 509/509 481/481 507/507
f 508/508 509/509 507/507
f 510/510 509/509 508/508
f 484/484 510/510 508/508
f 511/511 481/481 509/509
f 510/510 511/511 509/509
f 512/512 511/511 510/510
f 484/484 512/512 510/510
f 513/513 481/481 511/511
f 512/512 513/513 511/511
f 514/514 513/513 512/512
f 484/484 514/514 512/512
f 515/515 481/481 513/513
f 514/514 515/515 513/513
f 516/516 515/515 514/514
f 484/484 516/516 514/514
f 517/517 481/481 515/515
f 516/516 517/517 515/515
f 518/518 517/517 516/516
f 484/484 518/518 516/516
f 519/519 481/481 517/517
f 518/518 519/519 517/517
f 520/520 519/519 518/518
f 484/484 520/520 518/518
f 521/521 481/481 519/519
f 520/520 521/521 519/519
f 522/522 521/521 520/520
f 484/484 522/522 520/520
f 523/523 481/481 521/521
f 522/522 523/523 521/521
f 524/524 523/523 522/522
f 484/484 524/524 522/522
f 525/525 481/481 523/523
f 524/524 525/525 523/523
f 526/526 525/525 524/524
f 484/484 526/526 524/524
f 527/527 481/481 525/525
f 526/526 527/527 525/525
f 528/528 527/527 526/526
f 484/484 528/528 526/526
f 529/529 481/481 527/527
f 528/528 529/529 527/527
f 530/530 529/529 528/528
f 484/484 530/530 528/528
f 482/482 481/481 529/529
f 530/530 482/482 529/529
f 483/483 482/482 530/530
f 484/484 483/483 530/530
f 532/532 533/533 531/531
f 541/541 540/540 539/539
f 533/533 534/534 531/531
f 542/542 541/541 539/539
f 534/534 535/535 531/531
f 543/543 542/542 539/539
f 535/535 536/536 531/531
f 544/544 543/543 539/539
f 536/536 537/537 531/531
f 545/545 544/544 539/539
f 537/537 538/538 531/531
f 546/546 545/545 539/539
f 540/540 532/532 531/531
f 539/539 540/540 531/531
f 541/541 533/533 532/532
f 540/540 541/541 532/532
f 542/542 534/534 533/533
f 541/541 542/542 533/533
f 543/543 535/535 534/534
f 542/542 543/543 534/534
f 544/544 536/536 535/535
f 543/543 544/544 535/535
f 545/545 537/537 536/536
f 544/544 545/545 536/536
f 546/546 538/538 537/537
f 545/545 546/546 537/537
f 539/539 531/531 538/538
f 546/546 539/539 538/538
f 548/548 549/549 547/547
f 557/557 556/556 555/555
f 549/549 550/550 547/547
f 558/558 557/557 555/555
f 550/550 551/551 547/547
f 559/559 558/558 555/555
f 551/551 552/552 547/547
f 560/560 559/559 555/555
f 552/552 553/553 547/547
f 561/561 560/560 555/555
f 553/553 554/554 547/547
f 562/562 561/561 555/555
f 556/556 548/548 547/547
f 555/555 556/556 547/547
f 557/557 549/549 548/548
f 556/556 557/557 548/548
f 558/558 550/550 549/549
f 557/557 558/558 549/549
f 559/559 551/551 550/550
f 558/558 559/559 550/550
f 560/560 552/552 551/551
f 559/559 560/560 551/551
f 561/561 553/553 552/552
f 560/560 561/561 552/552
f 562/562 554/554 553/553
f 561/561 562/562 553/553
f 555/555 547/547 554/554
f 562/562 555/555 554/554
f 567/567 563/563 564/564
f 565/565 567/567 564/564
f 568/568 567/567 565/565
f 566/566 568/568 565/565
f 569/569 563/563 567/567
f 568/568 569/569 567/567
f 570/570 569/569 568/568
f 566/566 570/570 568/568
f 571/571 563/563 569/569
f 570/570 571/571 569/569
f 572/572 571/571 570/570
f 566/566 572/572 570/570
f 573/573 563/563 571/571
f 572/572 573/573 571/571
f 574/574 573/573 572/572
f 566/566 574/574 572/572
f 575/575 563/563 573/573
f 574/574 575/575 573/573
f 576/576 575/575 574/574
f 566/566 576/576 574/574
f 577/577 563/563 575/575
f 576/576 577/577 575/575
f 578/578 577/577 576/576
f 566/566 578/578 576/576
f 579/579 563/563 577/577
f 578/578 579/579 577/577
f 580/580 579/579 578/578
f 566/566 580/580 578/578
f 581/581 563/563 579/579
f 580/580 581/581 579/579
f 582/582 581/581 580/580
f 566/566 582/582 580/580
f 583/583 563/563 581/581
f 582/582 583/583 581/581
f 584/584 583/583 582/582
f 566/566 584/584 582/582
f 585/585 563/563 583/583
f 584/584 585/585 583/583
f 586/586 585/585 584/584
f 566/566 586/586 584/584
f 587/587 563/563 585/585
f 586/586 587/587 585/585
f 588/588 587/587 586/586
f 566/566 588/588 586/586
f 589/589 563/563 587/587
f 588/588 589/589 587/587
f 590/590 589/589 588/588
f 566/566 590/590 588/588
f 591/591 563/563 589/589
f 590/590 591/591 589/589
f 592/592 591/591 590/590
f 566/566 592/592 590/590
f 593/593 563/563 591/591
f 592/592 593/593 591/591
f 594/594 593/593 592/592
f 566/566 594/594 592/592
f 595/595 563/563 593/593
f 594/594 595/595 593/593
f 596/596 595/595 594/594
f 566/566 596/596 594/594
f 597/597 563/563 595/595
f 596/596 597/597 595/595
f 598/598 597/597 596/596
f 566/566 598/598 596/596
f 599/599 563/563 597/597
f 598/598 599/599 597/597
f 600/600 599/599 598/598
f 566/566 600/600 598/598
f 601/601 563/563 599/599
f 600/600 601/601 599/599
f 602/602 601/601 600/600
f 566/566 602/602 600/600
f 603/603 563/563 601/601
f 602/602 603/603 601/601
f 604/604 603/603 602/602
f 566/566 604/604 602/602
f 605/605 563/563 603/603
f 604/604 605/605 603/603
f 606/606 605/605 604/604
f 566/566 606/606 604/604
f 607/607 563/563 605/605
f 606/606 607/607 605/605
f 608/608 607/607 606/606
f 566/566 608/608 606/606
f 609/609 563/563 607/607
f 608/608 609/609 607/607
f 610/610 609/609 608/608
f 566/566 610/610 608/608
f 611/611 563/563 609/609
f 610/610 611/611 609/609
f 612/612 611/611 610/610
f 566/566 612/612 610/610
f 613/613 563/563 611/611
f 612/612 613/613 611/611
f 614/614 613/613 612/612
f 566/566 614/614 612/612
f 615/615 563/563 613/613
f 614/614 615/615 613/613
f 616/616 615/615 614/614
f 566/566 616/616 614/614
f 617/617 563/563 615/615
f 616/616 617/617 615/615
f 618/618 617/617 616/616
f 566/566 618/618 616/616
f 619/619 563/563 617/617
f 618/618 619/619 617/617
f 620/620 619/619 618/618
f 566/566 620/620 618/618
f 564/564 563/563 619/619
f 620/620 564/564 619/619
f 565/565 564/564 620/620
f 566/566 565/565 620/620
f 625/625 621/621 622/622
f 623/623 625/625 622/622
f 626/626 625/625 623/623
f 624/624 626/626 623/623
f 627/627 621/621 625/625
f 626/626 627/627 625/625
f 628/628 627/627 626/626
f 624/624 628/628 626/626
f 629/629 621/621 627/627
f 628/628 629/629 627/627
f 630/630 629/629 628/628
f 624/624 630/630 628/628
f 631/631 621/621 629/629
f 630/630 631/631 629/629
f 632/632 631/631 630/630
f 624/624 632/632 630/630
f 633/633 621/621 631/631
f 632/632 633/633 631/631
f 634/634 633/633 632/632
f 624/624 634/634 632/632
f 635/635 621/621 633/633
f 634/634 635/635 633/633
f 636/636 635/635 634/634
f 624/624 636/636 634/634
f 637/637 621/621 635/635
f 636/636 637/637 635/635
f 638/638 637/637 636/636
f 624/624 638/638 636/636
f 639/639 621/621 637/637
f 638/638 639/639 637/637
f 640/640 639/639 638/638
f 624/624 640/640 638/638
f 641/641 621/621 639/639
f 640/640 641/641 639/639
f 642/642 641/641 640/640
f 624/624 642/642 640/640
f 643/643 621/621 641/641
f 642/642 643/643 641/641
f 644/644 643/643 642/642
f 624/624 644/644 642/642
f 645/645 621/621 643/643
f 644/644 645/645 643/643
f 646/646 645/645 644/644
f 624/624 646/646 644/644
f 647/647 621/621 645/645
f 646/646 647/647 645/645
f 648/648 647/647 646/646
f 624/624 648/648 646/646
f 649/649 621/621 647/647
f 648/648 649/649 647/647
f 650/650 649/649 648/648
f 624/624 650/650 648/648
f 651/651 621/621 649/649
f 650/650 651/651 649/649
f 652/652 651/651 650/650
f 624/624 652/652 650/650
f 653/653 621/621 651/651
f 652/652 653/653 651/651
f 654/654 653/653 652/652
f 624/624 654/654 652/652
f 655/655 621/621 653/653
f 654/654 655/655 653/653
f 656/656 655/655 654/654
f 624/624 656/656 654/654
f 657/657 621/621 655/655
f 656/656 657/657 655/655
f 658/658 657/657 656/656
f 624/624 658/658 656/656
f 659/659 621/621 657/657
f 658/658 659/659 657/657
f 660/660 659/659 658/658
f 624/624 660/660 658/658
f 661/661 621/621 659/659
f 660/660 661/661 659/659
f 662/662 661/661 660/660
f 624/624 662/662 660/660
f 663/663 621/621 661/661
f 662/662 663/663 661/661
f 664/664 663/663 662/662
f 624/624 664/664 662/662
f 665/665 621/621 663/663
f 664/664 665/665 663/663
f 666/666 665/665 664/664
f 624/624 666/666 664/664
f 667/667 621/621 665/665
f 666/666 667/667 665/665
f 668/668 667/667 666/666
f 624/624 668/668 666/666
f 669/669 621/621 667/667
f 668/668 669/669 667/667
f 670/670 669/669 668/668
f 624/624 670/670 668/668
f 671/671 621/621 669/669
f 670/670 671/671 669/669
f 672/672 671/671 670/670
f 624/624 672/672 670/670
f 673/673 621/621 671/671
f 672/672 673/673 671/671
f 674/674 673/673 672/672
f 624/624 674/674 672/672
f 675/675 621/621 673/673
f 674/674 675/675 673/673
f 676/676 675/675 674/674
f 624/624 676/676 674/674
f 677/677 621/621 675/675
f 676/676 677/677 675/675
f 678/678 677/677 676/676
f 624/624 678/678 676/676
f 622/622 621/621 677/677
f 678/678 622/622 677/677
f 623/623 622/622 678/678
f 624/624 623/623 678/678
f 683/683 679/679 680/680
f 681/681 683/683 680/680
f 684/684 683/683 681/681
f 682/682 684/684 681/681
f 685/685 679/679 683/683
f 684/684 685/685 683/683
f 686/686 685/685 684/684
f 682/682 686/686 684/684
f 687/687 679/679 685/685
f 686/686 687/687 685/685
f 688/688 687/687 686/686
f 682/682 688/688 686/686
f 689/689 679/679 687/687
f 688/688 689/689 687/687
f 690/690 689/689 688/688
f 682/682 690/690 688/688
f 691/691 679/679 689/689
f 690/690 691/691 689/689
f 692/692 691/691 690/690
f 682/682 692/692 690/690
f 693/693 679/679 691/691
f 692/692 693/693 691/691
f 694/694 693/693 692/692
f 682/682 694/694 692/692
f 695/695 679/679 693/693
f 694/694 695/695 693/693
f 696/696 695/695 694/694
f 682/682 696/696 694/694
f 697/697 679/679 695/695
f 696/696 697/697 695/695
f 698/698 697/697 696/696
f 682/682 698/698 696/696
f 699/699 679/679 697/697
f 698/698 699/699 697/697
f 700/700 699/699 698/698
f 682/682 700/700 698/698
f 701/701 679/679 699/699
f 700/700 701/701 699/699
f 702/702 701/701 700/700
f 682/682 702/702 700/700
f 703/703 679/679 701/701
f 702/702 703/703 701/701
f 704/704 703/703 702/702
f 682/682 704/704 702/702
f 680/680 679/679 703/703
f 704/704 680/680 703/703
f 681/681 680/680 704/704
f 682/682 681/681 704/704
f 705/705 708/708 706/706
f 705/705 706/706 709/709
f 707/707 708/708 705/705
f 705/705 709/709 707/707
f 708/708 712/712 706/706
f 709/709 706/706 710/710
f 706/706 712/712 710/710
f 707/707 712/712 708/708
f 707/707 709/709 711/711
f 711/711 712/712 707/707
f 709/709 710/710 711/711
f 711/711 710/710 712/712
f 729/729 750/750 713/713
f 753/753 724/724 750/750
f 718/718 753/753 729/729
f 729/729 753/753 750/750
f 725/725 729/729 713/713
f 730/730 718/718 729/729
f 714/714 730/730 725/725
f 725/725 730/730 729/729
f 734/734 725/725 713/713
f 735/735 714/714 725/725
f 720/720 735/735 734/734
f 734/734 735/735 725/725
f 746/746 734/734 713/713
f 749/749 720/720 734/734
f 723/723 749/749 746/746
f 746/746 749/749 734/734
f 750/750 746/746 713/713
f 754/754 723/723 746/746
f 724/724 754/754 750/750
f 750/750 754/754 746/746
f 741/741 730/730 714/714
f 744/744 718/718 730/730
f 722/722 744/744 741/741
f 741/741 744/744 730/730
f 731/731 753/753 718/718
f 752/752 724/724 753/753
f 717/717 752/752 731/731
f 731/731 752/752 753/753
f 751/751 754/754 724/724
f 747/747 723/723 754/754
f 715/715 747/747 751/751
f 751/751 747/747 754/754
f 748/748 749/749 723/723
f 736/736 720/720 749/749
f 719/719 736/736 748/748
f 748/748 736/736 749/749
f 740/740 735/735 720/720
f 737/737 714/714 735/735
f 721/721 737/737 740/740
f 740/740 737/737 735/735
f 728/728 742/742 716/716
f 743/743 722/722 742/742
f 717/717 743/743 728/728
f 728/728 743/743 742/742
f 726/726 728/728 716/716
f 727/727 717/717 728/728
f 715/715 727/727 726/726
f 726/726 727/727 728/728
f 733/733 726/726 716/716
f 732/732 715/715 726/726
f 719/719 732/732 733/733
f 733/733 732/732 726/726
f 738/738 733/733 716/716
f 739/739 719/719 733/733
f 721/721 739/739 738/738
f 738/738 739/739 733/733
f 742/742 738/738 716/716
f 745/745 721/721 738/738
f 722/722 745/745 742/742
f 742/742 745/745 738/738
f 731/731 743/743 717/717
f 744/744 722/722 743/743
f 718/718 744/744 731/731
f 731/731 744/744 743/743
f 751/751 727/727 715/715
f 752/752 717/717 727/727
f 724/724 752/752 751/751
f 751/751 752/752 727/727
f 748/748 732/732 719/719
f 747/747 715/715 732/732
f 723/723 747/747 748/748
f 748/748 747/747 732/732
f 740/740 739/739 721/721
f 736/736 719/719 739/739
f 720/720 736/736 740/740
f 740/740 736/736 739/739
f 741/741 745/745 722/722
f 737/737 721/721 745/745
f 714/714 737/737 741/741
f 741/741 737/737 745/745
f 759/759 755/755 756/756
f 757/757 759/759 756/756
f 760/760 759/759 757/757
f 758/758 760/760 757/757
f 761/761 755/755 759/759
f 760/760 761/761 759/759
f 762/762 761/761 760/760
f 758/758 762/762 760/760
f 763/763 755/755 761/761
f 762/762 763/763 761/761
f 764/764 763/763 762/762
f 758/758 764/764 762/762
f 765/765 755/755 763/763
f 764/764 765/765 763/763
f 766/766 765/765 764/764
f 758/758 766/766 764/764
f 767/767 755/755 765/765
f 766/766 767/767 765/765
f 768/768 767/767 766/766
f 758/758 768/768 766/766
f 769/769 755/755 767/767
f 768/768 769/769 767/767
f 770/770 769/769 768/768
f 758/758 770/770 768/768
f 771/771 755/755 769/769
f 770/770 771/771 769/769
f 772/772 771/771 770/770
f 758/758 772/772 770/770
f 773/773 755/755 771/771
f 772/772 773/773 771/771
f 774/774 773/773 772/772
f 758/758 774/774 772/772
f 775/775 755/755 773/773
f 774/774 775/775 773/773
f 776/776 775/775 774/774
f 758/758 776/776 774/774
f 777/777 755/755 775/775
f 776/776 777/777 775/775
f 778/778 777/777 776/776
f 758/758 778/778 776/776
f 779/779 755/755 777/777
f 778/778 779/779 777/777
f 780/780 779/779 778/778
f 758/758 780/780 778/778
f 756/756 755/755 779/779
f 780/780 756/756 779/779
f 757/757 756/756 780/780
f 758/758 757/757 780/780
f 781/781 784/784 782/782
f 781/781 782/782 785/785
f 783/783 784/784 781/781
f 781/781 785/785 783/783
f 784/784 788/788 782/782
f 785/785 782/782 786/786
f 782/782 788/788 786/786
f 783/783 788/788 784/784
f 783/783 785/785 787/787
f 787/787 788/788 783/783
f 785/785 786/786 787/787
f 787/787 786/786 788/788
f 805/805 826/826 789/789
f 829/829 800/800 826/826
f 794/794 829/829 805/805
f 805/805 829/829 826/826
f 801/801 805/805 789/789
f 806/806 794/794 805/805
f 790/790 806/806 801/801
f 801/801 806/806 805/805
f 810/810 801/801 789/789
f 811/811 790/790 801/801
f 796/796 811/811 810/810
f 810/810 811/811 801/801
f 822/822 810/810 789/789
f 825/825 796/796 810/810
f 799/799 825/825 822/822
f 822/822 825/825 810/810
f 826/826 822/822 789/789
f 830/830 799/799 822/822
f 800/800 830/830 826/826
f 826/826 830/830 822/822
f 817/817 806/806 790/790
f 820/820 794/794 806/806
f 798/798 820/820 817/817
f 817/817 820/820 806/806
f 807/807 829/829 794/794
f 828/828 800/800 829/829
f 793/793 828/828 807/807
f 807/807 828/828 829/829
f 827/827 830/830 800/800
f 823/823 799/799 830/830
f 791/791 823/823 827/827
f 827/827 823/823 830/830
f 824/824 825/825 799/799
f 812/812 796/796 825/825
f 795/795 812/812 824/824
f 824/824 812/812 825/825
f 816/816 811/811 796/796
f 813/813 790/790 811/811
f 797/797 813/813 816/816
f 816/816 813/813 811/811
f 804/804 818/818 792/792
f 819/819 798/798 818/818
f 793/793 819/819 804/804
f 804/804 819/819 818/818
f 802/802 804/804 792/792
f 803/803 793/793 804/804
f 791/791 803/803 802/802
f 802/802 803/803 804/804
f 809/809 802/802 792/792
f 808/808 791/791 802/802
f 795/795 808/808 809/809
f 809/809 808/808 802/802
f 814/814 809/809 792/792
f 815/815 795/795 809/809
f 797/797 815/815 814/814
f 814/814 815/815 809/809
f 818/818 814/814 792/792
f 821/821 797/797 814/814
f 798/798 821/821 818/818
f 818/818 821/821 814/814
f 807/807 819/819 793/793
f 820/820 798/798 819/819
f 794/794 820/820 807/807
f 807/807 820/820 819/819
f 827/827 803/803 791/791
f 828/828 793/793 803/803
f 800/800 828/828 827/827
f 827/827 828/828 803/803
f 824/824 808/808 795/795
f 823/823 791/791 808/808
f 799/799 823/823 824/824
f 824/824 823/823 808/808
f 816/816 815/815 797/797
f 812/812 795/795 815/815
f 796/796 812/812 816/816
f 816/816 812/812 815/815
f 817/817 821/821 798/798
f 813/813 797/797 821/821
f 790/790 813/813 817/817
f 817/817 813/813 821/821
f 835/835 831/831 832/832
f 833/833 835/835 832/832
f 836/836 835/835 833/833
f 834/834 836/836 833/833
f 837/837 831/831 835/835
f 836/836 837/837 835/835
f 838/838 837/837 836/836
f 834/834 838/838 836/836
f 839/839 831/831 837/837
f 838/838 839/839 837/837
f 840/840 839/839 838/838
f 834/834 840/840 838/838
f 841/841 831/831 839/839
f 840/840 841/841 839/839
f 842/842 841/841 840/840
f 834/834 842/842 840/840
f 843/843 831/831 841/841
f 842/842 843/843 841/841
f 844/844 843/843 842/842
f 834/834 844/844 842/842
f 845/845 831/831 843/843
f 844/844 845/845 843/843
f 846/846 845/845 844/844
f 834/834 846/846 844/844
f 847/847 831/831 845/845
f 846/846 847/847 845/845
f 848/848 847/847 846/846
f 834/834 848/848 846/846
f 849/849 831/831 847/847
f 848/848 849/849 847/847
f 850/850 849/849 848/848
f 834/834 850/850 848/848
f 851/851 831/831 849/849
f 850/850 851/851 849/849
f 852/852 851/851 850/850
f 834/834 852/852 850/850
f 853/853 831/831 851/851
f 852/852 853/853 851/851
f 854/854 853/853 852/852
f 834/834 854/854 852/852
f 855/855 831/831 853/853
f 854/854 855/855 853/853
f 856/856 855/855 854/854
f 834/834 856/856 854/854
f 832/832 831/831 855/855
f 856/856 832/832 855/855
f 833/833 832/832 856/856
f 834/834 833/833 856/856
f 857/857 860/860 858/858
f 857/857 858/858 861/861
f 859/859 860/860 857/857
f 857/857 861/861 859/859
f 860/860 864/864 858/858
f 861/861 858/858 862/862
f 858/858 864/864 862/862
f 859/859 864/864 860/860
f 859/859 861/861 863/863
f 863/863 864/864 859/859
f 861/861 862/862 863/863
f 863/863 862/862 864/864
f 881/881 902/902 865/865
f 905/905 876/876 902/902
f 870/870 905/905 881/881
f 881/881 905/905 902/902
f 877/877 881/881 865/865
f 882/882 870/870 881/881
f 866/866 882/882 877/877
f 877/877 882/882 881/881
f 886/886 877/877 865/865
f 887/887 866/866 877/877
f 872/872 887/887 886/886
f 886/886 887/887 877/877
f 898/898 886/886 865/865
f 901/901 872/872 886/886
f 875/875 901/901 898/898
f 898/898 901/901 886/886
f 902/902 898/898 865/865
f 906/906 875/875 898/898
f 876/876 906/906 902/902
f 902/902 906/906 898/898
f 893/893 882/882 866/866
f 896/896 870/870 882/882
f 874/874 896/896 893/893
f 893/893 896/896 882/882
f 883/883 905/905 870/870
f 904/904 876/876 905/905
f 869/869 904/904 883/883
f 883/883 904/904 905/905
f 903/903 906/906 876/876
f 899/899 875/875 906/906
f 867/867 899/899 903/903
f 903/903 899/899 906/906
f 900/900 901/901 875/875
f 888/888 872/872 901/901
f 871/871 888/888 900/900
f 900/900 888/888 901/901
f 892/892 887/887 872/872
f 889/889 866/866 887/887
f 873/873 889/889 892/892
f 892/892 889/889 887/887
f 880/880 894/894 868/868
f 895/895 874/874 894/894
f 869/869 895/895 880/880
f 880/880 895/895 894/894
f 878/878 880/880 868/868
f 879/879 869/869 880/880
f 867/867 879/879 878/878
f 878/878 879/879 880/880
f 885/885 878/878 868/868
f 884/884 867/867 878/878
f 871/871 884/884 885/885
f 885/885 884/884 878/878
f 890/890 885/885 868/868
f 891/891 871/871 885/885
f 873/873 891/891 890/890
f 890/890 891/891 885/885
f 894/894 890/890 868/868
f 897/897 873/873 890/890
f 874/874 897/897 894/894
f 894/894 897/897 890/890
f 883/883 895/895 869/869
f 896/896 874/874 895/895
f 870/870 896/896 883/883
f 883/883 896/896 895/895
f 903/903 879/879 867/867
f 904/904 869/869 879/879
f 876/876 904/904 903/903
f 903/903 904/904 879/879
f 900/900 884/884 871/871
f 899/899 867/867 884/884
f 875/875 899/899 900/900
f 900/900 899/899 884/884
f 892/892 891/891 873/873
f 888/888 871/871 891/891
f 872/872 888/888 892/892
f 892/892 888/888 891/891
f 893/893 897/897 874/874
f 889/889 873/873 897/897
f 866/866 889/889 893/893
f 893/893 889/889 897/897
f 911/911 907/907 908/908
f 909/909 911/911 908/908
f 912/912 911/911 909/909
f 910/910 912/912 909/909
f 913/913 907/907 911/911
f 912/912 913/913 911/911
f 914/914 913/913 912/912
f 910/910 914/914 912/912
f 915/915 907/907 913/913
f 914/914 915/915 913/913
f 916/916 915/915 914/914
f 910/910 916/916 914/914
f 917/917 907/907 915/915
f 916/916 917/917 915/915
f 918/918 917/917 916/916
f 910/910 918/918 916/916
f 919/919 907/907 917/917
f 918/918 919/919 917/917
f 920/920 919/919 918/918
f 910/910 920/920 918/918
f 921/921 907/907 919/919
f 920/920 921/921 919/919
f 922/922 921/921 920/920
f 910/910 922/922 920/920
f 923/923 907/907 921/921
f 922/922 923/923 921/921
f 924/924 923/923 922/922
f 910/910 924/924 922/922
f 925/925 907/907 923/923
f 924/924 925/925 923/923
f 926/926 925/925 924/924
f 910/910 926/926 924/924
f 927/927 907/907 925/925
f 926/926 927/927 925/925
f 928/928 927/927 926/926
f 910/910 928/928 926/926
f 929/929 907/907 927/927
f 928/928 929/929 927/927
f 930/930 929/929 928/928
f 910/910 930/930 928/928
f 931/931 907/907 929/929
f 930/930 931/931 929/929
f 932/932 931/931 930/930
f 910/910 932/932 930/930
f 933/933 907/907 931/931
f 932/932 933/933 931/931
f 934/934 933/933 932/932
f 910/910 934/934 932/932
f 935/935 907/907 933/933
f 934/934 935/935 933/933
f 936/936 935/935 934/934
f 910/910 936/936 934/934
f 908/908 907/907 935/935
f 936/936 908/908 935/935
f 909/909 908/908 936/936
f 910/910 909/909 936/936
