# Spoonie, decimated from shaped_spoon_roblox.obj by scripts/prep-spoonie.js
v -0.0726 -0.0585 3.2373
v -0.0771 -0.1997 3.1414
v -0.0651 -0.2277 3.1399
v 0.0205 -0.0578 3.2373
v 0.0285 -0.2277 3.1399
v 0.0165 -0.1997 3.1414
v -0.0901 -0.0474 3.2373
v -0.0905 -0.1647 3.1429
v 0.0031 -0.1647 3.1429
v 0.0034 -0.0474 3.2373
v -0.1011 -0.0397 3.2373
v -0.1016 -0.1284 3.1464
v -0.008 -0.1284 3.1464
v -0.0075 -0.0397 3.2373
v -0.1135 -0.0282 3.2373
v -0.1066 -0.1379 3.105
v -0.013 -0.1379 3.105
v -0.0199 -0.0282 3.2373
v -0.1139 -0.0719 3.1618
v -0.0204 -0.0719 3.1618
v -0.1195 -0.0449 3.158
v -0.0259 -0.0449 3.158
v -0.1225 -0.0111 3.2374
v -0.0289 -0.0111 3.2374
v -0.1167 0.0026 3.2373
v -0.1193 0.0251 3.16
v -0.0257 0.0251 3.16
v -0.0231 0.0026 3.2373
v -0.1016 0.0182 3.2373
v -0.1049 0.1351 3.0883
v -0.0113 0.1351 3.0883
v -0.008 0.0182 3.2373
v -0.1024 0.0986 3.1557
v -0.0088 0.0986 3.1557
v -0.0909 0.1398 3.1466
v 0.0026 0.1398 3.1466
v -0.0789 0.0346 3.2374
v 0.0139 0.0335 3.2373
v -0.0774 0.1773 3.1431
v 0.0162 0.1773 3.1431
v -0.0651 0.208 3.1399
v 0.0285 0.208 3.1399
v -0.0644 -0.3422 3.038
v 0.0292 -0.3417 3.0391
v -0.0895 -0.2446 3.0507
v 0.0041 -0.2446 3.0507
v -0.1144 -0.1057 3.0576
v -0.0208 -0.1057 3.0576
v -0.1104 0.1255 3.0391
v -0.0168 0.1255 3.0391
v -0.0892 0.2302 3.045
v 0.0044 0.2302 3.045
v -0.0648 0.3271 3.034
v 0.029 0.3265 3.0356
v -0.0821 -0.3279 2.9538
v -0.0633 -0.4087 2.945
v 0.0303 -0.4087 2.945
v 0.0115 -0.3279 2.9538
v -0.1021 -0.2254 2.9352
v -0.0085 -0.2254 2.9352
v -0.1197 -0.0135 2.8271
v -0.0261 -0.0135 2.8271
v -0.1167 0.0765 2.8471
v -0.0231 0.0765 2.8471
v -0.0882 0.3108 2.8812
v 0.0054 0.3108 2.8812
v -0.0637 0.3961 2.9374
v 0.03 0.396 2.9385
v -0.0813 -0.3701 2.855
v -0.0626 -0.4581 2.8475
v 0.0309 -0.4581 2.8475
v 0.0123 -0.3701 2.855
v -0.0628 0.4431 2.8467
v 0.0308 0.4431 2.8468
v -0.0633 -0.4983 2.6895
v 0.0303 -0.4955 2.7051
v -0.0878 -0.3668 2.704
v 0.0057 -0.3668 2.704
v -0.1023 -0.2796 2.5805
v -0.0087 -0.2796 2.5805
v -0.0901 0.3609 2.5688
v 0.0035 0.3609 2.5688
v -0.0637 0.4855 2.688
v 0.03 0.4826 2.7034
v -0.116 -0.1386 2.5488
v -0.0193 -0.186 2.438
v -0.1202 0.0705 2.349
v -0.0313 0.0032 1.8552
v -0.0248 0.1035 2.3495
v -0.1084 0.2177 2.5458
v -0.0148 0.2177 2.5458
v -0.0824 -0.4177 2.533
v -0.0642 -0.512 2.5241
v 0.0293 -0.5128 2.5167
v 0.0111 -0.4177 2.533
v -0.125 -0.002 1.8253
v -0.0643 0.5014 2.5237
v 0.0293 0.5013 2.5357
v -0.0276 -0.0698 2.1758
v -0.066 -0.4853 2.2312
v 0.0273 -0.4812 2.205
v -0.0821 -0.4042 2.2226
v 0.0114 -0.4042 2.2226
v -0.1021 -0.2793 2.1927
v -0.0085 -0.2793 2.1927
v -0.1134 -0.1748 2.0908
v -0.1037 0.2589 2.187
v -0.0102 0.2587 2.1912
v -0.0845 0.3842 2.1957
v 0.0001 0.328 2.1804
v 0.0273 0.4839 2.2796
v -0.0658 0.4787 2.2298
v -0.1171 0.1296 2.0667
v -0.0195 0.1742 2.1008
v -0.0807 -0.3685 1.9415
v -0.0672 -0.4228 1.921
v 0.0048 -0.3213 1.8835
v -0.1245 -0.0331 1.076
v -0.0307 -0.0367 1.1259
v -0.0898 0.3151 1.8863
v 0.0146 0.3627 1.8613
v -0.0674 0.4206 1.922
v 0.0265 -0.4199 1.9052
v -0.103 -0.2392 1.8505
v -0.0169 -0.185 1.7702
v -0.0292 0.0631 1.2811
v -0.1137 0.145 1.4214
v -0.0139 0.2003 1.6972
v -0.0055 0.2482 1.6784
v 0.0265 0.4215 1.927
v 0.0275 0.4671 2.1601
v -0.0887 -0.292 1.6043
v -0.1262 0.0082 1.0689
v -0.1054 0.1871 1.2908
v -0.0686 0.3729 1.607
v -0.0683 -0.3615 1.5399
v -0.0181 -0.1383 1.1674
v 0.0254 0.3679 1.5699
v -0.1226 0.0548 0.84
v 0.0135 0.3012 1.3651
v 0.0254 -0.3646 1.5608
v -0.0052 -0.2043 1.1838
v -0.1096 -0.1437 1.0691
v -0.0943 0.233 1.2248
v -0.0041 0.2152 1.1851
v -0.0912 -0.2324 1.1398
v -0.0687 -0.3028 1.1185
v 0.0243 -0.307 1.1514
v -0.1188 -0.0785 0.8764
v -0.0252 -0.0785 0.8764
v -0.0693 0.3104 1.1276
v 0.0249 0.3076 1.1049
v -0.0317 0.0078 0.7054
v -0.0228 0.1053 0.9197
v -0.0151 0.1486 0.9264
v 0.0068 0.2397 0.9827
v -0.0076 -0.1672 0.8361
v -0.0282 0.0304 0.0964
v 0.0257 0.2604 0.5871
v -0.0966 -0.175 0.6863
v -0.0684 -0.2641 0.75
v -0.1087 0.1062 0.0881
v -0.0922 0.1946 0.6117
v -0.0788 0.2336 0.6088
v -0.0677 0.2614 0.6056
v 0.025 -0.2761 0.8747
v 0.0046 -0.1958 0.6294
v 0.0009 0.1911 0.5595
v -0.0783 -0.2162 0.5067
v 0.0263 -0.2424 0.4909
v 0.0103 -0.1948 0.3932
v -0.117 0.0639 0.0637
v -0.0655 -0.217 0.1327
v -0.0296 0 0.1567
v -0.0212 0.0816 0.1161
v -0.0087 0.1336 0.1191
v 0.007 0.1811 0.0901
v -0.0084 -0.1214 0.109
v -0.1069 -0.0991 0.0299
v -0.0211 -0.0691 0.1082
v -0.1174 -0.0437 -0.0735
v -0.1228 0.0107 0.0551
v -0.0948 0.1521 0.003
v 0.0266 -0.2107 0.0259
v 0.0077 -0.1696 0.0928
v 0.0272 0.2255 0.0463
v -0.0845 -0.167 0.0066
v -0.0785 0.1945 0.0095
v -0.0659 0.2136 -0.1541
v -0.0324 0.001 -0.1107
v -0.0116 -0.1183 -0.197
v -0.0275 -0.0562 -0.1793
v -0.124 0.0028 -0.2098
v -0.1205 0.0472 -0.1958
v -0.0311 0.0474 -0.178
v -0.1098 0.1018 -0.2433
v -0.0181 0.1108 -0.1922
v -0.0025 0.1568 -0.1992
v 0.0191 0.2077 -0.2748
v -0.0687 -0.1922 -0.3013
v 0.0194 -0.1933 -0.2825
v 0.0061 -0.1658 -0.2548
v -0.0983 -0.1254 -0.2677
v -0.1117 -0.0814 -0.2695
v -0.0924 0.1551 -0.2707
v -0.021 -0.1283 -0.7526
v -0.0494 -0.0261 -0.691
v -0.0543 0.0079 -0.7485
v -0.0477 0.0523 -0.6984
v 0.0001 -0.1708 -0.8374
v -0.1093 -0.1049 -0.8486
v -0.0777 -0.1708 -0.8306
v -0.0423 -0.0767 -0.8475
v -0.1303 -0.025 -0.8056
v -0.1331 0.0118 -0.7926
v -0.1252 0.0648 -0.7756
v -0.0402 0.099 -0.8694
v -0.1139 0.1061 -0.8427
v -0.0996 0.1416 -0.8394
v -0.0203 0.1468 -0.8438
v -0.0003 0.1847 -0.8358
v -0.0771 0.1847 -0.8351
v -0.1218 -0.0718 -1.0496
v -0.0522 -0.0579 -1.052
v -0.0207 -0.1347 -0.8621
v -0.1244 -0.0565 -1.0495
v -0.1334 0.0119 -0.9048
v -0.0496 0.087 -1.0543
v -0.1188 0.101 -1.0497
v -0.104 -0.1492 -1.0421
v -0.0968 -0.1741 -1.0484
v -0.0123 -0.1705 -0.9461
v -0.1115 -0.1221 -1.0414
v -0.0394 -0.122 -1.0407
v -0.1171 -0.0983 -1.0505
v -0.0465 -0.0936 -1.058
v -0.0579 0.0061 -0.9305
v -0.1109 0.1254 -0.9664
v -0.0324 0.1382 -0.9631
v -0.0871 0.184 -0.949
v -0.012 0.1842 -0.9482
v -0.026 -0.1756 -1.0508
v -0.0323 -0.1551 -1.0522
v -0.1289 0.0015 -1.0491
v -0.0576 0.0094 -1.0467
v -0.1248 0.0617 -1.0521
v -0.0424 0.1372 -1.0801
v -0.1111 0.1409 -1.0527
v -0.0359 0.1544 -1.0519
v -0.104 0.1682 -1.0516
v -0.0315 0.174 -1.0562
v -0.0991 0.1884 -1.0526
v -0.0272 0.1885 -1.0521
v -0.1078 -0.2098 -1.1088
v -0.1135 -0.2867 -1.1485
v -0.0444 -0.2849 -1.1472
v -0.0379 -0.2099 -1.1089
v -0.1086 -0.1726 -1.109
v -0.0391 -0.1726 -1.1091
v -0.1094 -0.1356 -1.1094
v -0.0401 -0.1356 -1.1094
v -0.1102 -0.0867 -1.1095
v -0.0412 -0.0866 -1.1095
v -0.11 -0.0016 -1.1145
v -0.0434 -0.007 -1.1075
v -0.1072 0.066 -1.1199
v -0.0383 0.0659 -1.1215
v -0.1054 0.1098 -1.1249
v -0.0408 0.1175 -1.1097
v -0.1046 0.1535 -1.1299
v -0.1092 0.1658 -1.1081
v -0.1082 0.2031 -1.1081
v -0.0385 0.2032 -1.1082
v -0.1114 0.2791 -1.1519
v -0.1097 -0.2688 -1.1611
v -0.0402 -0.2562 -1.1594
v -0.1014 -0.2256 -1.1694
v -0.0306 -0.1902 -1.1676
v -0.0957 -0.1663 -1.1632
v -0.0265 -0.1067 -1.1575
v -0.0917 -0.0854 -1.1582
v -0.0141 0.0848 -1.1831
v -0.0215 0.1601 -1.1804
v -0.0277 0.2033 -1.1765
v -0.1011 0.2518 -1.1762
v -0.0344 0.2492 -1.1753
v -0.1076 0.3398 -1.2145
v -0.0426 0.2993 -1.1769
v -0.1198 0.3525 -1.1871
v -0.0512 0.3456 -1.1826
v -0.1064 -0.3203 -1.211
v -0.1253 -0.4254 -1.248
v -0.0588 -0.4372 -1.2565
v -0.0374 -0.3059 -1.2091
v -0.0599 -0.0369 -1.2201
v 0.0175 -0.0587 -1.2576
v -0.0646 0.0856 -1.2138
v -0.0734 0.1709 -1.2135
v -0.0704 0.2644 -1.2566
v -0.0584 -0.2207 -1.2703
v 0.0036 -0.2205 -1.2699
v -0.0404 -0.0803 -1.2706
v -0.0356 0.0265 -1.2767
v 0.0253 0.0265 -1.2772
v -0.0441 0.1302 -1.2694
v 0.017 0.1302 -1.2691
v -0.0064 0.269 -1.2619
v -0.0207 0.4412 -1.3417
v -0.1261 0.4766 -1.2784
v -0.0593 0.4745 -1.2769
v -0.0814 -0.4528 -1.3661
v -0.1271 -0.573 -1.369
v -0.0058 -0.4076 -1.3644
v -0.0376 -0.2745 -1.3559
v 0.0234 -0.2744 -1.3565
v -0.019 -0.1054 -1.3404
v 0.0408 -0.1053 -1.3405
v -0.02 0.1559 -1.3486
v 0.0399 0.1559 -1.3488
v -0.0383 0.2864 -1.3565
v 0.0227 0.2864 -1.3568
v -0.0575 0.3749 -1.3607
v 0.0045 0.3749 -1.3609
v -0.0831 0.4643 -1.3644
v -0.0588 -0.5668 -1.364
v 0.003 0.0058 -1.4015
v 0.0616 0.0058 -1.4017
v -0.1268 0.5857 -1.3708
v -0.0599 0.5856 -1.3711
v -0.0978 -0.5765 -1.4429
v -0.128 -0.6496 -1.4469
v -0.061 -0.6445 -1.4408
v -0.0334 -0.5768 -1.4428
v -0.0607 -0.4753 -1.445
v 0.0013 -0.4755 -1.4449
v -0.0312 -0.3744 -1.4474
v 0.0291 -0.3745 -1.4474
v -0.0089 -0.2735 -1.4502
v 0.0548 -0.2485 -1.4508
v 0.0138 -0.1569 -1.4735
v 0.0821 -0.1294 -1.5073
v 0.0115 0.1327 -1.4544
v 0.0792 0.0828 -1.4813
v 0.0646 0.2113 -1.4638
v 0.005 0.228 -1.4688
v -0.0138 0.3079 -1.4486
v 0.0404 0.3356 -1.4495
v -0.0375 0.4083 -1.4463
v 0.0159 0.4366 -1.4469
v -0.0684 0.5087 -1.4445
v -0.0152 0.5373 -1.4448
v -0.1276 0.6538 -1.4394
v -0.0606 0.6519 -1.4376
v 0.0412 -0.0235 -1.5613
v 0.0982 -0.0234 -1.5619
v 0.0403 0.0606 -1.5612
v -0.0939 0.6071 -1.4822
v -0.0892 -0.6438 -1.5646
v -0.129 -0.732 -1.5683
v -0.0622 -0.7275 -1.5605
v -0.0277 -0.671 -1.5996
v -0.004 -0.5873 -1.5644
v -0.0461 -0.5311 -1.564
v 0.0321 -0.4746 -1.5638
v -0.0123 -0.4183 -1.5634
v 0.06 -0.3618 -1.5633
v 0.0175 -0.3123 -1.5896
v 0.0799 -0.2491 -1.5627
v 0.0474 -0.1121 -1.614
v 0.0351 0.1459 -1.5618
v 0.0923 0.1458 -1.562
v 0.0126 0.3153 -1.5626
v 0.0707 0.3152 -1.5628
v -0.0126 0.4281 -1.5633
v 0.0468 0.428 -1.5634
v -0.0436 0.5524 -1.5916
v 0.0175 0.5522 -1.5917
v -0.0897 0.6537 -1.5643
v -0.0257 0.6534 -1.5643
v -0.129 0.7397 -1.5664
v -0.0622 0.7355 -1.5591
v 0.0478 -0.2069 -1.6656
v 0.1173 0.0428 -1.6758
v 0.0435 0.2445 -1.6644
v 0.1004 0.2446 -1.6647
v -0.0865 -0.6976 -1.6793
v -0.1301 -0.7871 -1.6813
v -0.0632 -0.7827 -1.6704
v -0.036 -0.5759 -1.6843
v 0.0245 -0.5759 -1.6843
v 0.0033 -0.4541 -1.6884
v 0.0618 -0.454 -1.6885
v 0.0895 -0.3322 -1.6916
v 0.1093 -0.2214 -1.71
v 0.1199 -0.1211 -1.7203
v 0.0614 0.1582 -1.7191
v 0.1176 0.1582 -1.7196
v 0.0283 0.3366 -1.6651
v 0.0857 0.3365 -1.6652
v -0.0001 0.457 -1.6628
v 0.0586 0.4569 -1.6629
v -0.0912 0.7117 -1.67
v -0.0067 0.6653 -1.6777
v -0.1301 0.7934 -1.6784
v -0.0633 0.7896 -1.6689
v -0.016 -0.724 -1.7898
v 0.0423 -0.3454 -1.7775
v 0.0684 -0.0913 -1.7466
v 0.0739 0.0346 -1.7719
v -0.0093 0.5356 -1.75
v 0.0498 0.5354 -1.7501
v -0.0575 0.6536 -1.7195
v -0.0311 0.7628 -1.789
v 0.0553 0.2913 -1.8021
v 0.1118 0.2911 -1.8023
v 0.0278 0.4156 -1.7766
v 0.0852 0.4154 -1.7766
v -0.0809 -0.7397 -1.8331
v -0.1315 -0.8391 -1.8375
v -0.0647 -0.8371 -1.8301
v -0.0264 -0.6107 -1.8319
v 0.0336 -0.6104 -1.8319
v 0.0157 -0.4818 -1.8306
v 0.0737 -0.4815 -1.8307
v 0.1031 -0.3527 -1.8296
v 0.0673 -0.2319 -1.8466
v 0.1284 -0.2298 -1.9032
v 0.079 -0.0962 -1.8525
v 0.1349 -0.0961 -1.8528
v 0.1346 0.0352 -1.8262
v -0.0266 0.6166 -1.832
v 0.0564 0.5555 -1.8567
v 0.0093 0.6807 -1.8325
v -0.081 0.7454 -1.833
v -0.1314 0.8439 -1.8356
v -0.0647 0.842 -1.8284
v 0.0804 0.1691 -1.9298
v 0.1362 0.1689 -1.9302
v 0.0369 0.4376 -1.9171
v 0.0629 0.3053 -1.9118
v 0.1191 0.3052 -1.912
v 0.0952 0.4244 -1.8958
v 0.011 0.5312 -1.9204
v -0.0801 -0.7602 -1.9373
v -0.1324 -0.8586 -1.9333
v -0.0655 -0.8574 -1.925
v -0.017 -0.7601 -1.9373
v -0.0221 -0.628 -1.9457
v 0.0376 -0.6278 -1.9458
v 0.0225 -0.4959 -1.952
v 0.0801 -0.4957 -1.9522
v 0.0546 -0.3639 -1.9562
v 0.111 -0.3636 -1.9563
v 0.075 -0.2326 -1.9584
v 0.0886 0.0357 -1.9793
v 0.0875 -0.1019 -2.0066
v 0.1432 -0.1018 -2.007
v 0.1443 0.0356 -1.9798
v -0.0225 0.6326 -1.9441
v 0.0372 0.6324 -1.9441
v -0.0807 0.765 -1.9349
v -0.0175 0.7649 -1.9348
v -0.1325 0.8622 -1.9308
v -0.0656 0.8613 -1.9239
v 0.0809 0.5016 -1.9871
v 0.0783 -0.2404 -2.0937
v 0.1341 -0.24 -2.0938
v 0.0698 0.3064 -2.0967
v 0.1258 0.3059 -2.0967
v 0.051 0.4057 -2.0986
v 0.1074 0.4056 -2.0986
v -0.0793 -0.7769 -2.1333
v -0.1347 -0.8817 -2.1758
v -0.0675 -0.8793 -2.1321
v -0.0163 -0.7766 -2.1333
v -0.0201 -0.6419 -2.1292
v 0.0394 -0.6415 -2.1293
v 0.0253 -0.507 -2.1258
v 0.0827 -0.5067 -2.1259
v 0.0579 -0.3725 -2.123
v 0.1142 -0.3721 -2.1231
v 0.0881 0.1094 -2.1766
v 0.1437 0.1091 -2.1765
v 0.0817 0.2053 -2.1499
v 0.1374 0.2052 -2.1498
v 0.0254 0.5078 -2.1258
v 0.0828 0.5074 -2.1257
v -0.0201 0.6425 -2.1286
v 0.0395 0.6421 -2.1286
v -0.0792 0.7774 -2.1322
v -0.0162 0.777 -2.1321
v -0.1346 0.8817 -2.1732
v -0.0674 0.8799 -2.129
v 0.083 -0.1746 -2.2282
v 0.1387 -0.1743 -2.2281
v 0.0891 -0.0402 -2.2109
v 0.1448 -0.04 -2.2106
v -0.0974 -0.8048 -2.282
v -0.0687 -0.8763 -2.2763
v -0.0181 -0.7725 -2.2857
v -0.0546 -0.7164 -2.277
v 0.0111 -0.7086 -2.2485
v 0.0017 -0.5744 -2.2496
v 0.0601 -0.5741 -2.2497
v 0.0403 -0.44 -2.2507
v 0.0971 -0.4397 -2.2507
v 0.0666 -0.3058 -2.2517
v 0.1227 -0.3055 -2.2517
v 0.0744 0.2364 -2.2793
v 0.1277 0.2334 -2.3339
v 0.0531 0.3684 -2.3016
v 0.1095 0.3679 -2.3013
v 0.0214 0.5017 -2.296
v 0.079 0.5012 -2.2958
v -0.0108 0.6016 -2.2916
v 0.037 0.6347 -2.2896
v -0.0362 0.6685 -2.2884
v -0.0801 0.7688 -2.2831
v -0.0169 0.7682 -2.2831
v -0.0687 0.8748 -2.2745
v -0.1358 -0.8717 -2.3029
v 0.0782 0.0973 -2.3926
v 0.1339 0.0972 -2.392
v -0.1358 0.8698 -2.301
v 0.0334 -0.6305 -2.3548
v -0.0264 -0.6308 -2.3548
v 0.0175 -0.4987 -2.3569
v 0.0751 -0.4984 -2.3569
v 0.0447 -0.3625 -2.42
v 0.1013 -0.3622 -2.4199
v 0.0653 -0.2321 -2.4178
v 0.1213 -0.2319 -2.4174
v 0.0779 -0.0346 -2.4181
v 0.1337 -0.0346 -2.4176
v 0.0673 0.23 -2.3887
v -0.1376 -0.8362 -2.4893
v 0.0686 -0.1306 -2.4701
v 0.1245 -0.1307 -2.4696
v -0.1376 0.831 -2.4876
v -0.0884 -0.744 -2.4731
v -0.0707 -0.8395 -2.4724
v -0.0279 -0.7429 -2.4978
v 0.002 -0.6796 -2.4723
v -0.0338 -0.6154 -2.4714
v 0.0478 -0.551 -2.4706
v 0.0086 -0.4869 -2.4698
v 0.0667 -0.4693 -2.5045
v 0.0509 0.288 -2.4683
v 0.1073 0.2878 -2.4681
v 0.0256 0.4164 -2.4696
v 0.0828 0.4162 -2.4695
v -0.0108 0.5449 -2.4712
v 0.048 0.5447 -2.4711
v -0.0592 0.6734 -2.4728
v 0.0221 0.6106 -2.5004
v -0.0247 0.7375 -2.4736
v -0.092 0.7376 -2.4999
v -0.0706 0.8346 -2.4707
v 0.053 0.1504 -2.5735
v 0.1094 0.1503 -2.5729
v -0.1061 -0.7351 -2.5886
v -0.0716 -0.801 -2.5845
v -0.0657 -0.6437 -2.5907
v 0.018 -0.5823 -2.5921
v -0.0221 -0.5218 -2.5937
v 0.011 -0.4 -2.5964
v 0.0811 -0.3389 -2.5974
v 0.0426 -0.2523 -2.5732
v 0.095 -0.2135 -2.6273
v 0.0584 -0.0347 -2.5742
v 0.1145 -0.0347 -2.574
v 0.0484 0.0346 -2.6362
v 0.1049 0.0345 -2.6356
v 0.0344 0.2697 -2.598
v 0.0913 0.2695 -2.5976
v 0.0113 0.3914 -2.5956
v 0.0691 0.3912 -2.5953
v -0.0217 0.5132 -2.5927
v 0.0461 0.4824 -2.5938
v -0.0483 0.5659 -2.636
v -0.0273 0.6955 -2.5876
v -0.0716 0.7945 -2.5821
v -0.1389 -0.7812 -2.6282
v -0.0345 -0.6795 -2.6664
v 0.0457 -0.4457 -2.6587
v 0.0373 -0.1053 -2.6815
v 0.0941 -0.1051 -2.6809
v 0.0109 0.5526 -2.6609
v -0.0938 0.684 -2.6219
v -0.1388 0.7736 -2.6264
v 0.0054 -0.3165 -2.7092
v 0.018 -0.2001 -2.7341
v -0.0996 -0.6584 -2.7057
v -0.1399 -0.7262 -2.7365
v -0.0731 -0.7176 -2.7521
v -0.0606 -0.5237 -2.7559
v 0.0009 -0.5235 -2.7558
v -0.0281 -0.4146 -2.757
v 0.059 -0.312 -2.732
v 0.0233 0.1337 -2.7326
v 0.0783 0.1616 -2.733
v 0.0053 0.2389 -2.7583
v 0.0547 0.2933 -2.7575
v -0.0147 0.3478 -2.7573
v 0.0319 0.4022 -2.7566
v -0.0421 0.4454 -2.7652
v -0.1049 0.6339 -2.7474
v -0.0369 0.6197 -2.7546
v -0.1398 0.7165 -2.7349
v -0.0732 0.7081 -2.7499
v -0.1041 -0.6165 -2.7829
v -0.0398 -0.6163 -2.7829
v 0.0267 -0.4041 -2.7842
v -0.0155 -0.2887 -2.8129
v 0.0518 -0.1816 -2.8397
v 0.0163 0.0204 -2.7859
v 0.0081 -0.0828 -2.8127
v 0.0659 -0.0828 -2.8124
v 0.0738 0.0204 -2.7856
v -0.0023 0.4976 -2.7829
v -0.0927 0.5533 -2.8122
v -0.1409 -0.6504 -2.8462
v 0.031 -0.2729 -2.8684
v -0.0162 0.1084 -2.8926
v 0.0542 0.143 -2.839
v -0.1408 0.6387 -2.8447
v -0.14 -0.5914 -2.9146
v -0.0746 -0.6094 -2.8959
v -0.0489 -0.5412 -2.8978
v -0.0881 -0.4696 -2.8981
v -0.0184 -0.4489 -2.8967
v -0.0606 -0.3773 -2.897
v 0.0061 -0.3563 -2.8954
v -0.023 -0.2018 -2.8861
v -0.0206 -0.0242 -2.9214
v 0.0347 -0.0885 -2.926
v 0.0384 0.0349 -2.9192
v -0.0353 0.1832 -2.9268
v -0.0392 0.2678 -2.8969
v 0.0191 0.2381 -2.9194
v -0.0601 0.3599 -2.8981
v -0.0041 0.3879 -2.895
v -0.0874 0.4523 -2.8991
v -0.0489 0.5265 -2.8985
v -0.0746 0.597 -2.8941
v -0.0664 -0.2935 -2.9698
v -0.0346 -0.1345 -2.9461
v 0.0236 0.1414 -2.9444
v -0.141 0.5698 -2.9222
v -0.1206 -0.4474 -2.9967
v -0.1423 -0.4989 -3.002
v -0.0753 -0.5089 -2.9936
v -0.0497 -0.4266 -2.9988
v -0.0966 -0.371 -2.9971
v -0.0285 -0.3501 -2.9989
v -0.0049 -0.2349 -3.0009
v -0.0789 -0.2167 -3.0411
v 0.0037 -0.0227 -3.0298
v -0.0556 0.0085 -3.0243
v -0.0762 0.2777 -2.9959
v -0.0265 0.3322 -2.9965
v -0.1069 0.3912 -2.9958
v -0.0745 0.5001 -2.9872
v -0.1419 0.4801 -3.0041
v -0.0686 -0.092 -3.0526
v -0.0269 -0.1403 -3.0957
v -0.0708 0.1055 -3.0519
v -0.0089 0.1055 -3.0516
v -0.0322 0.1704 -3.0934
v -0.0759 0.408 -3.0597
v -0.1423 -0.3833 -3.0874
v -0.0762 -0.3983 -3.0778
v -0.0546 -0.3238 -3.0792
v -0.1188 -0.2504 -3.1168
v -0.0299 -0.2041 -3.0802
v -0.0363 -0.0372 -3.1377
v -0.1038 0.1788 -3.1087
v -0.0564 0.2523 -3.1127
v -0.1241 0.2546 -3.1165
v -0.1433 0.3272 -3.1128
v -0.0766 -0.3085 -3.1329
v -0.1433 -0.3078 -3.1331
v -0.0569 -0.2313 -3.1318
v -0.1061 -0.1385 -3.1325
v -0.1083 -0.0357 -3.1569
v -0.1125 0.0485 -3.1631
v -0.0485 0.0483 -3.1641
v -0.0767 0.2929 -3.131
v -0.1427 -0.1806 -3.1906
v -0.0762 -0.1868 -3.1888
v -0.1331 -0.1245 -3.1929
v -0.0671 -0.1247 -3.1927
v -0.1447 -0.0416 -3.2373
v -0.078 -0.0428 -3.2373
v -0.1322 0.0866 -3.1964
v -0.0663 0.0866 -3.1963
v -0.1362 0.139 -3.1867
v -0.07 0.1392 -3.1866
v -0.1431 0.1721 -3.1866
v -0.0765 0.1762 -3.1852
v -0.1448 0.0207 -3.2374
v -0.078 0.0221 -3.2374
vn -0.1437 -0.4855 0.8624
vn -0.8675 -0.3228 0.3784
vn -0.1028 -0.5989 0.7942
vn 0.4843 -0.3644 0.7954
vn 0.1108 -0.5385 0.8353
vn 0.8677 0.3226 -0.3782
vn -0.5221 -0.4069 0.7496
vn -0.8119 -0.3795 0.4437
vn 0.8126 0.3791 -0.4427
vn 0.7625 0.5948 -0.2547
vn -0.6213 -0.3773 0.6868
vn -0.9084 -0.3024 0.2887
vn 0.9084 0.3024 -0.2887
vn 0.8537 0.52 -0.0288
vn -0.7241 -0.3198 0.611
vn -0.9697 -0.2157 0.1149
vn 0.9697 0.2157 -0.1149
vn 0.898 0.3961 0.1913
vn -0.9794 -0.1836 0.084
vn 0.9794 0.1836 -0.084
vn -0.9948 -0.1011 0.0108
vn 0.9948 0.1011 -0.0108
vn -0.9974 0.0137 0.0713
vn 0.9973 -0.0137 0.0716
vn -0.8794 0.2736 0.3896
vn -0.9924 0.1209 0.0229
vn 0.9924 -0.1209 -0.0229
vn 0.9537 -0.2953 0.0571
vn -0.6175 0.374 0.692
vn -0.9654 0.2265 0.1291
vn 0.9654 -0.2265 -0.1291
vn 0.8503 -0.5156 -0.1057
vn -0.9476 0.2432 0.2073
vn 0.9476 -0.2432 -0.2073
vn -0.8591 0.3492 0.3741
vn 0.8602 -0.3483 -0.3724
vn -0.1471 0.4858 0.8616
vn 0.4478 0.2968 0.8435
vn -0.8174 0.3549 0.4538
vn 0.8171 -0.3549 -0.4542
vn -0.1042 0.5971 0.7954
vn 0.1122 0.5303 0.8404
vn -0.5014 -0.6606 0.5588
vn 0.6676 -0.5086 0.5438
vn -0.9595 -0.2368 0.1525
vn 0.9595 0.2369 -0.1526
vn -0.9975 -0.0703 0.0095
vn 0.9969 0.078 -0.0102
vn -0.992 0.1237 0.0251
vn 0.992 -0.1237 -0.0251
vn -0.9613 0.2346 0.1446
vn 0.9611 -0.2349 -0.1451
vn -0.4558 0.6735 0.5819
vn 0.6132 0.5472 0.5696
vn -0.9712 -0.214 0.1052
vn -0.5227 -0.7427 0.4185
vn 0.665 -0.6187 0.4183
vn 0.9711 0.2142 -0.1056
vn -0.9879 -0.1501 0.0392
vn 0.9879 0.1501 -0.0392
vn -1 -0.0073 0.0023
vn 0.9999 0.0123 -0.0026
vn -0.9979 0.0641 0.0054
vn 0.9985 -0.0552 -0.0056
vn -0.9825 0.1783 0.054
vn 0.9825 -0.1782 -0.0543
vn -0.6842 0.6339 0.3607
vn 0.8627 0.4121 0.2932
vn -0.9799 -0.1912 0.0575
vn -0.4464 -0.8516 0.2749
vn 0.5725 -0.7583 0.3117
vn 0.9799 0.1908 -0.0579
vn -0.5527 0.7908 0.263
vn 0.7259 0.6341 0.2664
vn -0.7495 -0.6549 0.0966
vn 0.9109 -0.4046 0.0815
vn -0.9868 -0.1596 0.0263
vn 0.9868 0.1598 -0.0263
vn -0.9933 -0.1154 0.0076
vn 0.9925 0.1218 -0.0094
vn -0.9885 0.1504 0.0132
vn 0.9882 -0.1529 -0.0121
vn -0.8093 0.5793 0.0972
vn 0.9482 0.3103 0.0686
vn -0.9977 -0.0684 0.0034
vn 0.9961 0.0879 -0.0014
vn -0.9986 0.0526 0.0043
vn 0.9999 -0.0141 -0.0031
vn 0.9979 -0.0649 -0.0034
vn -0.9952 0.0978 0.0075
vn 0.9948 -0.1014 -0.0083
vn -0.9859 -0.1676 0.0011
vn -0.6495 -0.7601 -0.0177
vn 0.5125 -0.8582 -0.0275
vn 0.9858 0.168 -0.0013
vn -0.9997 -0.0229 0.0037
vn -0.7626 0.6466 -0.0167
vn 0.805 0.593 0.0162
vn 0.9986 0.0523 -0.0035
vn -0.6647 -0.7412 -0.0944
vn 0.862 -0.4983 -0.0929
vn -0.984 -0.1774 -0.0177
vn 0.9845 0.1748 0.0172
vn -0.9902 -0.1392 -0.0068
vn 0.9908 0.1349 0.0059
vn -0.9944 -0.1055 -0.0028
vn -0.9904 0.1381 -0.0064
vn 0.9912 -0.1326 0.0047
vn -0.9836 0.1799 -0.0147
vn 0.9819 -0.1888 0.0164
vn 0.9827 0.1845 -0.0162
vn -0.5691 0.8152 -0.1075
vn -0.9961 0.0879 -0.0002
vn 0.9938 -0.1111 0.0027
vn -0.9792 -0.2008 -0.028
vn -0.4305 -0.8888 -0.157
vn 0.9809 0.1936 0.0216
vn -0.9972 -0.0743 -0.0016
vn 0.997 0.077 0.0016
vn -0.9791 0.2024 -0.0207
vn 0.9764 -0.214 0.0277
vn -0.5522 0.8225 -0.1363
vn 0.9747 -0.2178 -0.05
vn -0.9865 -0.1629 -0.0139
vn 0.9908 0.1349 0.0089
vn 0.9968 -0.0796 0.0009
vn -0.9898 0.142 -0.0061
vn 0.988 -0.1542 0.0098
vn 0.9876 -0.1564 0.0128
vn 0.5995 0.789 -0.1349
vn 0.02 0.9835 -0.1795
vn -0.9757 -0.218 -0.0234
vn -0.9992 0.0403 0.0001
vn -0.9797 0.2002 -0.0133
vn -0.6617 0.7434 -0.0971
vn -0.5664 -0.8158 -0.117
vn 0.983 0.1831 0.012
vn 0.5215 0.8445 -0.1223
vn -0.9949 0.1012 -0.0033
vn 0.9656 -0.2586 0.027
vn 0.6777 -0.7264 -0.1142
vn 0.971 0.2379 0.0261
vn -0.9793 -0.2018 -0.0137
vn -0.9669 0.254 -0.0239
vn 0.9747 -0.2228 0.0182
vn -0.9665 -0.2553 -0.0262
vn -0.5845 -0.8058 -0.095
vn 0.8981 -0.4349 -0.0661
vn -0.9912 -0.1323 -0.0066
vn 0.9924 0.1229 0.006
vn -0.6388 0.7648 -0.0836
vn 0.1907 0.9757 -0.1077
vn 0.9998 -0.0211 0.0012
vn 0.9904 -0.1384 0.0054
vn 0.9799 -0.1991 0.0105
vn 0.9553 -0.2947 0.0253
vn 0.969 0.2465 0.0163
vn 0.9951 -0.0991 0.001
vn 0.8827 0.4686 -0.0342
vn -0.9581 -0.2856 -0.0212
vn -0.3971 -0.9142 -0.0806
vn -0.9731 0.23 -0.0101
vn -0.9578 0.2869 -0.0181
vn -0.9443 0.328 -0.0252
vn -0.1501 0.9858 -0.0757
vn 0.5239 -0.8474 -0.0858
vn 0.9532 0.3015 0.0235
vn 0.9528 -0.3031 0.0196
vn -0.9354 -0.3527 -0.0258
vn 0.3814 -0.9217 -0.0708
vn 0.9404 0.3391 0.0252
vn -0.9884 0.1518 -0.005
vn -0.2741 -0.9596 -0.0637
vn 0.9968 0.0801 0.0028
vn 0.9825 -0.1861 0.0022
vn 0.9634 -0.268 0.0073
vn 0.9317 -0.3631 0.0093
vn 0.9612 0.2757 0.0088
vn -0.967 -0.2546 -0.011
vn 0.9847 0.1741 0.0049
vn -0.9899 -0.142 -0.0018
vn -1 0.005 -0.0028
vn -0.9497 0.3129 -0.0137
vn 0.7976 -0.601 -0.0514
vn 0.9335 0.3583 0.0149
vn 0.518 0.8536 -0.0557
vn -0.937 -0.349 -0.0178
vn -0.9299 0.3672 -0.0195
vn -0.4672 0.8831 -0.042
vn 0.9985 0.0488 -0.0259
vn 0.9467 0.3218 -0.0165
vn 0.9784 0.2054 -0.0244
vn -0.9993 -0.0341 0.013
vn -0.9901 0.1401 0.0108
vn 0.99 -0.1385 -0.0266
vn -0.9666 0.2563 0.0069
vn 0.9662 -0.2569 -0.022
vn 0.931 -0.3647 -0.0151
vn 0.6902 0.7216 -0.054
vn -0.5335 -0.8452 -0.0302
vn 0.4741 -0.8783 -0.0613
vn 0.9182 0.3958 -0.0143
vn -0.9356 -0.3531 0.0001
vn -0.9684 -0.2491 0.0082
vn -0.9338 0.3578 0.0003
vn 0.9152 0.4025 -0.0186
vn 0.9876 0.1541 -0.0288
vn 0.9987 -0.039 -0.0315
vn 0.9817 -0.1883 -0.0278
vn 0.3799 -0.9236 -0.0522
vn -0.9305 -0.3661 0.0094
vn -0.5354 -0.8446 0.0015
vn 0.9612 0.2745 -0.0286
vn -0.9874 -0.1581 0.0099
vn -0.9982 0.0592 0.013
vn -0.9797 0.2001 0.0095
vn 0.9517 -0.3055 -0.0299
vn -0.949 0.3152 0.0097
vn -0.9091 0.4165 0.0076
vn 0.9111 -0.4113 -0.0258
vn 0.5484 0.8344 -0.0544
vn -0.2377 0.9709 -0.0292
vn -0.9693 -0.2456 0.0052
vn 0.9908 0.1341 0.0165
vn 0.9289 0.3662 -0.0552
vn -0.9926 -0.0905 -0.0807
vn -0.9988 0.0486 -0.0107
vn 0.9884 -0.152 -0.0085
vn -0.9823 0.187 -0.0052
vn -0.9609 -0.25 0.1192
vn -0.2111 -0.893 0.3974
vn 0.5616 -0.8264 -0.0418
vn -0.949 -0.3109 0.0527
vn 0.962 0.2582 -0.0884
vn -0.986 -0.1663 -0.0142
vn 0.9708 0.2381 -0.0288
vn 0.9997 -0.0189 -0.014
vn -0.9476 0.3159 0.0473
vn 0.9334 -0.3488 -0.0843
vn -0.5306 0.8456 0.0575
vn 0.6555 0.7526 -0.0623
vn 0.3962 -0.8192 0.4146
vn 0.9598 0.2218 -0.1719
vn -0.9911 -0.0021 -0.1331
vn 0.9944 -0.0165 0.1047
vn -0.9903 0.0791 -0.1141
vn 0.9916 -0.1285 0.0166
vn -0.9816 0.1821 0.057
vn 0.9707 -0.2014 -0.1308
vn -0.9608 0.2438 0.1318
vn 0.9831 -0.1387 -0.1196
vn -0.2194 0.7262 0.6515
vn 0.1489 0.9018 0.4056
vn -0.9992 -0.0024 0.04
vn -0.3373 -0.5575 0.7586
vn 0.3734 -0.6042 0.7039
vn 0.9903 0.0298 -0.1357
vn -0.9973 -0.0226 -0.0699
vn 0.9997 0.0167 0.0154
vn -0.9906 -0.0501 -0.1269
vn 0.9912 0.0234 0.1304
vn -0.9666 -0.0167 -0.2558
vn 0.9785 0.0362 0.2029
vn -0.9288 -0.0049 -0.3705
vn 0.9574 0.0048 0.2887
vn -0.9357 -0.0144 -0.3525
vn 0.9542 0.0087 0.299
vn -0.9415 -0.0562 -0.3322
vn 0.9801 -0.0253 0.1971
vn -0.9644 -0.0382 -0.2615
vn -0.9954 0.0296 -0.091
vn -0.9966 -0.0374 -0.0741
vn 0.9987 -0.032 -0.04
vn -0.9882 -0.1221 -0.092
vn -0.9774 0.1372 -0.1611
vn 0.9881 -0.0945 0.1211
vn -0.9415 0.1524 -0.3007
vn 0.9515 -0.1181 0.2839
vn -0.927 0.0875 -0.3648
vn 0.9353 -0.0457 0.3508
vn -0.9161 0.0389 -0.399
vn 0.9262 0.0168 0.3767
vn 0.9339 0.0939 0.345
vn 0.9609 0.0842 0.2638
vn -0.9428 -0.1463 -0.2996
vn 0.9463 0.1685 0.2761
vn -0.9025 -0.253 -0.3485
vn 0.9459 0.2106 0.2467
vn -0.1758 0.5891 0.7887
vn 0.264 0.6174 0.7411
vn -0.9068 0.2386 -0.3476
vn -0.9732 -0.1243 0.1936
vn 0.5065 -0.5335 0.6774
vn 0.9232 -0.2171 0.3171
vn -0.9097 0.0231 -0.4147
vn 0.9321 -0.0524 0.3583
vn -0.9097 -0.0377 -0.4135
vn -0.9078 -0.1103 -0.4046
vn -0.9125 -0.1913 -0.3615
vn -0.9218 0.1551 -0.3552
vn 0.9326 -0.1333 0.3353
vn -0.9279 0.0825 -0.3635
vn -0.946 -0.0146 -0.324
vn 0.9515 0.0169 0.3071
vn -0.9302 -0.1164 -0.3481
vn 0.9365 0.1069 0.3339
vn 0.9238 0.1805 0.3376
vn 0.9002 0.2738 0.3387
vn -0.9147 0.2506 0.3171
vn 0.5346 0.5239 0.6631
vn -0.8908 0.282 -0.3564
vn -0.7909 -0.4022 0.4612
vn 0.9057 -0.2607 0.3344
vn -0.928 0.1905 -0.3202
vn 0.9356 -0.1799 0.3037
vn -0.9524 0.0849 -0.2929
vn 0.9574 -0.0815 0.2769
vn -0.9522 -0.0961 -0.2899
vn 0.9581 0.0912 0.2716
vn -0.9319 -0.1777 -0.3163
vn 0.9398 0.1707 0.296
vn -0.9075 -0.2499 -0.3377
vn 0.9186 0.2397 0.3141
vn -0.8832 -0.2979 -0.3624
vn 0.7267 -0.4572 0.5127
vn -0.9655 -0.0002 -0.2604
vn 0.9677 -0.0021 0.2521
vn -0.8376 0.3739 0.3981
vn 0.4615 0.5914 0.6613
vn -0.8901 0.3456 -0.297
vn -0.88 -0.3757 0.2906
vn 0.5733 -0.6346 0.5183
vn 0.9019 -0.3354 0.2721
vn -0.9166 0.2911 -0.274
vn 0.9175 -0.2862 0.2762
vn -0.934 0.2293 -0.2739
vn 0.9413 -0.2195 0.2565
vn -0.9533 0.1672 -0.2517
vn 0.9585 -0.143 0.2467
vn -0.9663 0.0975 -0.2381
vn 0.975 -0.0759 0.2088
vn -0.9669 -0.0647 -0.2467
vn 0.9746 0.0456 0.2194
vn 0.9666 0.1212 0.226
vn -0.9643 -0.1301 -0.2307
vn -0.947 -0.1858 -0.2619
vn 0.9509 0.1809 0.2509
vn -0.9296 -0.254 -0.2671
vn 0.9331 0.2515 0.2571
vn -0.9051 -0.3148 -0.286
vn 0.9104 0.308 0.2764
vn -0.9776 0.1895 0.0916
vn 0.7087 0.5384 0.4559
vn -0.9814 0.0198 -0.1907
vn 0.9819 -0.0187 0.1887
vn -0.9814 -0.0328 -0.1892
vn -0.8875 -0.3743 -0.2688
vn -0.8978 0.3739 -0.2325
vn -0.9501 -0.2703 0.1559
vn 0.4467 -0.7616 0.4695
vn 0.9072 -0.3712 0.1979
vn 0.9213 -0.3186 0.2229
vn -0.9223 0.3138 -0.2257
vn 0.9404 -0.2681 0.2093
vn -0.9419 0.2523 -0.2216
vn 0.958 -0.2031 0.2024
vn -0.9639 0.1799 -0.1964
vn 0.9719 -0.139 0.1902
vn -0.9814 0.067 -0.1801
vn -0.9765 -0.0925 -0.1949
vn 0.98 0.077 0.1837
vn -0.9613 -0.1848 -0.2045
vn 0.9645 0.1749 0.1977
vn -0.944 -0.2443 -0.2218
vn 0.9487 0.2359 0.2105
vn -0.9241 -0.3208 -0.2075
vn 0.9327 0.3005 0.1993
vn -0.8975 -0.3782 -0.2268
vn 0.9065 0.3606 0.2197
vn -0.8991 0.388 0.2024
vn 0.462 0.7573 0.4616
vn -0.9798 0.1222 -0.1582
vn 0.9887 0.0172 0.1492
vn -0.9762 -0.1315 -0.1723
vn 0.978 0.1267 0.166
vn -0.902 0.3975 -0.1684
vn -0.97 -0.2257 0.0906
vn 0.6538 -0.6991 0.2896
vn -0.9283 0.3327 -0.1657
vn 0.9346 -0.3197 0.156
vn -0.9525 0.2557 -0.1656
vn 0.958 -0.2431 0.1519
vn 0.9713 -0.1819 0.153
vn 0.9831 -0.1191 0.1389
vn 0.9897 -0.0541 0.1324
vn -0.9889 -0.0767 -0.1276
vn 0.99 0.0771 0.118
vn -0.9684 -0.1939 -0.1569
vn 0.9708 0.1866 0.1506
vn -0.9523 -0.252 -0.1722
vn 0.9566 0.2408 0.1642
vn -0.8953 -0.4127 -0.1676
vn 0.9203 0.3586 0.1562
vn -0.8991 0.4173 0.1326
vn 0.6883 0.6699 0.2784
vn 0.9139 -0.3856 0.1272
vn -0.9737 0.1901 -0.1256
vn -0.9902 0.0511 -0.1299
vn -0.9936 -0.0179 -0.1112
vn -0.9429 -0.3034 -0.1372
vn 0.9434 0.3024 0.136
vn -0.9183 -0.3652 -0.1529
vn 0.9034 0.4125 0.1166
vn -0.9827 -0.1515 -0.1064
vn 0.984 0.1445 0.104
vn -0.9645 -0.2355 -0.1193
vn 0.9673 0.2246 0.1175
vn -0.901 0.4168 -0.1208
vn -0.9892 -0.1398 0.0448
vn 0.6398 -0.7386 0.2125
vn -0.9298 0.3488 -0.1176
vn 0.9404 -0.3228 0.1068
vn -0.9571 0.2676 -0.1111
vn 0.96 -0.2589 0.1063
vn 0.9773 -0.1841 0.1053
vn -0.9877 0.1215 -0.0982
vn 0.9913 -0.1114 0.0702
vn -0.9964 0.0427 -0.0731
vn 0.9964 -0.0401 0.0747
vn 0.9956 0.0164 0.0919
vn -0.9269 -0.3609 -0.1034
vn 0.9529 0.2896 0.0903
vn 0.9279 0.3571 0.1071
vn -0.8981 -0.4247 -0.1137
vn -0.9942 0.107 0.013
vn 0.422 0.8711 0.2511
vn -0.9953 -0.0799 -0.054
vn 0.9955 0.08 0.0514
vn -0.9718 -0.2276 -0.062
vn -0.9852 -0.1624 -0.0539
vn 0.9862 0.1575 0.052
vn 0.9737 0.2168 0.0693
vn -0.9522 -0.2987 -0.0645
vn -0.9036 0.4247 -0.0561
vn -0.9892 -0.1445 0.0257
vn 0.6956 -0.7122 0.0946
vn 0.9143 -0.4008 0.0579
vn -0.9334 0.3544 -0.0561
vn 0.939 -0.3395 0.055
vn -0.9605 0.2731 -0.0539
vn 0.9636 -0.2623 0.0514
vn -0.9798 0.1908 -0.0592
vn 0.9813 -0.1859 0.0507
vn -0.9929 0.1078 -0.0505
vn -0.9993 -0.0124 -0.0343
vn -0.9987 0.0467 -0.0205
vn 0.9986 -0.048 0.0215
vn 0.9995 0.0114 0.0286
vn -0.925 -0.3772 -0.0467
vn 0.9353 0.351 0.0441
vn -0.8989 -0.4352 -0.0514
vn 0.9088 0.4141 0.0508
vn -0.9539 0.2992 0.0241
vn 0.6584 0.7455 0.1037
vn 0.9597 0.2782 0.0387
vn -0.9926 0.1211 -0.0092
vn 0.9929 -0.1179 0.0132
vn -0.9893 -0.1457 -0.0038
vn 0.99 0.1409 -0.0003
vn -0.9767 -0.2145 -0.0031
vn 0.9779 0.2089 0.0057
vn -0.8976 0.4405 -0.0159
vn -0.9838 -0.1789 0.0092
vn 0.6221 -0.7821 0.0364
vn 0.9086 -0.4173 0.0174
vn -0.9286 0.3707 -0.0142
vn 0.936 -0.3517 0.016
vn -0.9581 0.2861 -0.0131
vn 0.9614 -0.2748 0.0121
vn -0.9793 0.2024 -0.0091
vn 0.9805 -0.1962 0.0085
vn -0.999 -0.0427 0.016
vn 0.9989 0.0435 -0.017
vn -0.9957 -0.0921 -0.0008
vn 0.9956 0.0932 -0.006
vn -0.9577 -0.2878 -0.0036
vn 0.9595 0.2814 -0.0115
vn -0.9332 -0.3594 -0.0016
vn 0.9387 0.3446 0.0007
vn -0.9049 -0.4254 -0.0125
vn 0.9131 0.4078 0.0069
vn -0.9981 -0.062 -0.0017
vn 0.6364 0.7704 0.0378
vn -0.9967 0.0702 0.0402
vn 0.9968 -0.069 -0.0396
vn -0.9996 0.0088 0.0255
vn 0.9996 -0.0088 -0.0253
vn -0.8884 0.4538 0.0696
vn 0.6118 -0.7827 -0.1142
vn 0.9074 -0.4151 -0.066
vn -0.9162 0.3958 0.0621
vn 0.9297 -0.3665 -0.0359
vn -0.9466 0.3196 0.0428
vn 0.9517 -0.3042 -0.0413
vn -0.9719 0.2309 0.0465
vn 0.9738 -0.223 -0.0453
vn -0.9871 0.1531 0.0461
vn 0.9878 -0.1492 -0.0452
vn -0.9929 -0.1092 0.0467
vn 0.9919 0.1078 -0.0668
vn -0.9798 -0.1904 0.0614
vn 0.9808 0.1856 -0.0592
vn -0.9628 -0.2619 0.0667
vn 0.964 0.2581 -0.0641
vn -0.941 -0.3312 0.0695
vn 0.9384 0.3382 -0.0712
vn -0.9203 -0.3848 0.0701
vn -0.8982 -0.4336 0.0728
vn 0.9119 0.4048 -0.0673
vn 0.5949 0.7961 -0.1108
vn -0.9258 -0.3753 -0.0457
vn -0.9957 -0.0407 0.0835
vn 0.9958 0.0389 -0.0833
vn -0.9942 0.1069 -0.0077
vn 0.9368 -0.3393 -0.0851
vn -0.9378 0.3349 0.0909
vn -0.958 0.2738 0.0853
vn 0.9612 -0.2625 -0.0844
vn -0.9753 0.1944 0.1051
vn 0.978 -0.1805 -0.1043
vn -0.9889 0.1183 0.0896
vn 0.9885 -0.1172 -0.0954
vn -0.9962 0.0125 0.0867
vn 0.9963 -0.0125 -0.0852
vn -0.9889 -0.1132 0.0964
vn -0.9536 -0.294 -0.0654
vn -0.9909 0.0677 0.1163
vn 0.9915 -0.0648 -0.1124
vn -0.9547 0.2873 -0.0773
vn -0.9011 0.4155 0.1239
vn 0.6273 -0.7552 -0.1903
vn 0.9045 -0.4045 -0.1355
vn 0.9256 -0.36 -0.1174
vn -0.9256 0.3559 0.129
vn 0.9441 -0.3067 -0.1209
vn -0.9531 0.275 0.1268
vn 0.9595 -0.2435 -0.1414
vn -0.9789 -0.1614 0.1252
vn 0.9813 0.1516 -0.1182
vn -0.9639 -0.2357 0.1239
vn 0.9671 0.2254 -0.1178
vn -0.9408 -0.313 0.13
vn 0.9511 0.2865 -0.1159
vn -0.9185 -0.3733 0.1304
vn 0.9295 0.339 -0.1454
vn 0.9121 0.3909 -0.1237
vn -0.8941 -0.4188 0.1588
vn 0.7345 0.6563 -0.1728
vn -0.9842 -0.0884 0.1536
vn 0.987 0.0833 -0.1378
vn -0.8852 0.4238 0.1922
vn 0.6136 -0.724 -0.3152
vn -0.9121 0.3623 0.1918
vn 0.9304 -0.3198 -0.1792
vn -0.936 0.2969 0.189
vn -0.9603 0.2198 0.1716
vn 0.9696 -0.1845 -0.1609
vn -0.9783 0.134 0.1581
vn 0.9789 -0.1188 -0.166
vn -0.989 0.0256 0.1456
vn 0.9896 -0.025 -0.142
vn -0.9862 -0.0235 0.1639
vn 0.9866 0.025 -0.1614
vn -0.9703 -0.1573 0.1837
vn 0.9737 0.1454 -0.1754
vn -0.957 -0.223 0.1854
vn 0.9632 0.2026 -0.1766
vn -0.9433 -0.2746 0.1863
vn 0.9468 0.2681 -0.178
vn -0.9151 -0.3446 0.2092
vn 0.9058 0.3748 -0.1978
vn 0.6073 0.7255 -0.3237
vn -0.8485 -0.4835 -0.2149
vn 0.9074 -0.3671 -0.2046
vn 0.9497 -0.246 -0.1939
vn -0.981 0.0549 0.1858
vn 0.9808 -0.0525 -0.1881
vn 0.927 0.3122 -0.2077
vn -0.8911 -0.3999 0.2147
vn -0.9383 0.31 -0.1533
vn -0.9611 0.1806 0.2091
vn -0.9678 0.1144 0.2241
vn -0.8932 0.3862 0.2301
vn -0.9886 -0.1346 -0.0668
vn 0.5615 -0.6999 -0.4413
vn -0.9165 0.3124 0.25
vn 0.925 -0.2945 -0.24
vn -0.9392 0.2469 0.2387
vn 0.9617 -0.1674 -0.2169
vn -0.9724 -0.0773 0.2202
vn 0.9745 0.0898 -0.2056
vn -0.9626 -0.1348 0.2351
vn 0.9574 0.1683 -0.2346
vn -0.949 -0.2047 0.24
vn 0.9435 0.2392 -0.2293
vn -0.928 -0.2753 0.2509
vn -0.8885 -0.3785 0.2594
vn 0.9018 0.3489 -0.255
vn -0.9984 0.0478 -0.0318
vn 0.5619 0.7011 -0.439
vn -0.8872 0.3585 0.2903
vn 0.9026 -0.3367 -0.2682
vn 0.9426 -0.2253 -0.2464
vn -0.9457 0.1801 0.2704
vn 0.9633 -0.1073 -0.246
vn -0.9717 -0.0148 0.2358
vn -0.9655 0.0569 0.2541
vn 0.9694 -0.0351 -0.2429
vn 0.9743 0.0183 -0.2246
vn 0.9189 0.2922 -0.265
vn -0.8974 -0.3339 0.2886
vn -0.6123 -0.6315 -0.4757
vn 0.9487 -0.1668 -0.2687
vn -0.9563 -0.0693 0.2842
vn 0.9625 0.0934 -0.2548
vn -0.8763 0.3861 -0.288
vn -0.9986 -0.0357 -0.0391
vn 0.4245 -0.6835 -0.5939
vn 0.8924 -0.326 -0.3119
vn -0.896 0.3078 0.32
vn 0.9141 -0.2762 -0.2969
vn -0.9232 0.2424 0.2983
vn 0.9308 -0.2211 -0.2911
vn -0.9495 0.1249 0.2878
vn -0.9554 0.0108 0.2951
vn 0.9528 -0.0648 -0.2967
vn 0.9592 0.0243 -0.2815
vn -0.9412 -0.1306 0.3117
vn -0.9398 -0.1784 0.2915
vn 0.9407 0.158 -0.3001
vn -0.9201 -0.2381 0.311
vn 0.9237 0.2386 -0.2997
vn -0.8937 -0.3018 0.3321
vn 0.8993 0.3095 -0.3089
vn 0.5547 0.6261 -0.548
vn -0.9278 0.1864 0.3231
vn -0.9472 0.0838 0.3096
vn 0.9503 0.0897 -0.2982
vn -0.986 0.1173 -0.1185
vn -0.8752 0.2907 0.3866
vn -0.4307 -0.5668 -0.7023
vn 0.5412 -0.5479 -0.6379
vn 0.8905 -0.2784 -0.3599
vn -0.8941 0.2443 0.3754
vn 0.914 -0.2166 -0.343
vn 0.9393 -0.1374 -0.3144
vn -0.9207 0.1528 0.359
vn 0.9447 -0.0058 -0.3278
vn -0.9387 -0.0205 0.3442
vn -0.9135 -0.1885 0.3605
vn 0.909 0.2219 -0.3528
vn -0.8829 -0.2663 0.3868
vn 0.6927 0.467 -0.5496
vn -0.9535 0.1834 -0.2392
vn -0.9342 0.0641 0.3509
vn 0.9324 -0.0894 -0.3502
vn -0.9307 -0.0988 0.3522
vn 0.9403 0.0752 -0.3318
vn 0.9207 0.1469 -0.3615
vn 0.5523 0.4724 -0.6869
vn -0.8517 -0.2927 -0.4347
vn 0.3084 -0.5486 -0.7771
vn 0.8915 -0.2351 -0.3872
vn -0.8841 0.2139 0.4154
vn 0.9135 -0.1774 -0.3661
vn 0.9308 -0.0227 -0.3649
vn -0.9057 -0.1471 0.3976
vn 0.8918 0.2038 -0.404
vn -0.8781 -0.2186 0.4255
vn -0.6745 0.3544 -0.6477
vn 0.4 -0.4357 -0.8064
vn -0.4523 -0.3899 -0.8021
vn 0.8958 -0.174 -0.4091
vn -0.9094 0.1129 0.4002
vn -0.9217 0.023 0.3873
vn -0.9189 -0.0599 0.3899
vn 0.9294 0.0531 -0.3653
vn 0.3796 0.4396 -0.814
vn -0.4737 -0.3005 -0.8278
vn 0.2839 -0.3639 -0.8871
vn -0.882 0.1488 0.4472
vn 0.9015 -0.1306 -0.4126
vn -0.924 -0.0669 -0.3764
vn 0.5968 -0.187 -0.7803
vn -0.8873 -0.1398 0.4395
vn 0.9026 0.1315 -0.4099
vn -0.8689 -0.1646 0.4669
vn 0.8836 0.156 -0.4414
vn -0.3121 0.3331 -0.8898
vn 0.225 0.379 -0.8976
vn -0.9539 0.1155 -0.2771
vn 0.4633 0.1815 -0.8674
f 3//3 2//2 1//1
f 6//6 5//5 4//4
f 8//8 7//7 1//1
f 2//2 8//8 1//1
f 9//9 6//6 4//4
f 10//10 9//9 4//4
f 12//12 11//11 7//7
f 8//8 12//12 7//7
f 13//13 9//9 10//10
f 14//14 13//13 10//10
f 16//16 15//15 11//11
f 12//12 16//16 11//11
f 17//17 13//13 14//14
f 18//18 17//17 14//14
f 16//16 19//19 15//15
f 20//20 17//17 18//18
f 19//19 21//21 15//15
f 22//22 20//20 18//18
f 21//21 23//23 15//15
f 24//24 22//22 18//18
f 26//26 25//25 23//23
f 28//28 27//27 24//24
f 30//30 29//29 25//25
f 32//32 31//31 28//28
f 30//30 33//33 29//29
f 34//34 31//31 32//32
f 33//33 35//35 29//29
f 36//36 34//34 32//32
f 35//35 37//37 29//29
f 38//38 36//36 32//32
f 35//35 39//39 37//37
f 40//40 36//36 38//38
f 39//39 41//41 37//37
f 42//42 40//40 38//38
f 43//43 2//2 3//3
f 6//6 44//44 5//5
f 43//43 45//45 2//2
f 46//46 44//44 6//6
f 45//45 8//8 2//2
f 9//9 46//46 6//6
f 45//45 12//12 8//8
f 13//13 46//46 9//9
f 45//45 16//16 12//12
f 17//17 46//46 13//13
f 47//47 19//19 16//16
f 20//20 48//48 17//17
f 47//47 21//21 19//19
f 22//22 48//48 20//20
f 49//49 30//30 25//25
f 26//26 49//49 25//25
f 50//50 27//27 28//28
f 31//31 50//50 28//28
f 51//51 35//35 33//33
f 30//30 51//51 33//33
f 52//52 31//31 34//34
f 36//36 52//52 34//34
f 53//53 39//39 35//35
f 51//51 53//53 35//35
f 54//54 52//52 36//36
f 40//40 54//54 36//36
f 53//53 41//41 39//39
f 42//42 54//54 40//40
f 56//56 55//55 43//43
f 58//58 57//57 44//44
f 55//55 45//45 43//43
f 46//46 58//58 44//44
f 55//55 59//59 45//45
f 60//60 58//58 46//46
f 59//59 16//16 45//45
f 17//17 60//60 46//46
f 59//59 47//47 16//16
f 48//48 60//60 17//17
f 61//61 23//23 21//21
f 24//24 62//62 22//22
f 61//61 63//63 23//23
f 64//64 62//62 24//24
f 65//65 51//51 30//30
f 49//49 65//65 30//30
f 66//66 50//50 31//31
f 52//52 66//66 31//31
f 67//67 53//53 51//51
f 65//65 67//67 51//51
f 68//68 66//66 52//52
f 54//54 68//68 52//52
f 69//69 55//55 56//56
f 70//70 69//69 56//56
f 72//72 71//71 57//57
f 58//58 72//72 57//57
f 69//69 59//59 55//55
f 60//60 72//72 58//58
f 47//47 61//61 21//21
f 62//62 48//48 22//22
f 63//63 26//26 23//23
f 27//27 64//64 24//24
f 63//63 49//49 26//26
f 50//50 64//64 27//27
f 65//65 73//73 67//67
f 74//74 66//66 68//68
f 75//75 69//69 70//70
f 72//72 76//76 71//71
f 75//75 77//77 69//69
f 78//78 76//76 72//72
f 77//77 59//59 69//69
f 60//60 78//78 72//72
f 77//77 79//79 59//59
f 80//80 78//78 60//60
f 79//79 47//47 59//59
f 48//48 80//80 60//60
f 81//81 65//65 49//49
f 66//66 82//82 50//50
f 83//83 73//73 65//65
f 74//74 84//84 66//66
f 85//85 47//47 79//79
f 48//48 86//86 80//80
f 87//87 63//63 61//61
f 64//64 88//88 62//62
f 89//89 88//88 64//64
f 87//87 90//90 63//63
f 91//91 89//89 64//64
f 90//90 49//49 63//63
f 50//50 91//91 64//64
f 90//90 81//81 49//49
f 82//82 91//91 50//50
f 81//81 83//83 65//65
f 84//84 82//82 66//66
f 93//93 92//92 75//75
f 95//95 94//94 76//76
f 92//92 77//77 75//75
f 78//78 95//95 76//76
f 92//92 79//79 77//77
f 80//80 95//95 78//78
f 96//96 87//87 61//61
f 81//81 97//97 83//83
f 98//98 82//82 84//84
f 48//48 99//99 86//86
f 96//96 61//61 47//47
f 85//85 96//96 47//47
f 62//62 99//99 48//48
f 88//88 99//99 62//62
f 100//100 92//92 93//93
f 95//95 101//101 94//94
f 100//100 102//102 92//92
f 103//103 101//101 95//95
f 102//102 104//104 92//92
f 105//105 103//103 95//95
f 104//104 79//79 92//92
f 80//80 105//105 95//95
f 106//106 85//85 79//79
f 104//104 106//106 79//79
f 86//86 105//105 80//80
f 107//107 81//81 90//90
f 82//82 108//108 91//91
f 107//107 109//109 81//81
f 110//110 108//108 82//82
f 111//111 110//110 82//82
f 109//109 97//97 81//81
f 98//98 111//111 82//82
f 109//109 112//112 97//97
f 113//113 90//90 87//87
f 91//91 114//114 89//89
f 113//113 107//107 90//90
f 108//108 114//114 91//91
f 115//115 102//102 100//100
f 116//116 115//115 100//100
f 103//103 117//117 101//101
f 118//118 85//85 106//106
f 99//99 119//119 86//86
f 120//120 109//109 107//107
f 111//111 121//121 110//110
f 122//122 112//112 109//109
f 117//117 123//123 101//101
f 124//124 104//104 102//102
f 115//115 124//124 102//102
f 125//125 117//117 103//103
f 105//105 125//125 103//103
f 124//124 106//106 104//104
f 86//86 125//125 105//105
f 114//114 126//126 89//89
f 127//127 107//107 113//113
f 108//108 128//128 114//114
f 129//129 128//128 108//108
f 110//110 129//129 108//108
f 122//122 109//109 120//120
f 130//130 121//121 111//111
f 131//131 130//130 111//111
f 132//132 124//124 115//115
f 118//118 96//96 85//85
f 89//89 126//126 88//88
f 133//133 113//113 87//87
f 134//134 107//107 127//127
f 134//134 120//120 107//107
f 135//135 122//122 120//120
f 132//132 115//115 116//116
f 136//136 132//132 116//116
f 125//125 137//137 117//117
f 130//130 138//138 121//121
f 88//88 119//119 99//99
f 133//133 87//87 96//96
f 139//139 127//127 113//113
f 138//138 140//140 121//121
f 142//142 141//141 123//123
f 117//117 142//142 123//123
f 143//143 124//124 132//132
f 137//137 142//142 117//117
f 119//119 125//125 86//86
f 144//144 120//120 134//134
f 110//110 145//145 129//129
f 144//144 135//135 120//120
f 140//140 145//145 110//110
f 121//121 140//140 110//110
f 139//139 113//113 133//133
f 147//147 146//146 136//136
f 146//146 132//132 136//136
f 142//142 148//148 141//141
f 146//146 143//143 132//132
f 149//149 106//106 124//124
f 143//143 149//149 124//124
f 125//125 150//150 137//137
f 151//151 135//135 144//144
f 138//138 152//152 140//140
f 133//133 96//96 118//118
f 88//88 153//153 119//119
f 126//126 153//153 88//88
f 114//114 154//154 126//126
f 155//155 154//154 114//114
f 128//128 155//155 114//114
f 145//145 155//155 128//128
f 129//129 145//145 128//128
f 140//140 156//156 145//145
f 142//142 157//157 148//148
f 149//149 118//118 106//106
f 119//119 150//150 125//125
f 158//158 153//153 126//126
f 140//140 159//159 156//156
f 152//152 159//159 140//140
f 160//160 146//146 147//147
f 161//161 160//160 147//147
f 160//160 143//143 146//146
f 162//162 134//134 127//127
f 163//163 144//144 134//134
f 164//164 151//151 144//144
f 163//163 164//164 144//144
f 164//164 165//165 151//151
f 148//148 167//167 166//166
f 157//157 167//167 148//148
f 154//154 158//158 126//126
f 145//145 168//168 155//155
f 156//156 168//168 145//145
f 169//169 160//160 161//161
f 137//137 157//157 142//142
f 162//162 163//163 134//134
f 171//171 170//170 166//166
f 167//167 171//171 166//166
f 172//172 127//127 139//139
f 159//159 168//168 156//156
f 173//173 169//169 161//161
f 153//153 174//174 119//119
f 154//154 175//175 158//158
f 155//155 175//175 154//154
f 176//176 175//175 155//155
f 168//168 176//176 155//155
f 177//177 176//176 168//168
f 178//178 171//171 167//167
f 157//157 178//178 167//167
f 179//179 143//143 160//160
f 180//180 178//178 157//157
f 137//137 180//180 157//157
f 181//181 149//149 143//143
f 179//179 181//181 143//143
f 150//150 180//180 137//137
f 181//181 118//118 149//149
f 174//174 180//180 150//150
f 119//119 174//174 150//150
f 182//182 133//133 118//118
f 182//182 139//139 133//133
f 182//182 172//172 139//139
f 183//183 163//163 162//162
f 185//185 184//184 170//170
f 171//171 185//185 170//170
f 153//153 158//158 174//174
f 162//162 127//127 172//172
f 186//186 177//177 168//168
f 159//159 186//186 168//168
f 187//187 169//169 173//173
f 187//187 160//160 169//169
f 187//187 179//179 160//160
f 178//178 185//185 171//171
f 182//182 118//118 181//181
f 188//188 164//164 163//163
f 183//183 188//188 163//163
f 189//189 165//165 164//164
f 188//188 189//189 164//164
f 174//174 190//190 180//180
f 158//158 190//190 174//174
f 185//185 191//191 184//184
f 178//178 191//191 185//185
f 192//192 191//191 178//178
f 180//180 192//192 178//178
f 190//190 192//192 180//180
f 193//193 182//182 181//181
f 193//193 194//194 182//182
f 158//158 195//195 190//190
f 194//194 172//172 182//182
f 175//175 195//195 158//158
f 196//196 162//162 172//172
f 194//194 196//196 172//172
f 197//197 195//195 175//175
f 176//176 197//197 175//175
f 198//198 197//197 176//176
f 177//177 198//198 176//176
f 199//199 198//198 177//177
f 200//200 187//187 173//173
f 202//202 201//201 184//184
f 200//200 203//203 187//187
f 191//191 202//202 184//184
f 203//203 179//179 187//187
f 203//203 204//204 179//179
f 204//204 181//181 179//179
f 205//205 183//183 162//162
f 196//196 205//205 162//162
f 205//205 188//188 183//183
f 205//205 189//189 188//188
f 186//186 199//199 177//177
f 191//191 206//206 202//202
f 190//190 207//207 192//192
f 208//208 207//207 190//190
f 195//195 208//208 190//190
f 209//209 208//208 195//195
f 206//206 210//210 201//201
f 202//202 206//206 201//201
f 211//211 203//203 200//200
f 212//212 211//211 200//200
f 213//213 206//206 191//191
f 211//211 204//204 203//203
f 192//192 213//213 191//191
f 214//214 181//181 204//204
f 207//207 213//213 192//192
f 214//214 193//193 181//181
f 214//214 215//215 193//193
f 215//215 194//194 193//193
f 215//215 216//216 194//194
f 216//216 196//196 194//194
f 197//197 209//209 195//195
f 217//217 209//209 197//197
f 216//216 218//218 196//196
f 218//218 205//205 196//196
f 198//198 217//217 197//197
f 218//218 219//219 205//205
f 220//220 217//217 198//198
f 199//199 220//220 198//198
f 219//219 189//189 205//205
f 221//221 220//220 199//199
f 219//219 222//222 189//189
f 223//223 204//204 211//211
f 223//223 214//214 204//204
f 207//207 224//224 213//213
f 206//206 225//225 210//210
f 213//213 225//225 206//206
f 226//226 214//214 223//223
f 227//227 216//216 215//215
f 217//217 228//228 209//209
f 229//229 218//218 216//216
f 231//231 230//230 212//212
f 225//225 232//232 210//210
f 233//233 211//211 212//212
f 230//230 233//233 212//212
f 234//234 232//232 225//225
f 233//233 235//235 211//211
f 236//236 234//234 225//225
f 213//213 236//236 225//225
f 235//235 223//223 211//211
f 224//224 236//236 213//213
f 227//227 214//214 226//226
f 237//237 224//224 207//207
f 208//208 237//237 207//207
f 227//227 215//215 214//214
f 209//209 237//237 208//208
f 228//228 237//237 209//209
f 227//227 229//229 216//216
f 229//229 238//238 218//218
f 238//238 219//219 218//218
f 220//220 239//239 217//217
f 238//238 240//240 219//219
f 240//240 222//222 219//219
f 241//241 239//239 220//220
f 221//221 241//241 220//220
f 243//243 242//242 232//232
f 234//234 243//243 232//232
f 244//244 227//227 226//226
f 237//237 245//245 224//224
f 244//244 246//246 227//227
f 228//228 245//245 237//237
f 246//246 229//229 227//227
f 247//247 228//228 217//217
f 239//239 247//247 217//217
f 229//229 248//248 238//238
f 249//249 247//247 239//239
f 250//250 240//240 238//238
f 248//248 250//250 238//238
f 251//251 249//249 239//239
f 241//241 251//251 239//239
f 250//250 252//252 240//240
f 253//253 251//251 241//241
f 254//254 230//230 231//231
f 255//255 254//254 231//231
f 257//257 256//256 242//242
f 243//243 257//257 242//242
f 258//258 233//233 230//230
f 254//254 258//258 230//230
f 259//259 257//257 243//243
f 234//234 259//259 243//243
f 260//260 235//235 233//233
f 258//258 260//260 233//233
f 261//261 259//259 234//234
f 236//236 261//261 234//234
f 262//262 223//223 235//235
f 260//260 262//262 235//235
f 263//263 261//261 236//236
f 262//262 226//226 223//223
f 224//224 263//263 236//236
f 264//264 244//244 226//226
f 262//262 264//264 226//226
f 265//265 263//263 224//224
f 245//245 265//265 224//224
f 266//266 246//246 244//244
f 264//264 266//266 244//244
f 267//267 265//265 245//245
f 266//266 268//268 246//246
f 269//269 267//267 245//245
f 228//228 269//269 245//245
f 270//270 229//229 246//246
f 268//268 270//270 246//246
f 270//270 271//271 229//229
f 247//247 269//269 228//228
f 271//271 248//248 229//229
f 271//271 272//272 248//248
f 249//249 273//273 247//247
f 272//272 250//250 248//248
f 272//272 274//274 250//250
f 251//251 273//273 249//249
f 274//274 252//252 250//250
f 275//275 254//254 255//255
f 257//257 276//276 256//256
f 277//277 258//258 254//254
f 275//275 277//277 254//254
f 259//259 276//276 257//257
f 278//278 276//276 259//259
f 279//279 260//260 258//258
f 277//277 279//279 258//258
f 261//261 278//278 259//259
f 279//279 262//262 260//260
f 280//280 278//278 261//261
f 263//263 280//280 261//261
f 279//279 281//281 262//262
f 281//281 264//264 262//262
f 265//265 280//280 263//263
f 282//282 280//280 265//265
f 267//267 282//282 265//265
f 283//283 267//267 269//269
f 284//284 283//283 269//269
f 247//247 284//284 269//269
f 270//270 285//285 271//271
f 286//286 284//284 247//247
f 285//285 272//272 271//271
f 273//273 286//286 247//247
f 285//285 287//287 272//272
f 288//288 286//286 273//273
f 287//287 274//274 272//272
f 251//251 288//288 273//273
f 289//289 252//252 274//274
f 290//290 288//288 251//251
f 253//253 290//290 251//251
f 291//291 275//275 255//255
f 292//292 291//291 255//255
f 294//294 293//293 256//256
f 276//276 294//294 256//256
f 291//291 277//277 275//275
f 278//278 294//294 276//276
f 279//279 295//295 281//281
f 295//295 264//264 281//281
f 282//282 296//296 280//280
f 295//295 297//297 264//264
f 297//297 266//266 264//264
f 298//298 268//268 266//266
f 297//297 298//298 266//266
f 283//283 282//282 267//267
f 299//299 270//270 268//268
f 298//298 299//299 268//268
f 299//299 285//285 270//270
f 291//291 300//300 277//277
f 278//278 301//301 294//294
f 300//300 279//279 277//277
f 280//280 301//301 278//278
f 300//300 302//302 279//279
f 296//296 301//301 280//280
f 302//302 295//295 279//279
f 302//302 303//303 295//295
f 303//303 297//297 295//295
f 282//282 304//304 296//296
f 303//303 305//305 297//297
f 306//306 304//304 282//282
f 305//305 298//298 297//297
f 283//283 306//306 282//282
f 305//305 299//299 298//298
f 307//307 306//306 283//283
f 284//284 307//307 283//283
f 286//286 307//307 284//284
f 299//299 287//287 285//285
f 308//308 307//307 286//286
f 288//288 308//308 286//286
f 309//309 274//274 287//287
f 310//310 308//308 288//288
f 309//309 289//289 274//274
f 290//290 310//310 288//288
f 312//312 311//311 292//292
f 311//311 291//291 292//292
f 313//313 293//293 294//294
f 314//314 300//300 291//291
f 311//311 314//314 291//291
f 315//315 313//313 294//294
f 301//301 315//315 294//294
f 316//316 302//302 300//300
f 314//314 316//316 300//300
f 317//317 315//315 301//301
f 296//296 317//317 301//301
f 316//316 303//303 302//302
f 304//304 317//317 296//296
f 318//318 305//305 303//303
f 306//306 319//319 304//304
f 320//320 299//299 305//305
f 318//318 320//320 305//305
f 321//321 319//319 306//306
f 307//307 321//321 306//306
f 320//320 322//322 299//299
f 323//323 321//321 307//307
f 324//324 287//287 299//299
f 322//322 324//324 299//299
f 308//308 323//323 307//307
f 324//324 309//309 287//287
f 313//313 325//325 293//293
f 326//326 303//303 316//316
f 304//304 327//327 317//317
f 326//326 318//318 303//303
f 319//319 327//327 304//304
f 328//328 309//309 324//324
f 310//310 329//329 308//308
f 330//330 311//311 312//312
f 331//331 330//330 312//312
f 333//333 332//332 325//325
f 330//330 334//334 311//311
f 335//335 333//333 325//325
f 313//313 335//335 325//325
f 336//336 314//314 311//311
f 334//334 336//336 311//311
f 337//337 335//335 313//313
f 315//315 337//337 313//313
f 336//336 338//338 314//314
f 339//339 337//337 315//315
f 340//340 316//316 314//314
f 338//338 340//340 314//314
f 317//317 339//339 315//315
f 341//341 339//339 317//317
f 340//340 326//326 316//316
f 327//327 341//341 317//317
f 342//342 318//318 326//326
f 319//319 343//343 327//327
f 344//344 343//343 319//319
f 342//342 345//345 318//318
f 346//346 320//320 318//318
f 345//345 346//346 318//318
f 347//347 344//344 319//319
f 321//321 347//347 319//319
f 348//348 322//322 320//320
f 346//346 348//348 320//320
f 349//349 347//347 321//321
f 323//323 349//349 321//321
f 350//350 324//324 322//322
f 348//348 350//350 322//322
f 351//351 349//349 323//323
f 308//308 351//351 323//323
f 352//352 328//328 324//324
f 350//350 352//352 324//324
f 353//353 351//351 308//308
f 329//329 353//353 308//308
f 354//354 326//326 340//340
f 327//327 355//355 341//341
f 354//354 356//356 326//326
f 343//343 355//355 327//327
f 356//356 342//342 326//326
f 357//357 352//352 350//350
f 358//358 330//330 331//331
f 359//359 358//358 331//331
f 361//361 360//360 332//332
f 333//333 361//361 332//332
f 362//362 361//361 333//333
f 363//363 334//334 330//330
f 358//358 363//363 330//330
f 335//335 362//362 333//333
f 364//364 362//362 335//335
f 365//365 336//336 334//334
f 363//363 365//365 334//334
f 337//337 364//364 335//335
f 366//366 364//364 337//337
f 367//367 338//338 336//336
f 365//365 367//367 336//336
f 339//339 366//366 337//337
f 368//368 366//366 339//339
f 367//367 340//340 338//338
f 341//341 368//368 339//339
f 369//369 354//354 340//340
f 370//370 342//342 356//356
f 344//344 371//371 343//343
f 370//370 345//345 342//342
f 372//372 346//346 345//345
f 347//347 373//373 344//344
f 374//374 348//348 346//346
f 372//372 374//374 346//346
f 375//375 373//373 347//347
f 349//349 375//375 347//347
f 376//376 350//350 348//348
f 374//374 376//376 348//348
f 377//377 375//375 349//349
f 351//351 377//377 349//349
f 378//378 357//357 350//350
f 376//376 378//378 350//350
f 379//379 377//377 351//351
f 353//353 379//379 351//351
f 380//380 352//352 357//357
f 378//378 380//380 357//357
f 381//381 379//379 353//353
f 382//382 340//340 367//367
f 382//382 369//369 340//340
f 343//343 383//383 355//355
f 371//371 383//383 343//343
f 384//384 345//345 370//370
f 344//344 385//385 371//371
f 384//384 372//372 345//345
f 373//373 385//385 344//344
f 386//386 358//358 359//359
f 387//387 386//386 359//359
f 361//361 388//388 360//360
f 389//389 363//363 358//358
f 386//386 389//389 358//358
f 390//390 361//361 362//362
f 364//364 390//390 362//362
f 391//391 365//365 363//363
f 389//389 391//391 363//363
f 392//392 390//390 364//364
f 366//366 392//392 364//364
f 391//391 367//367 365//365
f 393//393 392//392 366//366
f 368//368 393//393 366//366
f 394//394 393//393 368//368
f 341//341 394//394 368//368
f 395//395 394//394 341//341
f 355//355 395//395 341//341
f 396//396 370//370 356//356
f 371//371 397//397 383//383
f 396//396 384//384 370//370
f 385//385 397//397 371//371
f 398//398 372//372 384//384
f 373//373 399//399 385//385
f 400//400 374//374 372//372
f 398//398 400//400 372//372
f 401//401 399//399 373//373
f 375//375 401//401 373//373
f 400//400 376//376 374//374
f 377//377 401//401 375//375
f 402//402 378//378 376//376
f 379//379 403//403 377//377
f 404//404 380//380 378//378
f 402//402 404//404 378//378
f 405//405 403//403 379//379
f 381//381 405//405 379//379
f 361//361 406//406 388//388
f 390//390 406//406 361//361
f 407//407 367//367 391//391
f 407//407 382//382 367//367
f 408//408 354//354 369//369
f 408//408 409//409 354//354
f 383//383 395//395 355//355
f 409//409 356//356 354//354
f 409//409 396//396 356//356
f 410//410 376//376 400//400
f 377//377 411//411 401//401
f 410//410 412//412 376//376
f 403//403 411//411 377//377
f 412//412 402//402 376//376
f 405//405 413//413 403//403
f 408//408 369//369 382//382
f 414//414 398//398 384//384
f 399//399 415//415 385//385
f 414//414 416//416 398//398
f 417//417 415//415 399//399
f 416//416 400//400 398//398
f 401//401 417//417 399//399
f 416//416 410//410 400//400
f 411//411 417//417 401//401
f 418//418 386//386 387//387
f 419//419 418//418 387//387
f 406//406 420//420 388//388
f 421//421 389//389 386//386
f 418//418 421//421 386//386
f 390//390 422//422 406//406
f 423//423 391//391 389//389
f 421//421 423//423 389//389
f 424//424 422//422 390//390
f 392//392 424//424 390//390
f 423//423 407//407 391//391
f 425//425 424//424 392//392
f 393//393 425//425 392//392
f 426//426 382//382 407//407
f 394//394 425//425 393//393
f 395//395 427//427 394//394
f 426//426 408//408 382//382
f 428//428 409//409 408//408
f 430//430 429//429 395//395
f 383//383 430//430 395//395
f 397//397 430//430 383//383
f 414//414 384//384 396//396
f 385//385 415//415 397//397
f 431//431 412//412 410//410
f 433//433 432//432 411//411
f 403//403 433//433 411//411
f 431//431 434//434 412//412
f 434//434 402//402 412//412
f 413//413 433//433 403//403
f 435//435 404//404 402//402
f 434//434 435//435 402//402
f 405//405 436//436 413//413
f 394//394 427//427 425//425
f 428//428 408//408 426//426
f 395//395 429//429 427//427
f 437//437 396//396 409//409
f 397//397 438//438 430//430
f 437//437 414//414 396//396
f 415//415 438//438 397//397
f 439//439 416//416 414//414
f 440//440 439//439 414//414
f 442//442 441//441 415//415
f 417//417 442//442 415//415
f 443//443 410//410 416//416
f 439//439 443//443 416//416
f 432//432 442//442 417//417
f 411//411 432//432 417//417
f 443//443 431//431 410//410
f 444//444 418//418 419//419
f 445//445 444//444 419//419
f 447//447 446//446 420//420
f 406//406 447//447 420//420
f 448//448 421//421 418//418
f 444//444 448//448 418//418
f 449//449 447//447 406//406
f 422//422 449//449 406//406
f 450//450 423//423 421//421
f 448//448 450//450 421//421
f 451//451 449//449 422//422
f 424//424 451//451 422//422
f 452//452 407//407 423//423
f 450//450 452//452 423//423
f 453//453 451//451 424//424
f 425//425 453//453 424//424
f 452//452 426//426 407//407
f 427//427 453//453 425//425
f 454//454 428//428 426//426
f 455//455 409//409 428//428
f 456//456 455//455 428//428
f 458//458 457//457 429//429
f 430//430 458//458 429//429
f 455//455 437//437 409//409
f 438//438 458//458 430//430
f 440//440 414//414 437//437
f 415//415 441//441 438//438
f 459//459 431//431 443//443
f 433//433 460//460 432//432
f 461//461 434//434 431//431
f 459//459 461//461 431//431
f 462//462 460//460 433//433
f 413//413 462//462 433//433
f 463//463 435//435 434//434
f 461//461 463//463 434//434
f 464//464 462//462 413//413
f 436//436 464//464 413//413
f 454//454 426//426 452//452
f 456//456 428//428 454//454
f 429//429 457//457 427//427
f 432//432 465//465 442//442
f 460//460 465//465 432//432
f 466//466 456//456 454//454
f 457//457 467//467 427//427
f 468//468 440//440 437//437
f 441//441 469//469 438//438
f 470//470 439//439 440//440
f 468//468 470//470 440//440
f 471//471 469//469 441//441
f 442//442 471//471 441//441
f 465//465 471//471 442//442
f 472//472 444//444 445//445
f 473//473 472//472 445//445
f 475//475 474//474 446//446
f 447//447 475//475 446//446
f 476//476 448//448 444//444
f 472//472 476//476 444//444
f 477//477 475//475 447//447
f 449//449 477//477 447//447
f 478//478 450//450 448//448
f 476//476 478//478 448//448
f 479//479 477//477 449//449
f 451//451 479//479 449//449
f 480//480 452//452 450//450
f 478//478 480//480 450//450
f 481//481 479//479 451//451
f 453//453 481//481 451//451
f 466//466 454//454 452//452
f 480//480 466//466 452//452
f 467//467 481//481 453//453
f 427//427 467//467 453//453
f 482//482 437//437 455//455
f 438//438 483//483 458//458
f 482//482 484//484 437//437
f 485//485 483//483 438//438
f 484//484 468//468 437//437
f 469//469 485//485 438//438
f 486//486 439//439 470//470
f 465//465 487//487 471//471
f 486//486 443//443 439//439
f 488//488 459//459 443//443
f 486//486 488//488 443//443
f 489//489 487//487 465//465
f 460//460 489//489 465//465
f 490//490 461//461 459//459
f 488//488 490//490 459//459
f 491//491 489//489 460//460
f 462//462 491//491 460//460
f 492//492 463//463 461//461
f 490//490 492//492 461//461
f 493//493 491//491 462//462
f 464//464 493//493 462//462
f 494//494 456//456 466//466
f 457//457 495//495 467//467
f 496//496 455//455 456//456
f 458//458 497//497 457//457
f 496//496 482//482 455//455
f 483//483 497//497 458//458
f 494//494 496//496 456//456
f 497//497 495//495 457//457
f 498//498 472//472 473//473
f 500//500 499//499 474//474
f 475//475 500//500 474//474
f 498//498 501//501 472//472
f 502//502 500//500 475//475
f 501//501 476//476 472//472
f 477//477 502//502 475//475
f 501//501 503//503 476//476
f 504//504 502//502 477//477
f 503//503 478//478 476//476
f 479//479 504//504 477//477
f 503//503 505//505 478//478
f 506//506 504//504 479//479
f 505//505 480//480 478//478
f 481//481 506//506 479//479
f 505//505 507//507 480//480
f 508//508 506//506 481//481
f 507//507 466//466 480//480
f 467//467 508//508 481//481
f 507//507 494//494 466//466
f 495//495 508//508 467//467
f 509//509 468//468 484//484
f 469//469 510//510 485//485
f 509//509 511//511 468//468
f 512//512 510//510 469//469
f 511//511 470//470 468//468
f 471//471 512//512 469//469
f 513//513 486//486 470//470
f 511//511 513//513 470//470
f 514//514 512//512 471//471
f 487//487 514//514 471//471
f 515//515 488//488 486//486
f 513//513 515//515 486//486
f 516//516 514//514 487//487
f 489//489 516//516 487//487
f 515//515 517//517 488//488
f 518//518 490//490 488//488
f 517//517 518//518 488//488
f 519//519 516//516 489//489
f 491//491 519//519 489//489
f 518//518 492//492 490//490
f 520//520 519//519 491//491
f 493//493 520//520 491//491
f 521//521 498//498 473//473
f 509//509 484//484 482//482
f 522//522 509//509 482//482
f 510//510 523//523 483//483
f 485//485 510//510 483//483
f 524//524 492//492 518//518
f 525//525 500//500 502//502
f 526//526 503//503 501//501
f 504//504 525//525 502//502
f 526//526 527//527 503//503
f 528//528 525//525 504//504
f 527//527 505//505 503//503
f 506//506 528//528 504//504
f 527//527 529//529 505//505
f 530//530 528//528 506//506
f 529//529 507//507 505//505
f 508//508 530//530 506//506
f 529//529 531//531 507//507
f 532//532 530//530 508//508
f 531//531 494//494 507//507
f 495//495 532//532 508//508
f 533//533 496//496 494//494
f 497//497 534//534 495//495
f 522//522 482//482 496//496
f 533//533 522//522 496//496
f 523//523 534//534 497//497
f 483//483 523//523 497//497
f 535//535 511//511 509//509
f 536//536 498//498 521//521
f 537//537 494//494 531//531
f 495//495 538//538 532//532
f 537//537 533//533 494//494
f 534//534 538//538 495//495
f 535//535 509//509 522//522
f 539//539 524//524 518//518
f 540//540 498//498 536//536
f 542//542 541//541 499//499
f 500//500 542//542 499//499
f 540//540 501//501 498//498
f 543//543 542//542 500//500
f 544//544 526//526 501//501
f 540//540 544//544 501//501
f 525//525 543//543 500//500
f 545//545 543//543 525//525
f 546//546 527//527 526//526
f 544//544 546//546 526//526
f 528//528 545//545 525//525
f 547//547 545//545 528//528
f 546//546 529//529 527//527
f 530//530 547//547 528//528
f 548//548 511//511 535//535
f 512//512 549//549 510//510
f 548//548 550//550 511//511
f 551//551 549//549 512//512
f 550//550 513//513 511//511
f 514//514 551//551 512//512
f 550//550 552//552 513//513
f 553//553 551//551 514//514
f 552//552 515//515 513//513
f 516//516 553//553 514//514
f 554//554 517//517 515//515
f 552//552 554//554 515//515
f 555//555 553//553 516//516
f 554//554 518//518 517//517
f 556//556 555//555 516//516
f 519//519 556//556 516//516
f 554//554 557//557 518//518
f 557//557 539//539 518//518
f 558//558 556//556 519//519
f 520//520 558//558 519//519
f 559//559 535//535 522//522
f 510//510 560//560 523//523
f 559//559 548//548 535//535
f 549//549 560//560 510//510
f 561//561 540//540 536//536
f 542//542 562//562 541//541
f 561//561 563//563 540//540
f 563//563 544//544 540//540
f 564//564 542//542 543//543
f 563//563 565//565 544//544
f 545//545 564//564 543//543
f 565//565 546//546 544//544
f 547//547 564//564 545//545
f 565//565 566//566 546//546
f 566//566 529//529 546//546
f 530//530 567//567 547//547
f 566//566 568//568 529//529
f 568//568 531//531 529//529
f 569//569 567//567 530//530
f 532//532 569//569 530//530
f 568//568 537//537 531//531
f 538//538 569//569 532//532
f 570//570 533//533 537//537
f 534//534 571//571 538//538
f 572//572 522//522 533//533
f 570//570 572//572 533//533
f 573//573 571//571 534//534
f 523//523 573//573 534//534
f 572//572 559//559 522//522
f 560//560 573//573 523//523
f 574//574 548//548 559//559
f 549//549 575//575 560//560
f 576//576 550//550 548//548
f 574//574 576//576 548//548
f 577//577 575//575 549//549
f 551//551 577//577 549//549
f 578//578 552//552 550//550
f 576//576 578//578 550//550
f 579//579 577//577 551//551
f 553//553 579//579 551//551
f 555//555 579//579 553//553
f 580//580 554//554 552//552
f 578//578 580//580 552//552
f 580//580 557//557 554//554
f 556//556 581//581 555//555
f 582//582 581//581 556//556
f 558//558 582//582 556//556
f 583//583 561//561 536//536
f 542//542 584//584 562//562
f 564//564 584//584 542//542
f 547//547 585//585 564//564
f 567//567 585//585 547//547
f 586//586 537//537 568//568
f 538//538 587//587 569//569
f 586//586 570//570 537//537
f 571//571 587//587 538//538
f 555//555 588//588 579//579
f 589//589 557//557 580//580
f 581//581 588//588 555//555
f 590//590 539//539 557//557
f 589//589 590//590 557//557
f 591//591 568//568 566//566
f 591//591 592//592 568//568
f 592//592 586//586 568//568
f 586//586 572//572 570//570
f 573//573 587//587 571//571
f 593//593 561//561 583//583
f 594//594 593//593 583//583
f 584//584 595//595 562//562
f 593//593 563//563 561//561
f 593//593 596//596 563//563
f 564//564 597//597 584//584
f 596//596 565//565 563//563
f 596//596 598//598 565//565
f 585//585 597//597 564//564
f 598//598 566//566 565//565
f 598//598 591//591 566//566
f 567//567 599//599 585//585
f 569//569 599//599 567//567
f 600//600 559//559 572//572
f 560//560 601//601 573//573
f 602//602 574//574 559//559
f 600//600 602//602 559//559
f 575//575 601//601 560//560
f 603//603 601//601 575//575
f 604//604 576//576 574//574
f 602//602 604//604 574//574
f 577//577 603//603 575//575
f 605//605 603//603 577//577
f 606//606 578//578 576//576
f 604//604 606//606 576//576
f 579//579 605//605 577//577
f 606//606 580//580 578//578
f 588//588 605//605 579//579
f 607//607 589//589 580//580
f 581//581 608//608 588//588
f 609//609 590//590 589//589
f 607//607 609//609 589//589
f 610//610 608//608 581//581
f 582//582 610//610 581//581
f 611//611 593//593 594//594
f 584//584 612//612 595//595
f 611//611 596//596 593//593
f 597//597 612//612 584//584
f 585//585 613//613 597//597
f 599//599 613//613 585//585
f 614//614 592//592 591//591
f 569//569 615//615 599//599
f 587//587 615//615 569//569
f 616//616 572//572 586//586
f 617//617 616//616 586//586
f 619//619 618//618 587//587
f 573//573 619//619 587//587
f 616//616 600//600 572//572
f 601//601 619//619 573//573
f 588//588 620//620 605//605
f 606//606 621//621 580//580
f 621//621 607//607 580//580
f 608//608 620//620 588//588
f 622//622 611//611 594//594
f 614//614 591//591 598//598
f 599//599 623//623 613//613
f 615//615 623//623 599//599
f 617//617 586//586 592//592
f 587//587 618//618 615//615
f 624//624 600//600 616//616
f 601//601 625//625 619//619
f 624//624 602//602 600//600
f 603//603 625//625 601//601
f 626//626 609//609 607//607
f 627//627 611//611 622//622
f 629//629 628//628 595//595
f 612//612 629//629 595//595
f 630//630 596//596 611//611
f 627//627 630//630 611//611
f 631//631 629//629 612//612
f 597//597 631//631 612//612
f 632//632 598//598 596//596
f 630//630 632//632 596//596
f 633//633 631//631 597//597
f 613//613 633//633 597//597
f 632//632 614//614 598//598
f 623//623 633//633 613//613
f 634//634 592//592 614//614
f 634//634 617//617 592//592
f 635//635 616//616 617//617
f 637//637 636//636 618//618
f 619//619 637//637 618//618
f 635//635 624//624 616//616
f 625//625 637//637 619//619
f 638//638 602//602 624//624
f 638//638 639//639 602//602
f 603//603 640//640 625//625
f 639//639 604//604 602//602
f 639//639 641//641 604//604
f 642//642 640//640 603//603
f 605//605 642//642 603//603
f 641//641 606//606 604//604
f 641//641 643//643 606//606
f 620//620 642//642 605//605
f 643//643 621//621 606//606
f 644//644 642//642 620//620
f 608//608 644//644 620//620
f 621//621 626//626 607//607
f 645//645 644//644 608//608
f 610//610 645//645 608//608
f 646//646 614//614 632//632
f 646//646 634//634 614//614
f 647//647 617//617 634//634
f 618//618 636//636 615//615
f 647//647 635//635 617//617
f 648//648 637//637 625//625
f 640//640 648//648 625//625
f 643//643 649//649 621//621
f 649//649 626//626 621//621
f 651//651 650//650 627//627
f 629//629 652//652 628//628
f 650//650 630//630 627//627
f 653//653 652//652 629//629
f 650//650 654//654 630//630
f 631//631 653//653 629//629
f 654//654 632//632 630//630
f 655//655 653//653 631//631
f 654//654 646//646 632//632
f 633//633 655//655 631//631
f 656//656 655//655 633//633
f 623//623 656//656 633//633
f 657//657 634//634 646//646
f 657//657 647//647 634//634
f 615//615 656//656 623//623
f 636//636 656//656 615//615
f 637//637 658//658 636//636
f 659//659 624//624 635//635
f 660//660 639//639 638//638
f 642//642 661//661 640//640
f 660//660 641//641 639//639
f 662//662 643//643 641//641
f 660//660 662//662 641//641
f 663//663 661//661 642//642
f 644//644 663//663 642//642
f 664//664 649//649 643//643
f 662//662 664//664 643//643
f 645//645 663//663 644//644
f 665//665 647//647 657//657
f 636//636 666//666 656//656
f 665//665 635//635 647//647
f 658//658 666//666 636//636
f 665//665 659//659 635//635
f 667//667 624//624 659//659
f 668//668 658//658 637//637
f 648//648 668//668 637//637
f 667//667 638//638 624//624
f 640//640 668//668 648//648
f 667//667 660//660 638//638
f 669//669 668//668 640//640
f 661//661 669//669 640//640
f 670//670 661//661 663//663
f 671//671 650//650 651//651
f 673//673 672//672 652//652
f 653//653 673//673 652//652
f 674//674 654//654 650//650
f 671//671 674//674 650//650
f 655//655 673//673 653//653
f 657//657 646//646 654//654
f 674//674 657//657 654//654
f 675//675 673//673 655//655
f 656//656 675//675 655//655
f 666//666 675//675 656//656
f 658//658 676//676 666//666
f 677//677 660//660 667//667
f 661//661 678//678 669//669
f 679//679 662//662 660//660
f 677//677 679//679 660//660
f 680//680 664//664 662//662
f 679//679 680//680 662//662
f 670//670 678//678 661//661
f 673//673 681//681 672//672
f 682//682 674//674 671//671
f 683//683 681//681 673//673
f 675//675 683//683 673//673
f 674//674 684//684 657//657
f 666//666 683//683 675//675
f 684//684 665//665 657//657
f 684//684 685//685 665//665
f 685//685 659//659 665//665
f 685//685 686//686 659//659
f 687//687 676//676 658//658
f 686//686 667//667 659//659
f 668//668 687//687 658//658
f 686//686 677//677 667//667
f 669//669 687//687 668//668
f 688//688 678//678 670//670
f 689//689 674//674 682//682
f 683//683 690//690 681//681
f 689//689 691//691 674//674
f 692//692 690//690 683//683
f 691//691 684//684 674//674
f 666//666 692//692 683//683
f 691//691 693//693 684//684
f 694//694 692//692 666//666
f 693//693 685//685 684//684
f 676//676 694//694 666//666
f 686//686 695//695 677//677
f 696//696 687//687 669//669
f 695//695 679//679 677//677
f 678//678 696//696 669//669
f 695//695 697//697 679//679
f 698//698 696//696 678//678
f 697//697 699//699 679//679
f 700//700 698//698 678//678
f 699//699 680//680 679//679
f 688//688 700//700 678//678
f 693//693 691//691 689//689
f 692//692 694//694 690//690
f 701//701 686//686 685//685
f 693//693 701//701 685//685
f 702//702 694//694 676//676
f 687//687 702//702 676//676
f 701//701 695//695 686//686
f 696//696 702//702 687//687
f 701//701 697//697 695//695
f 698//698 702//702 696//696
f 701//701 699//699 697//697
f 700//700 702//702 698//698
f 5//5 3//3 1//1
f 4//4 5//5 1//1
f 42//42 38//38 37//37
f 41//41 42//42 37//37
f 44//44 43//43 3//3
f 5//5 44//44 3//3
f 54//54 42//42 41//41
f 53//53 54//54 41//41
f 57//57 56//56 43//43
f 44//44 57//57 43//43
f 68//68 54//54 53//53
f 67//67 68//68 53//53
f 71//71 70//70 56//56
f 57//57 71//71 56//56
f 74//74 68//68 67//67
f 73//73 74//74 67//67
f 76//76 75//75 70//70
f 71//71 76//76 70//70
f 84//84 74//74 73//73
f 83//83 84//84 73//73
f 94//94 93//93 75//75
f 76//76 94//94 75//75
f 98//98 84//84 83//83
f 97//97 98//98 83//83
f 94//94 100//100 93//93
f 111//111 98//98 97//97
f 112//112 111//111 97//97
f 94//94 101//101 100//100
f 131//131 111//111 112//112
f 101//101 116//116 100//100
f 122//122 131//131 112//112
f 101//101 123//123 116//116
f 130//130 131//131 122//122
f 141//141 136//136 116//116
f 123//123 141//141 116//116
f 138//138 130//130 122//122
f 135//135 138//138 122//122
f 148//148 147//147 136//136
f 141//141 148//148 136//136
f 152//152 138//138 135//135
f 151//151 152//152 135//135
f 148//148 166//166 147//147
f 166//166 161//161 147//147
f 165//165 152//152 151//151
f 159//159 152//152 165//165
f 166//166 170//170 161//161
f 170//170 173//173 161//161
f 170//170 184//184 173//173
f 186//186 159//159 165//165
f 189//189 186//186 165//165
f 201//201 200//200 173//173
f 184//184 201//201 173//173
f 199//199 186//186 189//189
f 222//222 199//199 189//189
f 201//201 210//210 200//200
f 221//221 199//199 222//222
f 210//210 212//212 200//200
f 232//232 231//231 212//212
f 210//210 232//232 212//212
f 241//241 221//221 222//222
f 240//240 241//241 222//222
f 232//232 242//242 231//231
f 253//253 241//241 240//240
f 252//252 253//253 240//240
f 256//256 255//255 231//231
f 242//242 256//256 231//231
f 290//290 253//253 252//252
f 289//289 290//290 252//252
f 293//293 292//292 255//255
f 256//256 293//293 255//255
f 310//310 290//290 289//289
f 309//309 310//310 289//289
f 293//293 312//312 292//292
f 293//293 325//325 312//312
f 329//329 310//310 309//309
f 328//328 329//329 309//309
f 332//332 331//331 312//312
f 325//325 332//332 312//312
f 353//353 329//329 328//328
f 352//352 353//353 328//328
f 360//360 359//359 331//331
f 332//332 360//360 331//331
f 381//381 353//353 352//352
f 380//380 381//381 352//352
f 388//388 387//387 359//359
f 360//360 388//388 359//359
f 405//405 381//381 380//380
f 404//404 405//405 380//380
f 420//420 419//419 387//387
f 388//388 420//420 387//387
f 436//436 405//405 404//404
f 435//435 436//436 404//404
f 446//446 445//445 419//419
f 420//420 446//446 419//419
f 464//464 436//436 435//435
f 463//463 464//464 435//435
f 474//474 473//473 445//445
f 446//446 474//474 445//445
f 493//493 464//464 463//463
f 492//492 493//493 463//463
f 474//474 499//499 473//473
f 520//520 493//493 492//492
f 499//499 521//521 473//473
f 524//524 520//520 492//492
f 499//499 536//536 521//521
f 539//539 520//520 524//524
f 499//499 541//541 536//536
f 558//558 520//520 539//539
f 541//541 562//562 536//536
f 582//582 558//558 539//539
f 562//562 583//583 536//536
f 590//590 582//582 539//539
f 595//595 594//594 583//583
f 562//562 595//595 583//583
f 610//610 582//582 590//590
f 609//609 610//610 590//590
f 595//595 622//622 594//594
f 626//626 610//610 609//609
f 595//595 628//628 622//622
f 645//645 610//610 626//626
f 628//628 627//627 622//622
f 649//649 645//645 626//626
f 652//652 651//651 627//627
f 628//628 652//652 627//627
f 663//663 645//645 649//649
f 664//664 663//663 649//649
f 670//670 663//663 664//664
f 672//672 671//671 651//651
f 652//652 672//672 651//651
f 680//680 670//670 664//664
f 681//681 682//682 671//671
f 672//672 681//681 671//671
f 688//688 670//670 680//680
f 690//690 689//689 682//682
f 681//681 690//690 682//682
f 700//700 688//688 680//680
f 699//699 700//700 680//680
f 694//694 693//693 689//689
f 690//690 694//694 689//689
f 702//702 700//700 699//699
f 701//701 702//702 699//699
f 10//10 4//4 1//1
f 7//7 10//10 1//1
f 14//14 10//10 7//7
f 11//11 14//14 7//7
f 18//18 14//14 11//11
f 15//15 18//18 11//11
f 24//24 18//18 15//15
f 23//23 24//24 15//15
f 28//28 24//24 23//23
f 25//25 28//28 23//23
f 32//32 28//28 25//25
f 29//29 32//32 25//25
f 38//38 32//32 29//29
f 37//37 38//38 29//29
f 702//702 701//701 693//693
f 694//694 702//702 693//693
