v 0.569 1.374 -0.393
v 0.651 1.187 -0.398
v 0.733 0.999 -0.394
v 0.045 1.603 -0.431
v 0.05 1.568 -0.438
v 0.233 1.545 -0.43
v -0.137 1.533 -0.44
v 0.415 1.476 -0.414
v 0.295 1.444 -0.44
v 0.194 1.452 -0.45
v 0.89 -0.184 -0.36
v 0.909 0.032 -0.36
v 0.823 -0.094 -0.401
v 0.745 0.642 -0.424
v 0.755 0.503 -0.428
v 0.806 0.586 -0.403
v 0.753 -0.334 -0.415
v 0.667 -0.439 -0.436
v 0.702 -0.536 -0.415
v 0.632 -0.728 -0.415
v 0.599 -0.648 -0.435
v -0.916 0.027 -0.355
v -0.821 0.059 -0.407
v -0.881 0.064 -0.378
v -0.874 0.158 -0.383
v -0.816 -0.062 -0.406
v -0.748 -0.297 -0.42
v -0.808 -0.207 -0.401
v -0.886 -0.177 -0.363
v 0.808 0.809 -0.383
v 0.74 0.734 -0.419
v 0.74 0.833 -0.41
v 0.378 -0.401 -0.499
v 0.443 -0.315 -0.494
v 0.373 -0.299 -0.505
v 0.272 -0.202 -0.521
v 0.209 -0.285 -0.522
v 0.272 -0.285 -0.517
v -0.496 -0.901 -0.427
v -0.579 -0.783 -0.423
v -0.607 -0.901 -0.396
v -0.587 -0.979 -0.387
v 0.662 -0.527 -0.429
v 0.612 -0.428 -0.452
v 0.607 -0.323 -0.461
v 0.833 -0.189 -0.391
v 0.74 -0.293 -0.423
v -0.665 -0.181 -0.453
v -0.665 -0.323 -0.445
v -0.564 -0.312 -0.472
v -0.891 -0.078 -0.367
v -0.718 -0.197 -0.436
v 0.365 1.428 -0.432
v 0.584 1.215 -0.416
v 0.69 0.96 -0.416
v 0.685 0.833 -0.43
v 0.365 -0.21 -0.51
v 0.333 -0.21 -0.514
v 0.277 -0.412 -0.51
v -0.654 -0.703 -0.411
v -0.642 -0.651 -0.422
v -0.709 -0.504 -0.416
v -0.652 -0.514 -0.433
v -0.325 -0.415 -0.505
v -0.274 -0.549 -0.501
v -0.267 -0.401 -0.511
v 0.506 -0.191 -0.49
v 0.599 -0.175 -0.471
v 0.745 -0.089 -0.432
v 0.69 -0.073 -0.45
v 0.685 -0.167 -0.448
v 0.589 -0.06 -0.477
v 0.433 0.266 -0.509
v 0.529 0.14 -0.493
v 0.534 0.282 -0.492
v 0.755 0.032 -0.432
v 0.921 0.25 -0.355
v 0.818 0.177 -0.41
v 0.443 -0.861 -0.444
v 0.534 -0.783 -0.435
v 0.433 -0.767 -0.458
v 0.355 -0.753 -0.472
v 0.35 -0.869 -0.459
v 0.511 -0.412 -0.476
v 0.521 -0.517 -0.466
v 0.373 -0.546 -0.489
v 0.529 -0.665 -0.45
v 0.607 -0.517 -0.446
v 0.506 -0.326 -0.483
v 0.677 -0.31 -0.442
v 0.74 -0.172 -0.43
v -0.66 -0.425 -0.439
v 0.428 1.414 -0.423
v 0.534 1.315 -0.414
v 0.433 1.331 -0.435
v 0.531 1.221 -0.429
v 0.677 0.747 -0.439
v 0.451 0.056 -0.506
v 0.521 0.04 -0.493
v 0.138 -0.293 -0.526
v 0.201 -0.428 -0.515
v -0.491 -0.296 -0.487
v -0.425 -0.431 -0.49
v -0.431 -0.285 -0.498
v -0.72 0.045 -0.444
v 0.038 -0.167 -0.534
v 0.038 -0.31 -0.528
v 0.295 -0.885 -0.464
v 0.35 -1.017 -0.438
v -0.025 -0.877 -0.482
v -0.018 -0.979 -0.469
v 0 -0.866 -0.484
v -0.118 -0.99 -0.465
v -0.118 -0.866 -0.481
v -0.504 -0.77 -0.444
v 0.194 -0.554 -0.507
v 0.141 -0.541 -0.511
v 0.131 -0.63 -0.504
v 0.063 -0.893 -0.48
v 0.053 -0.979 -0.469
v 0.544 -0.913 -0.413
v -0.486 -0.99 -0.415
v -0.184 -0.533 -0.509
v 0.065 -0.783 -0.492
v 0.043 -0.439 -0.521
v 0 -0.523 -0.516
v 0.053 -0.525 -0.515
v -0.033 -0.425 -0.522
v -0.04 -0.514 -0.516
v 0.763 0.177 -0.431
v 0.677 0.164 -0.459
v 0.667 0.293 -0.461
v 0.589 0.293 -0.48
v 0.806 0.362 -0.413
v 0.818 0.048 -0.408
v 0.433 -0.401 -0.491
v 0.365 -0.667 -0.48
v 0.295 -0.654 -0.49
v 0.287 -0.557 -0.499
v 0.428 -0.53 -0.482
v -0.559 -0.439 -0.464
v 0.584 1.094 -0.432
v 0.589 0.949 -0.447
v 0.667 0.637 -0.449
v 0.662 0.489 -0.458
v 0.443 0.14 -0.508
v 0.35 0.064 -0.52
v 0.456 -0.057 -0.503
v 0.144 -0.439 -0.518
v -0.73 0.137 -0.442
v -0.715 -0.051 -0.443
v 0.378 0.607 -0.509
v 0.375 0.521 -0.512
v 0.436 0.599 -0.501
v 0.116 0.174 -0.538
v 0.123 0.282 -0.537
v 0.065 0.293 -0.539
v 0.199 1.315 -0.469
v -0.035 -0.788 -0.492
v -0.408 -0.635 -0.476
v -0.418 -0.552 -0.482
v -0.509 -0.63 -0.459
v -0.509 -0.538 -0.467
v -0.403 -0.753 -0.465
v 0.06 -0.635 -0.506
v 0.123 -0.767 -0.492
v 0.209 -0.899 -0.471
v 0.287 -1.017 -0.447
v 0.451 -1.003 -0.421
v -0.171 -0.861 -0.479
v -0.181 -1.006 -0.459
v -0.262 -0.872 -0.47
v -0.169 -0.764 -0.49
v -0.405 -0.901 -0.446
v -0.327 -0.557 -0.494
v -0.333 -0.21 -0.514
v -0.33 -0.285 -0.511
v -0.257 -0.296 -0.518
v -0.249 -0.207 -0.522
v -0.191 -0.401 -0.517
v -0.103 -0.665 -0.502
v -0.093 -0.519 -0.514
v 0.584 0.027 -0.48
v 0.763 0.368 -0.429
v 0.768 0.282 -0.429
v 0.194 -0.638 -0.5
v 0.3 -0.745 -0.48
v 0.428 -0.673 -0.469
v -0.561 -0.522 -0.457
v -0.501 -0.441 -0.476
v 0.529 0.408 -0.491
v 0.599 0.395 -0.476
v 0.511 0.607 -0.488
v 0.443 0.739 -0.493
v 0.506 0.753 -0.481
v 0.607 0.758 -0.458
v 0.511 -0.051 -0.493
v 0.451 -0.205 -0.499
v -0.639 0.145 -0.469
v -0.909 0.247 -0.363
v -0.871 0.252 -0.385
v -0.799 0.379 -0.415
v -0.587 0.161 -0.481
v -0.587 0.021 -0.48
v -0.486 0.027 -0.5
v -0.431 -0.183 -0.503
v -0.738 0.277 -0.44
v -0.642 0.398 -0.466
v -0.118 0.137 -0.538
v -0.179 0.056 -0.534
v -0.118 0.043 -0.537
v 0.355 -0.073 -0.516
v 0.219 -0.186 -0.526
v 0.045 -0.073 -0.536
v -0.013 -0.057 -0.537
v 0.217 0.045 -0.532
v 0.209 0.18 -0.533
v 0.365 0.4 -0.517
v 0.358 0.255 -0.519
v 0.295 0.384 -0.525
v 0.3 0.255 -0.526
v 0.453 0.871 -0.482
v 0.506 0.863 -0.473
v 0.365 0.871 -0.496
v 0.133 1.447 -0.455
v 0.272 0.715 -0.515
v 0.201 0.637 -0.524
v 0.277 0.621 -0.519
v -0.274 -0.667 -0.491
v -0.335 -0.651 -0.485
v -0.345 -0.745 -0.475
v -0.269 -0.751 -0.483
v -0.174 -0.673 -0.498
v -0.111 -0.78 -0.491
v -0.04 -0.651 -0.505
v 0.116 -0.904 -0.477
v 0.116 -0.993 -0.465
v -0.018 0.027 -0.539
v -0.113 -0.051 -0.535
v -0.196 -0.312 -0.522
v -0.091 -0.409 -0.522
v 0.584 0.148 -0.482
v 0.685 0.021 -0.455
v 0.662 0.379 -0.461
v 0.823 0.263 -0.407
v 0.199 -0.753 -0.489
v -0.569 -0.638 -0.444
v 0.428 0.408 -0.508
v 0.612 0.621 -0.465
v 0.607 0.484 -0.472
v 0.599 0.847 -0.453
v -0.647 0.029 -0.465
v -0.34 -0.199 -0.514
v -0.347 -0.089 -0.517
v -0.247 -0.076 -0.527
v -0.423 -0.094 -0.507
v -0.413 0.043 -0.511
v -0.481 -0.084 -0.498
v -0.574 -0.17 -0.477
v -0.418 0.516 -0.507
v -0.509 0.5 -0.492
v -0.408 0.371 -0.512
v -0.496 0.174 -0.499
v -0.504 0.285 -0.498
v -0.405 0.18 -0.513
v -0.813 0.261 -0.412
v -0.171 0.142 -0.535
v 0.063 0.164 -0.539
v -0.028 0.148 -0.54
v 0.279 -0.089 -0.524
v 0.131 -0.172 -0.531
v 0 -0.054 -0.537
v 0.116 0.029 -0.537
v 0.199 0.266 -0.534
v 0.194 0.371 -0.533
v 0.297 0.169 -0.526
v 0.131 0.371 -0.536
v 0.194 0.516 -0.529
v 0.043 0.634 -0.531
v -0.033 0.618 -0.532
v 0.05 0.489 -0.536
v -0.32 1.465 -0.433
v -0.274 1.43 -0.445
v -0.174 1.417 -0.457
v -0.118 1.221 -0.485
v -0.118 1.075 -0.5
v -0.018 1.092 -0.501
v -0.113 0.949 -0.511
v -0.179 1.065 -0.498
v -0.189 0.962 -0.506
v -0.247 0.979 -0.5
v -0.252 1.065 -0.492
v -0.169 1.331 -0.469
v -0.171 1.21 -0.484
v -0.352 1.075 -0.48
v -0.347 0.989 -0.489
v 0.222 0.987 -0.502
v 0.272 0.858 -0.507
v 0.279 0.987 -0.497
v 0.355 0.976 -0.489
v 0.373 0.723 -0.504
v 0.521 1.078 -0.45
v 0.456 0.96 -0.475
v 0.451 1.065 -0.466
v 0.443 1.213 -0.45
v -0.028 1.218 -0.488
v 0.209 0.72 -0.52
v 0.144 0.642 -0.528
v 0.138 0.734 -0.523
v -0.096 0.753 -0.524
v -0.015 0.85 -0.52
v -0.106 0.866 -0.517
v -0.196 0.737 -0.52
v 0.128 0.831 -0.518
v 0.038 0.75 -0.525
v 0.121 0.976 -0.509
v 0.045 0.957 -0.512
v 0.038 0.836 -0.521
v 0 0.978 -0.511
v -0.352 -1.017 -0.437
v -0.352 -0.888 -0.456
v -0.252 -1.017 -0.451
v -0.196 -0.207 -0.526
v 0.428 0.508 -0.505
v -0.657 -0.057 -0.46
v -0.352 0.056 -0.519
v -0.483 -0.17 -0.494
v -0.637 0.29 -0.469
v -0.509 0.371 -0.495
v -0.345 0.255 -0.521
v -0.403 0.269 -0.514
v -0.66 0.616 -0.453
v -0.723 0.54 -0.437
v -0.652 0.486 -0.46
v -0.678 0.967 -0.419
v -0.705 0.756 -0.43
v -0.665 0.852 -0.435
v -0.582 0.957 -0.448
v -0.574 0.836 -0.46
v -0.431 0.839 -0.488
v -0.481 0.973 -0.469
v -0.483 0.831 -0.48
v -0.564 0.753 -0.469
v -0.821 0.142 -0.409
v -0.091 0.605 -0.531
v 0.121 -0.086 -0.534
v 0.053 0.021 -0.538
v 0.287 0.059 -0.526
v 0.35 0.153 -0.52
v 0.287 0.527 -0.522
v -0.345 1.328 -0.451
v -0.262 1.194 -0.478
v -0.352 1.18 -0.469
v -0.423 0.987 -0.478
v 0.514 0.949 -0.464
v 0.35 1.196 -0.467
v -0.04 1.417 -0.463
v 0.063 1.204 -0.489
v -0.249 0.868 -0.508
v -0.257 0.723 -0.516
v 0.219 0.841 -0.512
v 0.141 0.503 -0.533
v -0.023 0.758 -0.525
v 0.055 1.102 -0.5
v 0.116 1.188 -0.489
v -0.013 0.949 -0.513
v -0.189 -0.06 -0.531
v -0.096 -0.323 -0.526
v 0.521 0.492 -0.49
v -0.582 -0.07 -0.478
v -0.262 0.156 -0.529
v -0.352 0.172 -0.52
v -0.252 0.064 -0.529
v -0.431 0.723 -0.496
v -0.33 0.715 -0.509
v -0.425 0.637 -0.501
v -0.561 0.486 -0.482
v -0.579 0.295 -0.482
v -0.665 0.758 -0.442
v -0.559 0.632 -0.477
v -0.269 0.255 -0.528
v -0.335 0.382 -0.52
v 0.222 -0.094 -0.528
v 0.24 0.478 -0.527
v -0.403 1.312 -0.444
v -0.445 1.312 -0.436
v -0.269 1.336 -0.459
v -0.486 1.102 -0.455
v -0.562 1.14 -0.433
v 0.358 1.336 -0.448
v 0.35 1.065 -0.481
v 0.297 1.183 -0.476
v -0.111 1.317 -0.474
v -0.101 1.409 -0.462
v 0.065 1.293 -0.479
v -0.196 0.874 -0.512
v -0.34 0.855 -0.5
v 0.116 1.102 -0.498
v -0.106 -0.194 -0.531
v -0.491 0.737 -0.485
v -0.569 0.382 -0.483
v -0.501 0.642 -0.488
v 0.06 0.382 -0.538
v -0.04 0.398 -0.538
v -0.035 0.293 -0.539
v -0.04 0.484 -0.536
v -0.325 0.624 -0.514
v -0.267 0.607 -0.521
v -0.327 0.524 -0.518
v -0.191 0.599 -0.527
v -0.413 1.092 -0.469
v 0.3 1.328 -0.457
v 0.206 1.178 -0.485
v 0.123 1.299 -0.476
v 0.06 1.43 -0.46
v -0.035 1.301 -0.478
v -0.025 -0.323 -0.527
v 0 0.259 -0.54
v -0.111 0.279 -0.538
v -0.274 0.398 -0.526
v -0.184 0.511 -0.53
v -0.405 1.18 -0.461
v 0.217 1.089 -0.493
v -0.015 -0.178 -0.534
v -0.169 0.263 -0.535
v -0.174 0.408 -0.533
v -0.101 0.408 -0.536
v -0.24 0.478 -0.527
v 0.287 1.073 -0.488
v -0.093 0.495 -0.535
v -0.274 0.524 -0.523
f 1 2 3
f 4 5 6
f 4 7 5
f 8 6 9
f 6 10 9
f 11 12 13
f 14 15 16
f 17 18 19
f 20 19 21
f 22 23 24
f 22 24 25
f 22 26 23
f 27 28 29
f 29 28 26
f 30 31 16
f 14 16 31
f 30 3 32
f 30 32 31
f 33 34 35
f 36 37 38
f 39 40 41
f 39 41 42
f 19 43 21
f 19 18 43
f 44 18 45
f 11 46 17
f 17 46 47
f 11 13 46
f 48 49 50
f 22 29 51
f 22 51 26
f 29 26 51
f 27 52 28
f 27 49 52
f 48 52 49
f 26 28 52
f 8 9 53
f 1 54 2
f 3 55 32
f 56 32 55
f 35 57 58
f 35 58 38
f 36 38 58
f 37 59 38
f 33 35 59
f 35 38 59
f 60 61 62
f 63 62 61
f 64 65 66
f 67 45 68
f 69 70 71
f 71 70 68
f 72 68 70
f 73 74 75
f 69 13 76
f 69 76 70
f 77 78 12
f 79 80 81
f 82 83 81
f 79 81 83
f 44 84 85
f 44 45 84
f 33 59 86
f 21 85 87
f 80 87 81
f 20 21 87
f 20 87 80
f 44 85 88
f 44 88 18
f 18 88 43
f 21 43 88
f 21 88 85
f 67 89 45
f 45 89 84
f 71 90 47
f 71 68 90
f 45 90 68
f 17 47 90
f 17 90 18
f 18 90 45
f 69 91 13
f 13 91 46
f 69 71 91
f 71 47 91
f 47 46 91
f 49 92 50
f 63 92 62
f 27 92 49
f 8 53 93
f 1 8 93
f 1 94 54
f 1 93 94
f 95 94 93
f 54 94 96
f 56 97 32
f 31 32 97
f 74 98 99
f 37 100 101
f 37 101 59
f 102 103 104
f 64 104 103
f 23 26 105
f 100 106 107
f 108 109 83
f 110 111 112
f 110 113 111
f 110 114 113
f 39 115 40
f 116 117 118
f 112 111 119
f 120 119 111
f 79 121 80
f 39 42 122
f 65 123 66
f 112 119 124
f 125 126 127
f 125 128 126
f 128 129 126
f 130 131 76
f 130 132 131
f 133 131 132
f 16 15 134
f 130 76 135
f 130 135 78
f 12 78 135
f 12 135 13
f 13 135 76
f 33 136 34
f 34 136 89
f 84 89 136
f 137 86 138
f 59 139 86
f 116 139 101
f 59 101 139
f 86 139 138
f 85 140 87
f 85 84 140
f 84 136 140
f 33 86 140
f 33 140 136
f 50 92 141
f 63 141 92
f 54 96 142
f 2 54 142
f 143 55 142
f 2 142 3
f 3 142 55
f 14 144 15
f 15 144 145
f 14 31 144
f 31 97 144
f 73 146 74
f 74 146 98
f 147 98 146
f 99 98 148
f 100 149 101
f 125 149 107
f 100 107 149
f 125 127 149
f 127 117 149
f 116 149 117
f 116 101 149
f 23 105 150
f 26 151 105
f 48 151 52
f 26 52 151
f 152 153 154
f 155 156 157
f 10 158 9
f 110 159 114
f 110 112 159
f 112 124 159
f 160 161 162
f 163 162 161
f 160 162 164
f 164 162 115
f 127 165 117
f 117 165 118
f 127 126 165
f 166 118 165
f 166 165 124
f 108 167 168
f 79 169 121
f 79 83 169
f 113 114 170
f 113 170 171
f 172 171 170
f 172 170 173
f 39 122 174
f 39 174 115
f 164 115 174
f 160 175 161
f 64 175 65
f 64 103 175
f 103 161 175
f 176 104 177
f 64 177 104
f 64 66 177
f 66 178 177
f 176 177 179
f 178 179 177
f 66 123 180
f 181 182 123
f 123 182 180
f 128 182 129
f 74 99 183
f 15 184 134
f 134 184 185
f 130 185 132
f 132 185 184
f 116 118 186
f 116 186 139
f 138 139 186
f 82 137 187
f 137 138 187
f 82 187 83
f 108 83 187
f 87 140 188
f 81 87 188
f 137 188 86
f 86 188 140
f 82 188 137
f 82 81 188
f 63 189 141
f 102 50 190
f 50 141 190
f 102 190 103
f 163 161 190
f 103 190 161
f 163 190 189
f 141 189 190
f 133 191 75
f 133 192 191
f 154 193 194
f 194 193 195
f 97 196 144
f 56 196 97
f 99 148 197
f 72 183 197
f 99 197 183
f 67 197 148
f 67 68 197
f 72 197 68
f 67 148 198
f 67 198 89
f 34 89 198
f 35 198 57
f 35 34 198
f 105 199 150
f 200 201 202
f 200 25 201
f 203 204 205
f 203 199 204
f 102 104 206
f 202 207 208
f 150 199 207
f 209 210 211
f 147 212 98
f 98 212 148
f 57 212 58
f 57 198 212
f 148 212 198
f 36 213 37
f 106 214 215
f 155 216 217
f 73 218 219
f 218 220 219
f 221 219 220
f 194 195 222
f 223 222 195
f 194 222 224
f 10 225 158
f 6 225 10
f 6 5 225
f 226 227 228
f 229 230 231
f 160 230 175
f 160 164 230
f 164 231 230
f 65 230 229
f 65 175 230
f 229 231 232
f 172 232 231
f 172 173 232
f 181 233 173
f 181 123 233
f 229 232 233
f 173 233 232
f 65 229 233
f 65 233 123
f 181 234 159
f 181 173 234
f 114 159 234
f 114 234 170
f 173 170 234
f 124 235 159
f 124 165 235
f 181 159 235
f 126 235 165
f 129 235 126
f 129 182 235
f 181 235 182
f 166 236 167
f 166 124 236
f 119 236 124
f 237 167 236
f 120 236 119
f 120 237 236
f 215 238 239
f 211 239 238
f 66 240 178
f 66 180 240
f 128 241 182
f 180 182 241
f 74 183 242
f 133 242 131
f 74 242 75
f 133 75 242
f 76 131 243
f 70 76 243
f 131 242 243
f 183 243 242
f 72 70 243
f 72 243 183
f 145 192 244
f 15 145 244
f 15 244 184
f 132 184 244
f 133 132 244
f 133 244 192
f 130 78 245
f 130 245 185
f 77 245 78
f 77 134 245
f 134 185 245
f 138 186 246
f 138 246 187
f 166 246 118
f 118 246 186
f 166 167 246
f 108 246 167
f 108 187 246
f 63 61 247
f 63 247 189
f 163 247 162
f 163 189 247
f 60 40 247
f 60 247 61
f 40 115 247
f 115 162 247
f 73 75 248
f 75 191 248
f 73 248 218
f 145 144 249
f 144 196 249
f 195 193 249
f 195 249 196
f 145 250 192
f 192 250 191
f 145 249 250
f 223 195 251
f 195 196 251
f 143 223 251
f 56 251 196
f 56 55 251
f 143 251 55
f 105 151 252
f 105 252 199
f 199 252 204
f 176 253 104
f 104 253 206
f 254 206 253
f 176 179 253
f 255 253 179
f 255 254 253
f 254 256 206
f 254 257 256
f 205 258 256
f 205 256 257
f 102 259 50
f 48 50 259
f 260 261 262
f 203 205 263
f 203 263 264
f 205 257 263
f 265 263 257
f 202 201 266
f 202 266 207
f 25 266 201
f 150 207 266
f 209 267 210
f 155 157 268
f 209 211 269
f 211 238 269
f 36 270 213
f 36 58 270
f 58 212 270
f 100 271 106
f 37 271 100
f 37 213 271
f 215 272 238
f 215 214 272
f 155 273 216
f 155 268 273
f 221 274 217
f 275 156 274
f 155 274 156
f 155 217 274
f 275 274 220
f 221 220 274
f 221 217 276
f 221 276 219
f 275 277 156
f 156 277 157
f 227 278 228
f 279 280 281
f 282 283 7
f 7 283 284
f 285 286 287
f 288 286 289
f 288 289 290
f 289 291 290
f 289 292 291
f 285 293 294
f 285 294 286
f 289 286 294
f 295 296 292
f 291 292 296
f 297 298 299
f 300 298 224
f 300 299 298
f 194 224 301
f 226 301 298
f 224 298 301
f 152 154 301
f 154 194 301
f 152 301 228
f 226 228 301
f 143 142 302
f 96 302 142
f 300 303 304
f 300 224 303
f 222 303 224
f 95 305 94
f 94 305 96
f 96 305 302
f 304 302 305
f 285 287 306
f 226 307 227
f 279 308 309
f 227 308 278
f 227 307 308
f 309 308 307
f 310 311 312
f 313 310 312
f 314 315 309
f 279 309 315
f 314 316 317
f 314 317 318
f 311 318 317
f 314 318 315
f 288 319 286
f 287 286 319
f 174 320 321
f 172 231 321
f 172 321 322
f 164 321 231
f 164 174 321
f 255 179 323
f 178 323 179
f 178 240 323
f 218 324 153
f 218 248 324
f 154 153 324
f 154 324 193
f 151 325 252
f 204 252 325
f 48 325 151
f 265 257 326
f 255 326 254
f 254 326 257
f 102 206 327
f 102 327 259
f 258 259 327
f 258 327 256
f 206 256 327
f 208 207 328
f 203 328 199
f 199 328 207
f 262 261 329
f 262 329 264
f 265 330 331
f 265 331 263
f 264 263 331
f 262 264 331
f 332 333 334
f 335 336 337
f 335 337 338
f 339 338 337
f 340 341 342
f 341 338 342
f 339 342 338
f 339 343 342
f 25 344 266
f 150 266 344
f 23 150 344
f 23 344 24
f 25 24 344
f 313 345 310
f 310 345 280
f 216 273 346
f 214 346 273
f 106 346 214
f 106 271 346
f 214 273 347
f 238 272 347
f 214 347 272
f 268 347 273
f 238 347 269
f 268 269 347
f 216 348 217
f 217 348 276
f 216 270 348
f 147 348 212
f 212 348 270
f 219 276 349
f 73 349 146
f 73 219 349
f 147 146 349
f 147 349 348
f 276 348 349
f 228 278 350
f 152 350 153
f 152 228 350
f 218 153 350
f 218 350 220
f 282 351 283
f 295 352 353
f 295 292 352
f 353 352 351
f 289 352 292
f 289 294 352
f 295 354 296
f 340 354 341
f 304 355 302
f 304 303 355
f 143 302 355
f 143 355 223
f 223 355 222
f 222 355 303
f 304 305 356
f 7 357 5
f 287 358 306
f 313 359 360
f 291 359 290
f 291 296 359
f 226 298 361
f 226 361 307
f 297 361 298
f 314 309 361
f 309 307 361
f 297 316 361
f 314 361 316
f 278 308 362
f 279 281 362
f 279 362 308
f 275 362 277
f 310 363 311
f 310 280 363
f 311 363 318
f 315 318 363
f 279 363 280
f 279 315 363
f 317 316 364
f 287 319 364
f 317 364 319
f 287 364 358
f 365 358 364
f 288 366 319
f 288 312 366
f 311 366 312
f 311 317 366
f 317 319 366
f 255 323 367
f 211 210 367
f 211 367 239
f 180 368 240
f 180 241 368
f 193 324 369
f 193 369 249
f 249 369 250
f 191 250 369
f 191 369 248
f 248 369 324
f 258 370 259
f 204 325 370
f 48 259 370
f 48 370 325
f 205 370 258
f 205 204 370
f 371 372 326
f 265 326 372
f 265 372 330
f 371 326 373
f 371 373 267
f 210 267 373
f 255 373 326
f 255 367 373
f 210 373 367
f 340 374 375
f 375 374 376
f 340 342 374
f 261 377 329
f 208 377 334
f 332 334 377
f 264 329 378
f 203 264 378
f 203 378 328
f 336 332 379
f 336 379 337
f 339 337 379
f 339 379 343
f 332 380 379
f 343 379 380
f 261 380 377
f 332 377 380
f 371 381 372
f 330 372 381
f 260 262 382
f 330 381 382
f 262 331 382
f 330 382 331
f 216 383 270
f 216 346 383
f 213 270 383
f 213 383 271
f 271 383 346
f 220 350 384
f 278 384 350
f 275 220 384
f 275 384 362
f 278 362 384
f 353 351 385
f 282 386 385
f 282 385 351
f 351 352 387
f 283 351 387
f 293 387 294
f 294 387 352
f 293 284 387
f 284 283 387
f 341 354 388
f 341 388 338
f 338 388 389
f 95 390 305
f 305 390 356
f 95 93 390
f 53 390 93
f 300 304 391
f 304 356 391
f 356 392 391
f 300 391 299
f 285 393 293
f 7 284 394
f 7 394 357
f 357 394 393
f 293 394 284
f 293 393 394
f 306 358 395
f 313 312 396
f 313 396 359
f 290 359 396
f 288 290 396
f 288 396 312
f 375 360 397
f 360 359 397
f 340 375 397
f 296 397 359
f 340 397 354
f 296 354 397
f 316 398 364
f 365 364 398
f 240 399 323
f 240 368 399
f 239 367 399
f 323 399 367
f 342 343 400
f 342 400 374
f 329 401 378
f 208 401 377
f 329 377 401
f 208 328 401
f 328 378 401
f 261 402 380
f 260 402 261
f 260 376 402
f 376 374 402
f 374 400 402
f 343 380 402
f 343 402 400
f 157 277 403
f 281 404 403
f 281 403 362
f 277 362 403
f 157 403 405
f 404 405 403
f 281 406 404
f 281 280 406
f 280 345 406
f 375 407 360
f 360 407 408
f 375 376 407
f 260 407 376
f 260 382 409
f 260 409 407
f 408 407 409
f 313 410 345
f 313 360 410
f 360 408 410
f 295 353 411
f 295 411 354
f 354 411 388
f 356 390 412
f 356 412 392
f 158 392 412
f 9 158 412
f 9 412 53
f 53 412 390
f 365 398 413
f 158 413 392
f 158 225 414
f 158 414 413
f 365 413 414
f 365 414 358
f 358 414 395
f 5 415 225
f 5 357 415
f 225 415 414
f 395 414 415
f 306 395 416
f 285 306 416
f 285 416 393
f 357 393 416
f 357 416 415
f 395 415 416
f 368 417 399
f 125 417 128
f 125 107 417
f 128 417 241
f 241 417 368
f 157 418 268
f 157 405 418
f 268 418 269
f 209 269 419
f 269 418 419
f 405 419 418
f 382 420 409
f 381 420 382
f 345 410 421
f 353 422 411
f 388 411 422
f 353 385 422
f 386 422 385
f 389 388 422
f 398 423 413
f 297 423 316
f 316 423 398
f 392 413 423
f 399 417 424
f 106 215 424
f 106 424 107
f 107 424 417
f 215 239 424
f 239 399 424
f 209 425 267
f 209 419 425
f 371 267 425
f 371 425 381
f 426 425 419
f 426 420 425
f 381 425 420
f 404 427 405
f 405 427 419
f 426 419 427
f 404 406 427
f 426 428 420
f 426 421 428
f 409 420 428
f 392 429 391
f 392 423 429
f 299 391 429
f 297 299 429
f 297 429 423
f 406 430 427
f 345 430 406
f 345 421 430
f 426 430 421
f 426 427 430
f 408 409 431
f 409 428 431
f 421 431 428
f 408 431 410
f 410 431 421
