v 0.8334 1.0206 0.3594
v 0.7399 1.2199 0.3647
v 0.6466 1.4193 0.3491
v 0.2642 1.6012 0.4213
v 0.0572 1.6251 0.436
v 0.0515 1.6623 0.4228
v -0.1557 1.5879 0.4416
v 0.3347 1.4935 0.4428
v 0.4719 1.5279 0.3909
v 0.2203 1.502 0.4605
v 0.9356 -0.1431 0.3878
v 1.0328 -0.009 0.3016
v 1.0119 -0.2384 0.3032
v 0.9155 0.5809 0.3848
v 0.8583 0.4921 0.4322
v 0.8469 0.6409 0.4234
v 0.798 -0.6124 0.4174
v 0.7582 -0.5093 0.4581
v 0.8554 -0.3982 0.417
v 0.6809 -0.7324 0.4557
v 0.7181 -0.8174 0.4176
v -1.0014 0.0257 0.3396
v -0.9327 0.02 0.3985
v -1.0414 -0.0139 0.2894
v -0.9928 0.1259 0.3501
v -0.927 -0.1087 0.3968
v -1.0071 -0.2306 0.3104
v -0.9184 -0.2632 0.3897
v -0.8497 -0.3585 0.4259
v 0.8411 0.7381 0.4134
v 0.9184 0.8178 0.3404
v 0.8411 0.844 0.3951
v 0.4234 -0.3605 0.6423
v 0.5035 -0.3777 0.6054
v 0.4292 -0.4692 0.614
v 0.309 -0.3462 0.6822
v 0.2375 -0.3462 0.7043
v 0.309 -0.2575 0.7036
v -0.6895 -1.0014 0.381
v -0.658 -0.8755 0.4335
v -0.5636 -1.0014 0.4421
v -0.6666 -1.0843 0.3653
v 0.7525 -0.6037 0.4451
v 0.6895 -0.3862 0.5113
v 0.6952 -0.4978 0.4923
v 0.947 -0.2432 0.369
v 0.8411 -0.3548 0.4317
v -0.6409 -0.3748 0.5378
v -0.7553 -0.3862 0.4769
v -0.7553 -0.2346 0.4921
v -1.0128 -0.1259 0.3168
v -0.8154 -0.2518 0.4576
v 0.4149 1.4763 0.4278
v 0.6638 1.2503 0.3996
v 0.7839 0.9785 0.4033
v 0.7782 0.844 0.4325
v 0.378 -0.266 0.6766
v 0.4149 -0.2661 0.6623
v 0.3147 -0.4807 0.6386
v -0.8062 -0.5785 0.4189
v -0.7296 -0.7353 0.4307
v -0.7431 -0.7904 0.4104
v -0.741 -0.5894 0.4537
v -0.3033 -0.4692 0.6444
v -0.3119 -0.6266 0.5974
v -0.3691 -0.4835 0.6267
v 0.6809 -0.2289 0.5318
v 0.5751 -0.246 0.5871
v 0.7782 -0.2203 0.4808
v 0.7839 -0.1202 0.4838
v 0.8469 -0.1373 0.4476
v 0.6695 -0.1059 0.5437
v 0.6065 0.2575 0.5631
v 0.6008 0.1059 0.5729
v 0.4921 0.2403 0.6116
v 0.8583 -0.0086 0.4464
v 0.9298 0.1459 0.4021
v 1.0471 0.2231 0.2842
v 0.4921 -0.8583 0.5032
v 0.6065 -0.8755 0.4564
v 0.5035 -0.9584 0.476
v 0.3977 -0.967 0.51
v 0.4034 -0.844 0.5346
v 0.5922 -0.5922 0.523
v 0.5808 -0.4807 0.55
v 0.4234 -0.6237 0.5757
v 0.6008 -0.7496 0.487
v 0.6895 -0.5922 0.4791
v 0.5751 -0.3891 0.569
v 0.7696 -0.3719 0.4709
v 0.8411 -0.226 0.4448
v -0.7496 -0.495 0.4649
v 0.4864 1.462 0.4094
v 0.6065 1.3561 0.3947
v 0.4921 1.3733 0.4352
v 0.6037 1.256 0.426
v 0.7696 0.7525 0.4509
v 0.5922 0 0.5819
v 0.5121 0.0172 0.6194
v 0.2289 -0.4978 0.645
v 0.1574 -0.3548 0.7294
v -0.4892 -0.3462 0.6176
v -0.4835 -0.5007 0.587
v -0.5579 -0.3576 0.5826
v -0.8183 0.0057 0.4694
v 0.0429 -0.3719 0.7521
v 0.0429 -0.2203 0.8554
v 0.3977 -1.1244 0.4689
v 0.3347 -0.9842 0.5268
v 0 -0.9641 0.6089
v -0.02 -1.0843 0.5798
v -0.0286 -0.9756 0.6061
v -0.1345 -1.0958 0.5597
v -0.1345 -0.9642 0.5918
v -0.5722 -0.8612 0.4736
v 0.1488 -0.7124 0.6036
v 0.1602 -0.618 0.6119
v 0.2203 -0.6323 0.6055
v 0.0715 -0.9928 0.5986
v 0.0601 -1.0843 0.5766
v 0.618 -1.0139 0.4147
v -0.5522 -1.0958 0.4193
v -0.2089 -0.6094 0.6109
v 0.0744 -0.8755 0.613
v 0.0601 -0.6008 0.6199
v 0 -0.5984 0.6214
v 0.0486 -0.5093 0.6589
v -0.0372 -0.495 0.668
v -0.0458 -0.5894 0.6235
v 0.7696 0.1316 0.4947
v 0.8669 0.1459 0.443
v 0.7582 0.2689 0.4966
v 0.6695 0.2689 0.5357
v 0.9155 0.3429 0.4062
v 0.9298 0.0086 0.4003
v 0.4921 -0.4692 0.591
v 0.3347 -0.7381 0.5724
v 0.4149 -0.7525 0.5497
v 0.3262 -0.6351 0.5934
v 0.4864 -0.6065 0.5607
v -0.6351 -0.5093 0.5195
v 0.6638 1.1215 0.4334
v 0.6695 0.967 0.4624
v 0.7582 0.6351 0.4708
v 0.7525 0.4778 0.4878
v 0.5035 0.1059 0.6161
v 0.3977 0.0257 0.6696
v 0.5178 -0.103 0.6224
v 0.1631 -0.5093 0.648
v -0.8297 0.103 0.4641
v -0.8125 -0.0973 0.4693
v 0.495 0.5951 0.5789
v 0.4263 0.5121 0.6182
v 0.4292 0.6037 0.6003
v 0.0744 0.2689 0.8479
v 0.1402 0.2575 0.8024
v 0.1316 0.1431 0.8522
v 0.226 1.3561 0.498
v 0.3262 -1.1244 0.493
v -0.0401 -0.8812 0.6161
v -0.5779 -0.7124 0.504
v -0.4749 -0.6294 0.5591
v -0.4635 -0.7181 0.5428
v -0.5779 -0.6151 0.5243
v -0.4578 -0.844 0.5176
v 0.0687 -0.7181 0.6098
v 0.1402 -0.8583 0.6028
v 0.1316 -1.0986 0.5594
v 0.2375 -0.9985 0.5556
v 0.246 -1.1158 0.5218
v 0.5121 -1.1101 0.4313
v -0.1946 -0.9584 0.5769
v -0.206 -1.1129 0.535
v -0.2975 -0.9699 0.5422
v -0.1917 -0.8554 0.5915
v -0.4606 -1.0014 0.4805
v -0.4692 -1.1129 0.4469
v -0.3719 -0.6351 0.5851
v -0.3748 -0.3462 0.6623
v -0.378 -0.266 0.6766
v -0.2918 -0.3576 0.6838
v -0.2832 -0.2632 0.7124
v -0.2174 -0.4692 0.6583
v -0.1059 -0.5951 0.6198
v -0.1173 -0.7496 0.6071
v 0.6638 -0.0143 0.5471
v 0.8669 0.349 0.437
v 0.8726 0.2575 0.4374
v 0.2203 -0.721 0.5948
v 0.3405 -0.8354 0.5545
v 0.4864 -0.7582 0.5268
v -0.638 -0.598 0.5019
v -0.5693 -0.5121 0.549
v 0.6008 0.392 0.5587
v 0.6809 0.3777 0.5256
v 0.5035 0.7439 0.5505
v 0.5808 0.6037 0.5457
v 0.5751 0.7582 0.5269
v 0.6895 0.7639 0.4852
v 0.5808 -0.0973 0.5899
v 0.5121 -0.2604 0.6186
v -0.7267 0.1116 0.5153
v -0.9079 0.3605 0.4104
v -0.9899 0.226 0.3513
v -1.0328 0.2206 0.3043
v -0.5522 -0.0143 0.6022
v -0.6666 -0.02 0.5457
v -0.6666 0.1287 0.5424
v -0.4892 -0.2375 0.6322
v -0.7296 0.3805 0.5044
v -0.8383 0.2518 0.4572
v -0.1345 0.0029 0.8679
v -0.2031 0.0172 0.7981
v -0.1345 0.103 0.8589
v 0.4034 -0.1202 0.6765
v 0.2489 -0.2403 0.7333
v -0.0143 -0.103 0.9229
v 0.0515 -0.1202 0.9048
v 0.2375 0.1488 0.7476
v 0.246 0.0057 0.7603
v 0.4063 0.2289 0.6434
v 0.4149 0.3834 0.6306
v 0.3347 0.3662 0.6495
v 0.3405 0.2289 0.6667
v 0.515 0.8841 0.527
v 0.5751 0.8755 0.5108
v 0.4149 0.8841 0.551
v 0.1516 1.4963 0.47
v 0.3147 0.618 0.6287
v 0.2289 0.6351 0.6412
v 0.309 0.7181 0.6025
v -0.392 -0.8354 0.5397
v -0.3805 -0.7353 0.5622
v -0.3119 -0.7525 0.5751
v -0.3061 -0.8411 0.5632
v -0.1974 -0.7582 0.5961
v -0.1259 -0.8726 0.6048
v -0.0458 -0.7353 0.6117
v 0.1316 -1.0042 0.5847
v -0.4005 -1.1244 0.4679
v -0.1287 -0.0973 0.8588
v -0.02 -0.0143 0.9456
v -0.2232 -0.3748 0.6976
v -0.103 -0.4778 0.6719
v 0.6638 0.1144 0.5441
v 0.7782 -0.02 0.49
v 0.7525 0.3605 0.4952
v 0.9356 0.2375 0.3964
v 0.226 -0.844 0.5841
v -0.6466 -0.721 0.4737
v 0.4864 0.392 0.6069
v 0.6952 0.618 0.5
v 0.6895 0.4721 0.5157
v 0.6809 0.8583 0.4755
v -0.7353 -0.0114 0.5118
v -0.3862 -0.2546 0.6752
v -0.3948 -0.1373 0.6802
v -0.2804 -0.123 0.7353
v -0.4807 -0.1431 0.6411
v -0.4692 0.0029 0.6401
v -0.5465 -0.1316 0.6078
v -0.6523 -0.2232 0.5474
v -0.4635 0.3519 0.6171
v -0.5779 0.4892 0.5605
v -0.4749 0.5064 0.6011
v -0.5636 0.1431 0.5873
v -0.5722 0.2604 0.5775
v -0.4606 0.1488 0.6305
v -0.9241 0.2346 0.4047
v -0.1946 0.1087 0.7959
v 0.0715 0.1316 0.9074
v -0.0315 0.1144 0.933
v 0.3176 -0.1373 0.7147
v 0.1488 -0.226 0.7969
v 0 -0.0997 0.9251
v 0.1316 -0.0114 0.8701
v 0.226 0.2403 0.7313
v 0.2203 0.3519 0.7028
v 0.3376 0.1373 0.6839
v 0.1488 0.3519 0.7564
v 0.2203 0.5064 0.6783
v 0.0572 0.4778 0.7417
v -0.0372 0.6151 0.6743
v 0.0486 0.6323 0.6662
v -0.3119 1.4792 0.4519
v -0.3641 1.5163 0.4285
v -0.1974 1.4649 0.474
v -0.02 1.1187 0.5577
v -0.1345 1.1015 0.5562
v -0.1345 1.256 0.5283
v -0.2031 1.0901 0.5523
v -0.1287 0.967 0.5777
v -0.2146 0.9813 0.568
v -0.2804 0.9985 0.5574
v -0.2861 1.0901 0.5422
v -0.1946 1.2446 0.5255
v -0.1917 1.3733 0.4979
v -0.3948 1.0099 0.5364
v -0.4005 1.1015 0.5202
v 0.3176 1.0071 0.5506
v 0.309 0.8698 0.5724
v 0.2518 1.0071 0.5598
v 0.4034 0.9956 0.5369
v 0.4234 0.7267 0.5752
v 0.5922 1.1044 0.4661
v 0.5121 1.0901 0.4947
v 0.5178 0.9785 0.5122
v 0.5035 1.2474 0.4644
v -0.0315 1.2531 0.5333
v 0.2375 0.7238 0.6131
v 0.1574 0.7381 0.6197
v 0.1631 0.6409 0.6501
v -0.1202 0.8783 0.5928
v -0.0172 0.8612 0.6004
v -0.1087 0.7582 0.6191
v -0.2232 0.741 0.6106
v 0.0429 0.7553 0.6238
v 0.1459 0.8411 0.5974
v 0.0515 0.9756 0.5801
v 0.1373 0.9956 0.5727
v 0.0429 0.8469 0.6026
v 0 0.9974 0.5774
v -0.2861 -1.1244 0.5063
v -0.4005 -0.9871 0.5044
v -0.2232 -0.2632 0.7394
v 0.4864 0.4978 0.5977
v -0.7467 -0.103 0.504
v -0.4005 0.0172 0.6692
v -0.5493 -0.2232 0.6026
v -0.7238 0.2661 0.5123
v -0.5779 0.3519 0.5708
v -0.4578 0.2432 0.6244
v -0.392 0.2289 0.6482
v -0.741 0.4749 0.4932
v -0.8211 0.5318 0.4496
v -0.7496 0.6123 0.4772
v -0.7553 0.864 0.441
v -0.8011 0.7616 0.4332
v -0.77 0.9867 0.4096
v -0.6609 0.9756 0.4644
v -0.6523 0.8469 0.4883
v -0.5493 0.8411 0.5234
v -0.5465 0.9928 0.5016
v -0.4892 0.8497 0.5387
v -0.6409 0.7582 0.5046
v -0.9327 0.1087 0.4
v -0.103 0.6008 0.6744
v 0.1373 -0.1345 0.8406
v 0.0601 -0.02 0.9284
v 0.3262 0.02 0.705
v 0.3977 0.1202 0.6591
v 0.3262 0.5178 0.6465
v -0.392 1.3704 0.4645
v -0.4005 1.2131 0.4991
v -0.2975 1.2274 0.5156
v -0.4807 1.0071 0.5175
v 0.5837 0.967 0.4941
v 0.3977 1.2302 0.4961
v -0.0458 1.4649 0.4848
v 0.0715 1.2388 0.535
v -0.2918 0.7267 0.6035
v -0.2832 0.8812 0.5745
v 0.2489 0.8526 0.5839
v 0.1602 0.4921 0.7037
v -0.0257 0.7639 0.622
v 0.0629 1.1301 0.5549
v 0.1316 1.2217 0.5352
v -0.0143 0.967 0.5822
v -0.2146 -0.1059 0.7823
v -0.1087 -0.3862 0.7273
v 0.5922 0.4807 0.5554
v -0.6609 -0.1173 0.5478
v -0.4005 0.1402 0.6555
v -0.2975 0.123 0.7086
v -0.2861 0.0257 0.7289
v -0.3748 0.7181 0.5887
v -0.4892 0.7267 0.5574
v -0.4835 0.6351 0.5755
v -0.638 0.4749 0.5368
v -0.658 0.2718 0.5405
v -0.7553 0.7639 0.4563
v -0.6351 0.6294 0.5223
v -0.3061 0.2289 0.6819
v -0.3805 0.3634 0.6394
v 0.2518 -0.1431 0.7507
v 0.273 0.4654 0.665
v -0.4578 1.3533 0.4515
v -0.5062 1.3535 0.4361
v -0.3061 1.379 0.4803
v -0.5522 1.1301 0.4747
v -0.6381 1.1701 0.4333
v 0.4063 1.379 0.4587
v 0.3977 1.0901 0.5228
v 0.3376 1.2159 0.5112
v -0.1259 1.359 0.507
v -0.1144 1.4563 0.4839
v 0.0744 1.3332 0.5155
v -0.2232 0.8869 0.5815
v -0.3862 0.8669 0.5593
v 0.1316 1.1301 0.5516
v -0.1202 -0.2489 0.8033
v -0.5579 0.741 0.5347
v -0.6466 0.3634 0.5409
v -0.5693 0.6409 0.5449
v 0.0687 0.3634 0.8005
v -0.0458 0.3805 0.7988
v -0.0401 0.2689 0.864
v -0.0458 0.4721 0.7469
v -0.3691 0.6208 0.6143
v -0.3033 0.6037 0.6352
v -0.3719 0.515 0.6347
v -0.2174 0.5951 0.6562
v -0.4692 1.1187 0.5011
v 0.3405 1.3704 0.4759
v 0.2346 1.2102 0.5277
v 0.1402 1.339 0.5105
v 0.0687 1.4792 0.4802
v -0.0401 1.3418 0.5147
v -0.0286 -0.3862 0.7435
v 0 0.2327 0.8904
v -0.1259 0.2546 0.8163
v -0.3119 0.3805 0.655
v -0.2089 0.5007 0.6834
v -0.4606 1.2131 0.4845
v 0.246 1.1158 0.5433
v -0.0172 -0.2317 0.8534
v -0.1917 0.2375 0.7623
v -0.1974 0.392 0.7095
v -0.1144 0.392 0.763
v -0.273 0.4654 0.665
v 0.3262 1.0986 0.5346
v -0.1059 0.4835 0.7263
v -0.3119 0.515 0.6505
v 0.0515 1.6623 0.4228
v -0.1557 1.5879 0.4416
v -0.137 1.5326 -0.4403
v 0.0453 1.6025 -0.4312
v -0.3641 1.5163 0.4285
v -0.3204 1.4654 -0.4329
v -0.5062 1.3535 0.4361
v -0.4454 1.3123 -0.4355
v -0.6381 1.1701 0.4333
v -0.5615 1.1399 -0.4326
v -0.77 0.9867 0.4096
v -0.6776 0.9675 -0.4189
v -0.8011 0.7616 0.4332
v -0.705 0.7559 -0.4298
v -0.8211 0.5318 0.4496
v -0.7226 0.5399 -0.4373
v -0.9079 0.3605 0.4104
v -0.799 0.3789 -0.4153
v -1.0328 0.2206 0.3043
v -0.9089 0.2473 -0.363
v -1.0414 -0.0139 0.2894
v -0.9164 0.0269 -0.3553
v -1.0071 -0.2306 0.3104
v -0.8862 -0.1768 -0.3632
v -0.8497 -0.3585 0.4259
v -0.7478 -0.297 -0.4197
v -0.8062 -0.5785 0.4189
v -0.7095 -0.5038 -0.4155
v -0.7431 -0.7904 0.4104
v -0.654 -0.703 -0.4109
v -0.6895 -1.0014 0.381
v -0.6068 -0.9014 -0.3955
v -0.637 -1.1117 -0.18
v 0.618 -1.0139 0.4147
v 0.7181 -0.8174 0.4176
v 0.6319 -0.7283 -0.4147
v 0.5438 -0.9131 -0.413
v 0.798 -0.6124 0.4174
v 0.7023 -0.5357 -0.4147
v 0.8554 -0.3982 0.417
v 0.7528 -0.3343 -0.415
v 1.0119 -0.2384 0.3032
v 0.8905 -0.1841 -0.36
v 1.0328 -0.009 0.3016
v 0.9089 0.0315 -0.3604
v 1.0471 0.2231 0.2842
v 0.9215 0.2497 -0.3547
v 0.9155 0.3429 0.4062
v 0.8057 0.3623 -0.413
v 0.9155 0.5809 0.3848
v 0.8057 0.5861 -0.4034
v 0.9184 0.8178 0.3404
v 0.8082 0.8087 -0.3835
v 0.8334 1.0206 0.3594
v 0.7334 0.9993 -0.3941
v 0.7399 1.2199 0.3647
v 0.6511 1.1867 -0.3983
v 0.6466 1.4193 0.3491
v 0.569 1.3741 -0.3929
v 0.4719 1.5279 0.3909
v 0.4153 1.4763 -0.4139
v 0.2642 1.6012 0.4213
v 0.2325 1.5451 -0.4299
v 0.569 1.3741 -0.3929
v 0.6511 1.1867 -0.3983
v 0.7334 0.9993 -0.3941
v 0.0453 1.6025 -0.4312
v 0.0504 1.5676 -0.4377
v 0.2325 1.5451 -0.4299
v -0.137 1.5326 -0.4403
v 0.4153 1.4763 -0.4139
v 0.2946 1.4439 -0.4401
v 0.1939 1.4519 -0.4497
v 0.8905 -0.1841 -0.36
v 0.9089 0.0315 -0.3604
v 0.8233 -0.0945 -0.401
v 0.7452 0.6424 -0.4238
v 0.7553 0.5026 -0.4276
v 0.8057 0.5861 -0.4034
v 0.7528 -0.3343 -0.415
v 0.6672 -0.4387 -0.4357
v 0.7023 -0.5357 -0.4147
v 0.6319 -0.7283 -0.4147
v 0.5992 -0.6485 -0.4345
v -0.9164 0.0269 -0.3553
v -0.8208 0.0588 -0.4073
v -0.8812 0.0642 -0.3779
v -0.8736 0.1583 -0.3834
v -0.8157 -0.0622 -0.4057
v -0.7478 -0.297 -0.4197
v -0.8082 -0.2074 -0.4014
v -0.8862 -0.1768 -0.3632
v 0.8082 0.8087 -0.3835
v 0.7402 0.7339 -0.4192
v 0.7402 0.8334 -0.4104
v 0.3777 -0.4011 -0.4991
v 0.4431 -0.315 -0.4945
v 0.3726 -0.2989 -0.5055
v 0.2719 -0.202 -0.5208
v 0.209 -0.2854 -0.5222
v 0.2719 -0.2854 -0.5172
v -0.496 -0.9013 -0.4272
v -0.5791 -0.7829 -0.4231
v -0.6068 -0.9014 -0.3955
v -0.5866 -0.9793 -0.3875
v 0.6622 -0.5275 -0.429
v 0.6118 -0.428 -0.4523
v 0.6068 -0.3231 -0.4609
v 0.8334 -0.1886 -0.391
v 0.7402 -0.2935 -0.4227
v -0.6647 -0.1805 -0.4534
v -0.6647 -0.3231 -0.4453
v -0.564 -0.3123 -0.4717
v -0.8913 -0.0783 -0.3665
v -0.7175 -0.1967 -0.4365
v 0.3651 1.4277 -0.4322
v 0.5841 1.2153 -0.4158
v 0.6899 0.9598 -0.4156
v 0.6848 0.8334 -0.43
v 0.3651 -0.2101 -0.5105
v 0.3326 -0.21 -0.5143
v 0.2769 -0.4118 -0.5099
v -0.654 -0.703 -0.4109
v -0.642 -0.6512 -0.4216
v -0.7095 -0.5038 -0.4155
v -0.6521 -0.514 -0.4334
v -0.3248 -0.4145 -0.5047
v -0.2744 -0.549 -0.5006
v -0.2669 -0.4011 -0.5115
v 0.5061 -0.1913 -0.4895
v 0.5992 -0.1751 -0.4706
v 0.7452 -0.0891 -0.4321
v 0.6899 -0.073 -0.4505
v 0.6848 -0.1671 -0.4482
v 0.5891 -0.0595 -0.4771
v 0.433 0.2659 -0.5093
v 0.5287 0.1395 -0.4931
v 0.5338 0.282 -0.4919
v 0.7553 0.0319 -0.4323
v 0.9215 0.2497 -0.3547
v 0.8183 0.1772 -0.4098
v 0.4431 -0.8609 -0.4445
v 0.5338 -0.7829 -0.435
v 0.433 -0.7668 -0.4583
v 0.355 -0.7534 -0.4723
v 0.35 -0.869 -0.4592
v 0.5111 -0.4118 -0.4764
v 0.5212 -0.5167 -0.4663
v 0.3726 -0.5463 -0.4894
v 0.5287 -0.6646 -0.4504
v 0.6068 -0.5167 -0.4461
v 0.5061 -0.3258 -0.4828
v 0.6773 -0.3096 -0.4424
v 0.7402 -0.1725 -0.4301
v -0.6596 -0.4253 -0.4391
v 0.428 1.4143 -0.4226
v 0.5338 1.3148 -0.4142
v 0.433 1.3309 -0.4352
v 0.5312 1.2206 -0.4294
v 0.6773 0.7473 -0.4393
v 0.4507 0.0561 -0.5058
v 0.5212 0.04 -0.4934
v 0.1385 -0.2935 -0.5258
v 0.2014 -0.428 -0.515
v -0.491 -0.2962 -0.4873
v -0.4255 -0.4306 -0.4902
v -0.4305 -0.2854 -0.498
v -0.7201 0.0454 -0.4444
v 0.0378 -0.1671 -0.5337
v 0.0378 -0.3096 -0.5279
v 0.2946 -0.8851 -0.4644
v 0.35 -1.0169 -0.4377
v -0.0252 -0.8771 -0.4823
v -0.0176 -0.9793 -0.4692
v 0 -0.8663 -0.4837
v -0.1183 -0.99 -0.465
v -0.1183 -0.8663 -0.481
v -0.5035 -0.7695 -0.4438
v 0.1939 -0.5544 -0.5068
v 0.141 -0.5409 -0.5109
v 0.1309 -0.6297 -0.5043
v 0.0629 -0.8932 -0.4797
v 0.0529 -0.9793 -0.4687
v 0.5438 -0.9131 -0.413
v -0.4859 -0.99 -0.415
v -0.1838 -0.5328 -0.5091
v 0.0655 -0.7829 -0.4921
v 0.0428 -0.4387 -0.5208
v 0 -0.5225 -0.5156
v 0.0529 -0.5248 -0.5149
v -0.0327 -0.4253 -0.5217
v -0.0403 -0.514 -0.5159
v 0.7629 0.1772 -0.4314
v 0.6773 0.1637 -0.4585
v 0.6672 0.2928 -0.4608
v 0.5891 0.2928 -0.4802
v 0.8057 0.3623 -0.413
v 0.8183 0.0481 -0.4081
v 0.433 -0.4011 -0.491
v 0.3651 -0.6673 -0.4797
v 0.2946 -0.6539 -0.4897
v 0.287 -0.557 -0.4988
v 0.428 -0.5301 -0.4824
v -0.5589 -0.4387 -0.4643
v 0.5841 1.0942 -0.4324
v 0.5891 0.949 -0.4469
v 0.6672 0.637 -0.4494
v 0.6622 0.4891 -0.4576
v 0.4431 0.1395 -0.5078
v 0.35 0.0642 -0.5196
v 0.4557 -0.0568 -0.5028
v 0.1435 -0.4387 -0.5177
v -0.7301 0.1368 -0.4424
v -0.715 -0.0514 -0.4435
v 0.3777 0.6075 -0.5087
v 0.3751 0.5214 -0.5122
v 0.4356 0.5994 -0.5008
v 0.1158 0.1745 -0.5379
v 0.1234 0.282 -0.5373
v 0.0655 0.2928 -0.5389
v 0.1989 1.3148 -0.4691
v -0.0352 -0.7883 -0.4921
v -0.4079 -0.635 -0.4765
v -0.4179 -0.5517 -0.4823
v -0.5086 -0.6297 -0.4585
v -0.5086 -0.5382 -0.4671
v -0.4028 -0.7534 -0.4651
v 0.0604 -0.635 -0.5062
v 0.1234 -0.7668 -0.4918
v 0.209 -0.8986 -0.4713
v 0.287 -1.0169 -0.4466
v 0.4507 -1.0035 -0.4209
v -0.1712 -0.8609 -0.4787
v -0.1813 -1.0062 -0.4588
v -0.2618 -0.8717 -0.4698
v -0.1687 -0.7641 -0.4897
v -0.4054 -0.9013 -0.4459
v -0.3273 -0.557 -0.4943
v -0.3326 -0.21 -0.5143
v -0.3298 -0.2854 -0.5113
v -0.2568 -0.2962 -0.518
v -0.2493 -0.2074 -0.5225
v -0.1913 -0.4011 -0.5173
v -0.1032 -0.6646 -0.5024
v -0.0932 -0.5194 -0.5143
v 0.5841 0.0266 -0.4803
v 0.7629 0.3681 -0.4294
v 0.7679 0.282 -0.4291
v 0.1939 -0.6377 -0.5
v 0.2996 -0.7453 -0.4802
v 0.428 -0.6727 -0.4695
v -0.5614 -0.5221 -0.4569
v -0.501 -0.4414 -0.4763
v 0.5287 0.4084 -0.4909
v 0.5992 0.395 -0.4762
v 0.5111 0.6075 -0.4875
v 0.4431 0.7392 -0.4927
v 0.5061 0.7527 -0.4808
v 0.6068 0.7581 -0.4581
v 0.5111 -0.0514 -0.4934
v 0.4507 -0.2047 -0.4985
v -0.6395 0.1449 -0.4686
v -0.9089 0.2473 -0.363
v -0.8711 0.2525 -0.3846
v -0.799 0.3789 -0.4153
v -0.5866 0.161 -0.4813
v -0.5866 0.0212 -0.4796
v -0.4859 0.0266 -0.4996
v -0.4305 -0.1832 -0.5025
v -0.7377 0.2767 -0.4397
v -0.642 0.3977 -0.4657
v -0.1183 0.1368 -0.5377
v -0.1788 0.0561 -0.5341
v -0.1183 0.0427 -0.5367
v 0.355 -0.073 -0.5163
v 0.219 -0.1859 -0.5256
v 0.0453 -0.073 -0.5364
v -0.0126 -0.0568 -0.537
v 0.2165 0.0454 -0.5316
v 0.209 0.1798 -0.5332
v 0.3651 0.4004 -0.5166
v 0.3575 0.2551 -0.5194
v 0.2946 0.3842 -0.5246
v 0.2996 0.2551 -0.5256
v 0.4532 0.871 -0.4823
v 0.5061 0.8629 -0.4731
v 0.3651 0.871 -0.4956
v 0.1334 1.4465 -0.4547
v 0.2719 0.715 -0.5154
v 0.2014 0.637 -0.5245
v 0.2769 0.6209 -0.5192
v -0.2744 -0.6673 -0.4906
v -0.3349 -0.6512 -0.4853
v -0.3449 -0.7453 -0.4745
v -0.2694 -0.7507 -0.4828
v -0.1737 -0.6727 -0.4982
v -0.1108 -0.7803 -0.4909
v -0.0403 -0.6512 -0.5052
v 0.1158 -0.904 -0.4765
v 0.1158 -0.9927 -0.4647
v -0.0176 0.0266 -0.5386
v -0.1133 -0.0514 -0.5352
v -0.1964 -0.3123 -0.5217
v -0.0906 -0.4091 -0.5215
v 0.5841 0.1476 -0.4817
v 0.6848 0.0212 -0.4546
v 0.6622 0.3789 -0.4608
v 0.8233 0.2632 -0.4073
v 0.1989 -0.7534 -0.4887
v -0.569 -0.6377 -0.4437
v 0.428 0.4084 -0.508
v 0.6118 0.6209 -0.465
v 0.6068 0.4837 -0.472
v 0.5992 0.8468 -0.4534
v -0.6471 0.0292 -0.4651
v -0.3399 -0.1994 -0.5139
v -0.3474 -0.0891 -0.5168
v -0.2467 -0.0756 -0.5269
v -0.423 -0.0945 -0.5067
v -0.4129 0.0427 -0.5112
v -0.4809 -0.0837 -0.4978
v -0.574 -0.1698 -0.4766
v -0.4179 0.516 -0.5065
v -0.5086 0.4999 -0.4922
v -0.4079 0.3708 -0.5116
v -0.496 0.1745 -0.4993
v -0.5035 0.2847 -0.4976
v -0.4054 0.1798 -0.5134
v -0.8132 0.2605 -0.4116
v -0.1712 0.1422 -0.5353
v 0.0629 0.1637 -0.5393
v -0.0277 0.1476 -0.5398
v 0.2795 -0.0891 -0.5238
v 0.1309 -0.1725 -0.531
v 0 -0.0538 -0.5371
v 0.1158 0.0292 -0.5366
v 0.1989 0.2659 -0.5336
v 0.1939 0.3708 -0.5327
v 0.2971 0.1691 -0.526
v 0.1309 0.3708 -0.5359
v 0.1939 0.516 -0.5293
v 0.0428 0.6344 -0.5309
v -0.0327 0.6182 -0.5316
v 0.0504 0.4891 -0.5357
v -0.3204 1.4654 -0.4329
v -0.2744 1.4304 -0.4449
v -0.1737 1.417 -0.4567
v -0.1183 1.2206 -0.4854
v -0.1183 1.0754 -0.5002
v -0.0176 1.0915 -0.5011
v -0.1133 0.949 -0.5109
v -0.1788 1.0647 -0.498
v -0.1888 0.9625 -0.5059
v -0.2467 0.9786 -0.5002
v -0.2518 1.0647 -0.4923
v -0.1687 1.3309 -0.4692
v -0.1712 1.2099 -0.4838
v -0.3525 1.0754 -0.4799
v -0.3474 0.9893 -0.4885
v 0.2216 0.9867 -0.5017
v 0.2719 0.8576 -0.5069
v 0.2795 0.9867 -0.4965
v 0.355 0.9759 -0.4887
v 0.3726 0.7231 -0.5038
v 0.5212 1.0781 -0.4498
v 0.4557 0.9598 -0.4746
v 0.4507 1.0647 -0.4656
v 0.4431 1.2126 -0.4499
v -0.0277 1.2179 -0.4882
v 0.209 0.7204 -0.5201
v 0.1435 0.6424 -0.5275
v 0.1385 0.7339 -0.5234
v -0.0957 0.7527 -0.5241
v -0.0151 0.8495 -0.5199
v -0.1057 0.8656 -0.5171
v -0.1964 0.7365 -0.5201
v 0.1284 0.8307 -0.5184
v 0.0378 0.75 -0.5255
v 0.1209 0.9759 -0.5085
v 0.0453 0.9571 -0.5121
v 0.0378 0.8361 -0.5206
v 0 0.9775 -0.5109
v -0.3525 -1.0169 -0.4373
v -0.3525 -0.8878 -0.4563
v -0.2518 -1.0169 -0.4508
v -0.1964 -0.2074 -0.5263
v 0.428 0.508 -0.5053
v -0.6571 -0.0568 -0.4603
v -0.3525 0.0561 -0.5192
v -0.4834 -0.1698 -0.4945
v -0.637 0.2901 -0.4688
v -0.5086 0.3708 -0.4955
v -0.3449 0.2551 -0.5208
v -0.4028 0.2686 -0.5135
v -0.6596 0.6155 -0.4527
v -0.7226 0.5399 -0.4373
v -0.6521 0.4864 -0.4604
v -0.6776 0.9675 -0.4189
v -0.705 0.7559 -0.4298
v -0.6647 0.8522 -0.4347
v -0.5816 0.9571 -0.4481
v -0.574 0.8361 -0.4604
v -0.4305 0.8387 -0.4883
v -0.4809 0.9732 -0.4688
v -0.4834 0.8307 -0.4798
v -0.564 0.7527 -0.4687
v -0.8208 0.1422 -0.4085
v -0.0906 0.6048 -0.531
v 0.1209 -0.0864 -0.534
v 0.0529 0.0212 -0.5382
v 0.287 0.0588 -0.5261
v 0.35 0.153 -0.5203
v 0.287 0.5268 -0.5217
v -0.3449 1.3282 -0.4508
v -0.2618 1.1937 -0.4781
v -0.3525 1.1803 -0.4688
v -0.423 0.9867 -0.4778
v 0.5136 0.949 -0.4644
v 0.35 1.1964 -0.4672
v -0.0403 1.417 -0.4626
v 0.0629 1.2045 -0.4891
v -0.2493 0.8683 -0.5082
v -0.2568 0.7231 -0.5163
v 0.219 0.8414 -0.5124
v 0.141 0.5026 -0.5326
v -0.0227 0.7581 -0.5252
v 0.0554 1.1023 -0.4996
v 0.1158 1.1884 -0.4891
v -0.0126 0.949 -0.5131
v -0.1888 -0.0595 -0.5314
v -0.0957 -0.3231 -0.526
v 0.5212 0.4918 -0.4901
v -0.5816 -0.0703 -0.4785
v -0.2618 0.1556 -0.5291
v -0.3525 0.1718 -0.5201
v -0.2518 0.0642 -0.5292
v -0.4305 0.7231 -0.4956
v -0.3298 0.715 -0.5094
v -0.4255 0.637 -0.5007
v -0.5614 0.4864 -0.4821
v -0.5791 0.2955 -0.4824
v -0.6647 0.7581 -0.4423
v -0.5589 0.6317 -0.4767
v -0.2694 0.2551 -0.5284
v -0.3349 0.3816 -0.5205
v 0.2216 -0.0945 -0.5283
v 0.2402 0.4775 -0.5272
v -0.4028 1.3121 -0.4437
v -0.4454 1.3123 -0.4355
v -0.2694 1.3363 -0.4595
v -0.4859 1.1023 -0.4547
v -0.5615 1.1399 -0.4326
v 0.3575 1.3363 -0.4478
v 0.35 1.0647 -0.4813
v 0.2971 1.183 -0.4755
v -0.1108 1.3175 -0.4741
v -0.1007 1.4089 -0.462
v 0.0655 1.2932 -0.4787
v -0.1964 0.8737 -0.5119
v -0.3399 0.8549 -0.4998
v 0.1158 1.1023 -0.4978
v -0.1057 -0.194 -0.5312
v -0.491 0.7365 -0.4846
v -0.569 0.3816 -0.4833
v -0.501 0.6424 -0.4878
v 0.0604 0.3816 -0.5379
v -0.0403 0.3977 -0.5379
v -0.0352 0.2928 -0.5394
v -0.0403 0.4837 -0.536
v -0.3248 0.6236 -0.5143
v -0.2669 0.6075 -0.5207
v -0.3273 0.5241 -0.5177
v -0.1913 0.5994 -0.5267
v -0.4129 1.0915 -0.4693
v 0.2996 1.3282 -0.457
v 0.2065 1.1776 -0.4848
v 0.1234 1.2986 -0.4759
v 0.0604 1.4304 -0.4602
v -0.0352 1.3013 -0.4783
v -0.0252 -0.3231 -0.5274
v 0 0.2588 -0.5398
v -0.1108 0.2794 -0.5378
v -0.2744 0.3977 -0.5262
v -0.1838 0.5106 -0.5301
v -0.4054 1.1803 -0.4606
v 0.2165 1.0889 -0.493
v -0.0151 -0.1778 -0.5335
v -0.1687 0.2632 -0.5354
v -0.1737 0.4084 -0.5332
v -0.1007 0.4084 -0.5364
v -0.2402 0.4775 -0.5272
v 0.287 1.0727 -0.4881
v -0.0932 0.4945 -0.5346
v -0.2744 0.5241 -0.523
v -0.08 -0.1339 0.9249
v -0.08 -0.0989 0.9249
v -0.08 -0.1339 0.9069
v -0.025 -0.1339 0.9069
v -0.08 -0.0989 0.9069
v -0.025 -0.0989 0.9249
v -0.025 -0.1339 0.9249
v -0.025 -0.0989 0.9069
v 0.025 -0.1339 0.9249
v 0.025 -0.0989 0.9249
v 0.025 -0.1339 0.9069
v 0.08 -0.1339 0.9069
v 0.025 -0.0989 0.9069
v 0.08 -0.0989 0.9249
v 0.08 -0.1339 0.9249
v 0.08 -0.0989 0.9069
v -0.17 -0.6817 0.6323
v -0.17 -0.5817 0.6323
v -0.17 -0.6817 0.6123
v 0.17 -0.6817 0.6123
v -0.17 -0.5817 0.6123
v 0.17 -0.5817 0.6323
v 0.17 -0.6817 0.6323
v 0.17 -0.5817 0.6123
vt 0.7129 0.7955
vt 0.6868 0.8511
vt 0.6608 0.9067
vt 0.5542 0.9574
vt 0.4964 0.9641
vt 0.4948 0.9745
vt 0.437 0.9537
vt 0.5738 0.9274
vt 0.6121 0.937
vt 0.5419 0.9298
vt 0.7414 0.4709
vt 0.7686 0.5083
vt 0.7627 0.4443
vt 0.7358 0.6728
vt 0.7199 0.648
vt 0.7167 0.6895
vt 0.7031 0.3399
vt 0.6919 0.3687
vt 0.7191 0.3997
vt 0.6704 0.3065
vt 0.6808 0.2828
vt 0.2011 0.518
vt 0.2203 0.5164
vt 0.1899 0.5069
vt 0.2035 0.5459
vt 0.2219 0.4804
vt 0.1995 0.4465
vt 0.2243 0.4374
vt 0.2434 0.4108
vt 0.7151 0.7167
vt 0.7366 0.7389
vt 0.7151 0.7462
vt 0.5986 0.4102
vt 0.6209 0.4054
vt 0.6002 0.3799
vt 0.5666 0.4142
vt 0.5467 0.4142
vt 0.5666 0.4389
vt 0.2881 0.2314
vt 0.2969 0.2666
vt 0.3232 0.2314
vt 0.2945 0.2083
vt 0.6903 0.3424
vt 0.6728 0.403
vt 0.6744 0.3719
vt 0.7446 0.4429
vt 0.7151 0.4118
vt 0.3017 0.4062
vt 0.2698 0.403
vt 0.2698 0.4453
vt 0.1979 0.4757
vt 0.253 0.4405
vt 0.5962 0.9226
vt 0.6656 0.8595
vt 0.6991 0.7837
vt 0.6975 0.7462
vt 0.5859 0.4366
vt 0.5962 0.4366
vt 0.5682 0.3767
vt 0.2555 0.3494
vt 0.2769 0.3057
vt 0.2731 0.2903
vt 0.2737 0.3464
vt 0.3958 0.3799
vt 0.3935 0.336
vt 0.3775 0.3759
vt 0.6704 0.4469
vt 0.6409 0.4421
vt 0.6975 0.4493
vt 0.6991 0.4773
vt 0.7167 0.4725
vt 0.6672 0.4812
vt 0.6496 0.5826
vt 0.648 0.5403
vt 0.6177 0.5778
vt 0.7199 0.5084
vt 0.7398 0.5515
vt 0.7725 0.573
vt 0.6177 0.2713
vt 0.6496 0.2666
vt 0.6209 0.2434
vt 0.5914 0.241
vt 0.593 0.2753
vt 0.6457 0.3456
vt 0.6425 0.3767
vt 0.5986 0.3368
vt 0.648 0.3017
vt 0.6728 0.3456
vt 0.6409 0.4022
vt 0.6951 0.407
vt 0.7151 0.4477
vt 0.2713 0.3727
vt 0.6161 0.9186
vt 0.6496 0.8891
vt 0.6177 0.8939
vt 0.6488 0.8611
vt 0.6951 0.7207
vt 0.6457 0.5108
vt 0.6233 0.5156
vt 0.5443 0.3719
vt 0.5243 0.4118
vt 0.344 0.4142
vt 0.3456 0.3711
vt 0.3248 0.411
vt 0.2522 0.5124
vt 0.4924 0.407
vt 0.4924 0.4493
vt 0.5914 0.1971
vt 0.5738 0.2362
vt 0.4804 0.2418
vt 0.4749 0.2083
vt 0.4725 0.2386
vt 0.4429 0.2051
vt 0.4429 0.2418
vt 0.3208 0.2706
vt 0.5219 0.3121
vt 0.5251 0.3384
vt 0.5419 0.3344
vt 0.5004 0.2338
vt 0.4972 0.2083
vt 0.6528 0.2279
vt 0.3264 0.2051
vt 0.4222 0.3408
vt 0.5012 0.2666
vt 0.4972 0.3432
vt 0.4804 0.3438
vt 0.494 0.3687
vt 0.4701 0.3727
vt 0.4677 0.3464
vt 0.6951 0.5475
vt 0.7223 0.5515
vt 0.6919 0.5858
vt 0.6672 0.5858
vt 0.7358 0.6064
vt 0.7398 0.5132
vt 0.6177 0.3799
vt 0.5738 0.3049
vt 0.5962 0.3009
vt 0.5714 0.3336
vt 0.6161 0.3416
vt 0.3033 0.3687
vt 0.6656 0.8236
vt 0.6672 0.7805
vt 0.6919 0.6879
vt 0.6903 0.6441
vt 0.6209 0.5403
vt 0.5914 0.518
vt 0.6249 0.482
vt 0.5259 0.3687
vt 0.249 0.5395
vt 0.2538 0.4836
vt 0.6185 0.6768
vt 0.5994 0.6536
vt 0.6002 0.6792
vt 0.5012 0.5858
vt 0.5196 0.5826
vt 0.5172 0.5507
vt 0.5435 0.8891
vt 0.5714 0.1971
vt 0.4693 0.265
vt 0.3192 0.3121
vt 0.348 0.3352
vt 0.3512 0.3105
vt 0.3192 0.3392
vt 0.3528 0.2753
vt 0.4996 0.3105
vt 0.5196 0.2713
vt 0.5172 0.2043
vt 0.5467 0.2322
vt 0.5491 0.1995
vt 0.6233 0.2011
vt 0.4262 0.2434
vt 0.423 0.2003
vt 0.3974 0.2402
vt 0.427 0.2721
vt 0.352 0.2314
vt 0.3496 0.2003
vt 0.3767 0.3336
vt 0.3759 0.4142
vt 0.375 0.4366
vt 0.399 0.411
vt 0.4014 0.4374
vt 0.4198 0.3799
vt 0.4509 0.3448
vt 0.4477 0.3017
vt 0.6656 0.5068
vt 0.7223 0.6081
vt 0.7239 0.5826
vt 0.5419 0.3097
vt 0.5754 0.2777
vt 0.6161 0.2993
vt 0.3025 0.344
vt 0.3216 0.3679
vt 0.648 0.6201
vt 0.6704 0.6161
vt 0.6209 0.7183
vt 0.6425 0.6792
vt 0.6409 0.7223
vt 0.6728 0.7239
vt 0.6425 0.4836
vt 0.6233 0.4381
vt 0.2777 0.5419
vt 0.2272 0.6113
vt 0.2043 0.5738
vt 0.1923 0.5723
vt 0.3264 0.5068
vt 0.2945 0.5052
vt 0.2945 0.5467
vt 0.344 0.4445
vt 0.2769 0.6169
vt 0.2466 0.581
vt 0.4429 0.5116
vt 0.4238 0.5156
vt 0.4429 0.5395
vt 0.593 0.4773
vt 0.5499 0.4437
vt 0.4765 0.482
vt 0.4948 0.4773
vt 0.5467 0.5523
vt 0.5491 0.5124
vt 0.5938 0.5746
vt 0.5962 0.6177
vt 0.5738 0.6129
vt 0.5754 0.5746
vt 0.6241 0.7574
vt 0.6409 0.755
vt 0.5962 0.7574
vt 0.5227 0.9282
vt 0.5682 0.6832
vt 0.5443 0.6879
vt 0.5666 0.7111
vt 0.3711 0.2777
vt 0.3743 0.3057
vt 0.3935 0.3009
vt 0.3951 0.2761
vt 0.4254 0.2993
vt 0.4453 0.2674
vt 0.4677 0.3057
vt 0.5172 0.2306
vt 0.3687 0.1971
vt 0.4445 0.4836
vt 0.4749 0.5068
vt 0.4182 0.4062
vt 0.4517 0.3775
vt 0.6656 0.5427
vt 0.6975 0.5052
vt 0.6903 0.6113
vt 0.7414 0.577
vt 0.5435 0.2753
vt 0.3001 0.3097
vt 0.6161 0.6201
vt 0.6744 0.6832
vt 0.6728 0.6425
vt 0.6704 0.7502
vt 0.2753 0.5076
vt 0.3727 0.4397
vt 0.3703 0.4725
vt 0.4022 0.4765
vt 0.3464 0.4709
vt 0.3496 0.5116
vt 0.328 0.4741
vt 0.2985 0.4485
vt 0.3512 0.6089
vt 0.3192 0.6472
vt 0.348 0.652
vt 0.3232 0.5507
vt 0.3208 0.5834
vt 0.352 0.5523
vt 0.2227 0.5762
vt 0.4262 0.5411
vt 0.5004 0.5475
vt 0.4717 0.5427
vt 0.569 0.4725
vt 0.5219 0.4477
vt 0.4804 0.483
vt 0.5172 0.5076
vt 0.5435 0.5778
vt 0.5419 0.6089
vt 0.5746 0.5491
vt 0.5219 0.6089
vt 0.5419 0.652
vt 0.4964 0.6441
vt 0.4701 0.6824
vt 0.494 0.6872
vt 0.3935 0.9234
vt 0.3789 0.9338
vt 0.4254 0.9194
vt 0.4749 0.8228
vt 0.4429 0.818
vt 0.4429 0.8611
vt 0.4238 0.8148
vt 0.4445 0.7805
vt 0.4206 0.7845
vt 0.4022 0.7893
vt 0.4006 0.8148
vt 0.4262 0.8579
vt 0.427 0.8939
vt 0.3703 0.7925
vt 0.3687 0.818
vt 0.569 0.7917
vt 0.5666 0.7534
vt 0.5507 0.7917
vt 0.593 0.7885
vt 0.5986 0.7135
vt 0.6457 0.8188
vt 0.6233 0.8148
vt 0.6249 0.7837
vt 0.6209 0.8587
vt 0.4717 0.8603
vt 0.5467 0.7127
vt 0.5243 0.7167
vt 0.5259 0.6895
vt 0.4469 0.7558
vt 0.4757 0.751
vt 0.4501 0.7223
vt 0.4182 0.7175
vt 0.4924 0.7215
vt 0.5211 0.7454
vt 0.4948 0.7829
vt 0.5188 0.7885
vt 0.4924 0.747
vt 0.4804 0.789
vt 0.4006 0.1971
vt 0.3687 0.2354
vt 0.4182 0.4374
vt 0.6161 0.6496
vt 0.2721 0.482
vt 0.3687 0.5156
vt 0.3272 0.4485
vt 0.2785 0.585
vt 0.3192 0.6089
vt 0.3528 0.5786
vt 0.3711 0.5746
vt 0.2737 0.6433
vt 0.2514 0.6591
vt 0.2713 0.6816
vt 0.2698 0.7518
vt 0.257 0.7232
vt 0.2657 0.786
vt 0.2961 0.7829
vt 0.2985 0.747
vt 0.3272 0.7454
vt 0.328 0.7877
vt 0.344 0.7478
vt 0.3017 0.7223
vt 0.2203 0.5411
vt 0.4517 0.6784
vt 0.5188 0.4733
vt 0.4972 0.5052
vt 0.5714 0.5164
vt 0.5914 0.5443
vt 0.5714 0.6552
vt 0.3711 0.8931
vt 0.3687 0.8492
vt 0.3974 0.8532
vt 0.3464 0.7917
vt 0.6433 0.7805
vt 0.5914 0.854
vt 0.4677 0.9194
vt 0.5004 0.8563
vt 0.399 0.7135
vt 0.4014 0.7566
vt 0.5499 0.7486
vt 0.5251 0.648
vt 0.4733 0.7239
vt 0.498 0.826
vt 0.5172 0.8516
vt 0.4765 0.7805
vt 0.4206 0.4812
vt 0.4501 0.403
vt 0.6457 0.6449
vt 0.2961 0.4781
vt 0.3687 0.5499
vt 0.3974 0.5451
vt 0.4006 0.518
vt 0.3759 0.7111
vt 0.344 0.7135
vt 0.3456 0.6879
vt 0.3025 0.6433
vt 0.2969 0.5866
vt 0.2698 0.7239
vt 0.3033 0.6864
vt 0.3951 0.5746
vt 0.3743 0.6121
vt 0.5507 0.4709
vt 0.5566 0.6406
vt 0.3528 0.8883
vt 0.3392 0.8883
vt 0.3951 0.8955
vt 0.3264 0.826
vt 0.3025 0.8372
vt 0.5938 0.8955
vt 0.5914 0.8148
vt 0.5746 0.85
vt 0.4453 0.8899
vt 0.4485 0.917
vt 0.5012 0.8827
vt 0.4182 0.7582
vt 0.3727 0.7526
vt 0.5172 0.826
vt 0.4469 0.4413
vt 0.3248 0.7175
vt 0.3001 0.6121
vt 0.3216 0.6895
vt 0.4996 0.6121
vt 0.4677 0.6169
vt 0.4693 0.5858
vt 0.4677 0.6425
vt 0.3775 0.684
vt 0.3958 0.6792
vt 0.3767 0.6544
vt 0.4198 0.6768
vt 0.3496 0.8228
vt 0.5754 0.8931
vt 0.5459 0.8484
vt 0.5196 0.8843
vt 0.4996 0.9234
vt 0.4693 0.8851
vt 0.4725 0.403
vt 0.4804 0.5757
vt 0.4453 0.5818
vt 0.3935 0.6169
vt 0.4222 0.6504
vt 0.352 0.8492
vt 0.5491 0.822
vt 0.4757 0.4461
vt 0.427 0.577
vt 0.4254 0.6201
vt 0.4485 0.6201
vt 0.4043 0.6406
vt 0.5714 0.8172
vt 0.4509 0.6457
vt 0.3935 0.6544
vt 0.4948 0.9745
vt 0.437 0.9537
vt 0.437 0.9537
vt 0.4948 0.9745
vt 0.3789 0.9338
vt 0.3789 0.9338
vt 0.3392 0.8883
vt 0.3392 0.8883
vt 0.3025 0.8372
vt 0.3025 0.8372
vt 0.2657 0.786
vt 0.2657 0.786
vt 0.257 0.7232
vt 0.257 0.7232
vt 0.2514 0.6591
vt 0.2514 0.6591
vt 0.2272 0.6113
vt 0.2272 0.6113
vt 0.1923 0.5723
vt 0.1923 0.5723
vt 0.1899 0.5069
vt 0.1899 0.5069
vt 0.1995 0.4465
vt 0.1995 0.4465
vt 0.2434 0.4108
vt 0.2434 0.4108
vt 0.2555 0.3494
vt 0.2555 0.3494
vt 0.2731 0.2903
vt 0.2731 0.2903
vt 0.2881 0.2314
vt 0.2881 0.2314
vt 0.2785 0.169
vt 0.6528 0.2279
vt 0.6808 0.2828
vt 0.6808 0.2828
vt 0.6528 0.2279
vt 0.7031 0.3399
vt 0.7031 0.3399
vt 0.7191 0.3997
vt 0.7191 0.3997
vt 0.7627 0.4443
vt 0.7627 0.4443
vt 0.7686 0.5083
vt 0.7686 0.5083
vt 0.7725 0.573
vt 0.7725 0.573
vt 0.7358 0.6064
vt 0.7358 0.6064
vt 0.7358 0.6728
vt 0.7358 0.6728
vt 0.7366 0.7389
vt 0.7366 0.7389
vt 0.7129 0.7955
vt 0.7129 0.7955
vt 0.6868 0.8511
vt 0.6868 0.8511
vt 0.6608 0.9067
vt 0.6608 0.9067
vt 0.6121 0.937
vt 0.6121 0.937
vt 0.5542 0.9574
vt 0.5542 0.9574
f 1/1 2/2 3/3
f 4/4 5/5 6/6
f 5/5 7/7 6/6
f 8/8 4/4 9/9
f 8/8 10/10 4/4
f 11/11 12/12 13/13
f 14/14 15/15 16/16
f 17/17 18/18 19/19
f 20/20 17/17 21/21
f 22/22 23/23 24/24
f 25/25 22/22 24/24
f 23/23 26/26 24/24
f 27/27 28/28 29/29
f 26/26 28/28 27/27
f 14/14 30/30 31/31
f 30/30 14/14 16/16
f 32/32 1/1 31/31
f 30/30 32/32 31/31
f 33/33 34/34 35/35
f 36/36 37/37 38/38
f 39/39 40/40 41/41
f 42/42 39/39 41/41
f 20/20 43/43 17/17
f 43/43 18/18 17/17
f 44/44 18/18 45/45
f 19/19 46/46 13/13
f 47/47 46/46 19/19
f 46/46 11/11 13/13
f 48/48 49/49 50/50
f 51/51 27/27 24/24
f 26/26 51/51 24/24
f 51/51 26/26 27/27
f 28/28 52/52 29/29
f 52/52 49/49 29/29
f 49/49 52/52 50/50
f 52/52 28/28 26/26
f 53/53 8/8 9/9
f 2/2 54/54 3/3
f 32/32 55/55 1/1
f 55/55 32/32 56/56
f 57/57 58/58 33/33
f 36/36 57/57 33/33
f 57/57 36/36 38/38
f 36/36 59/59 37/37
f 59/59 33/33 35/35
f 59/59 36/36 33/33
f 60/60 61/61 62/62
f 61/61 60/60 63/63
f 64/64 65/65 66/66
f 67/67 44/44 68/68
f 69/69 70/70 71/71
f 67/67 70/70 69/69
f 70/70 67/67 72/72
f 73/73 74/74 75/75
f 76/76 11/11 71/71
f 70/70 76/76 71/71
f 12/12 77/77 78/78
f 79/79 80/80 81/81
f 79/79 82/82 83/83
f 82/82 79/79 81/81
f 84/84 85/85 45/45
f 85/85 44/44 45/45
f 86/86 59/59 35/35
f 87/87 84/84 20/20
f 79/79 87/87 80/80
f 87/87 20/20 21/21
f 80/80 87/87 21/21
f 88/88 84/84 45/45
f 18/18 88/88 45/45
f 43/43 88/88 18/18
f 88/88 43/43 20/20
f 84/84 88/88 20/20
f 44/44 89/89 68/68
f 85/85 89/89 44/44
f 47/47 90/90 69/69
f 90/90 67/67 69/69
f 67/67 90/90 44/44
f 90/90 47/47 19/19
f 18/18 90/90 19/19
f 44/44 90/90 18/18
f 11/11 91/91 71/71
f 46/46 91/91 11/11
f 91/91 69/69 71/71
f 91/91 47/47 69/69
f 91/91 46/46 47/47
f 48/48 92/92 49/49
f 60/60 92/92 63/63
f 49/49 92/92 29/29
f 93/93 53/53 9/9
f 93/93 9/9 3/3
f 54/54 94/94 3/3
f 94/94 93/93 3/3
f 93/93 94/94 95/95
f 96/96 94/94 54/54
f 32/32 97/97 56/56
f 97/97 32/32 30/30
f 98/98 99/99 74/74
f 100/100 101/101 37/37
f 59/59 100/100 37/37
f 102/102 103/103 104/104
f 103/103 102/102 66/66
f 105/105 26/26 23/23
f 106/106 107/107 101/101
f 82/82 108/108 109/109
f 110/110 111/111 112/112
f 111/111 113/113 112/112
f 113/113 114/114 112/112
f 40/40 115/115 41/41
f 116/116 117/117 118/118
f 119/119 111/111 110/110
f 111/111 119/119 120/120
f 80/80 121/121 81/81
f 122/122 42/42 41/41
f 64/64 123/123 65/65
f 124/124 119/119 110/110
f 125/125 126/126 127/127
f 126/126 128/128 127/127
f 126/126 129/129 128/128
f 76/76 130/130 131/131
f 130/130 132/132 131/131
f 132/132 130/130 133/133
f 134/134 15/15 14/14
f 135/135 76/76 131/131
f 77/77 135/135 131/131
f 135/135 77/77 12/12
f 11/11 135/135 12/12
f 76/76 135/135 11/11
f 34/34 136/136 35/35
f 89/89 136/136 34/34
f 136/136 89/89 85/85
f 137/137 86/86 138/138
f 86/86 139/139 59/59
f 100/100 139/139 118/118
f 139/139 100/100 59/59
f 137/137 139/139 86/86
f 87/87 140/140 84/84
f 140/140 85/85 84/84
f 140/140 136/136 85/85
f 140/140 86/86 35/35
f 136/136 140/140 35/35
f 141/141 92/92 48/48
f 92/92 141/141 63/63
f 142/142 96/96 54/54
f 142/142 54/54 2/2
f 142/142 55/55 143/143
f 1/1 142/142 2/2
f 55/55 142/142 1/1
f 15/15 144/144 16/16
f 145/145 144/144 15/15
f 144/144 30/30 16/16
f 144/144 97/97 30/30
f 74/74 146/146 75/75
f 99/99 146/146 74/74
f 146/146 99/99 147/147
f 148/148 99/99 98/98
f 100/100 149/149 101/101
f 106/106 149/149 127/127
f 149/149 106/106 101/101
f 149/149 125/125 127/127
f 149/149 117/117 125/125
f 117/117 149/149 118/118
f 149/149 100/100 118/118
f 150/150 105/105 23/23
f 105/105 151/151 26/26
f 52/52 151/151 50/50
f 151/151 52/52 26/26
f 152/152 153/153 154/154
f 155/155 156/156 157/157
f 8/8 158/158 10/10
f 108/108 159/159 109/109
f 114/114 160/160 112/112
f 160/160 110/110 112/112
f 160/160 124/124 110/110
f 161/161 162/162 163/163
f 162/162 161/161 164/164
f 165/165 161/161 163/163
f 115/115 161/161 165/165
f 117/117 166/166 125/125
f 116/116 166/166 117/117
f 166/166 126/126 125/125
f 166/166 116/116 167/167
f 124/124 166/166 167/167
f 168/168 169/169 170/170
f 169/169 159/159 170/170
f 159/159 169/169 109/109
f 121/121 171/171 81/81
f 171/171 82/82 81/81
f 171/171 108/108 82/82
f 172/172 114/114 113/113
f 173/173 172/172 113/113
f 172/172 173/173 174/174
f 175/175 172/172 174/174
f 176/176 122/122 41/41
f 115/115 176/176 41/41
f 176/176 115/115 165/165
f 176/176 177/177 122/122
f 162/162 178/178 163/163
f 65/65 178/178 66/66
f 178/178 103/103 66/66
f 178/178 162/162 103/103
f 179/179 102/102 180/180
f 102/102 179/179 66/66
f 179/179 64/64 66/66
f 179/179 181/181 64/64
f 182/182 179/179 180/180
f 179/179 182/182 181/181
f 183/183 123/123 64/64
f 123/123 184/184 185/185
f 183/183 184/184 123/123
f 129/129 184/184 128/128
f 186/186 98/98 74/74
f 134/134 187/187 15/15
f 188/188 187/187 134/134
f 132/132 188/188 131/131
f 187/187 188/188 132/132
f 189/189 116/116 118/118
f 139/139 189/189 118/118
f 189/189 139/139 137/137
f 190/190 138/138 83/83
f 190/190 137/137 138/138
f 82/82 190/190 83/83
f 190/190 82/82 109/109
f 191/191 140/140 87/87
f 191/191 87/87 79/79
f 86/86 191/191 138/138
f 140/140 191/191 86/86
f 138/138 191/191 83/83
f 191/191 79/79 83/83
f 141/141 192/192 63/63
f 193/193 48/48 104/104
f 193/193 141/141 48/48
f 103/103 193/193 104/104
f 193/193 162/162 164/164
f 162/162 193/193 103/103
f 192/192 193/193 164/164
f 193/193 192/192 141/141
f 73/73 194/194 133/133
f 194/194 195/195 133/133
f 196/196 197/197 152/152
f 198/198 197/197 196/196
f 144/144 199/199 97/97
f 97/97 199/199 56/56
f 200/200 148/148 98/98
f 200/200 186/186 72/72
f 186/186 200/200 98/98
f 148/148 200/200 68/68
f 200/200 67/67 68/68
f 67/67 200/200 72/72
f 201/201 148/148 68/68
f 89/89 201/201 68/68
f 201/201 89/89 34/34
f 58/58 201/201 33/33
f 201/201 34/34 33/33
f 150/150 202/202 105/105
f 203/203 204/204 205/205
f 204/204 25/25 205/205
f 206/206 207/207 208/208
f 207/207 202/202 208/208
f 209/209 102/102 104/104
f 210/210 211/211 203/203
f 211/211 202/202 150/150
f 212/212 213/213 214/214
f 99/99 215/215 147/147
f 148/148 215/215 99/99
f 57/57 215/215 58/58
f 215/215 201/201 58/58
f 201/201 215/215 148/148
f 37/37 216/216 38/38
f 217/217 218/218 107/107
f 219/219 220/220 157/157
f 221/221 222/222 75/75
f 221/221 223/223 222/222
f 223/223 221/221 224/224
f 225/225 198/198 196/196
f 198/198 225/225 226/226
f 227/227 225/225 196/196
f 158/158 228/228 10/10
f 10/10 228/228 4/4
f 228/228 5/5 4/4
f 229/229 230/230 231/231
f 232/232 233/233 234/234
f 178/178 233/233 163/163
f 233/233 165/165 163/163
f 233/233 232/232 165/165
f 234/234 233/233 65/65
f 233/233 178/178 65/65
f 235/235 232/232 234/234
f 232/232 235/235 174/174
f 235/235 175/175 174/174
f 175/175 236/236 185/185
f 236/236 123/123 185/185
f 236/236 235/235 234/234
f 235/235 236/236 175/175
f 236/236 234/234 65/65
f 123/123 236/236 65/65
f 160/160 237/237 185/185
f 237/237 175/175 185/185
f 237/237 160/160 114/114
f 172/172 237/237 114/114
f 237/237 172/172 175/175
f 160/160 238/238 124/124
f 238/238 166/166 124/124
f 238/238 160/160 185/185
f 166/166 238/238 126/126
f 126/126 238/238 129/129
f 238/238 184/184 129/129
f 184/184 238/238 185/185
f 169/169 239/239 167/167
f 239/239 124/124 167/167
f 124/124 239/239 119/119
f 239/239 169/169 168/168
f 119/119 239/239 120/120
f 239/239 168/168 120/120
f 240/240 177/177 176/176
f 241/241 242/242 217/217
f 242/242 241/241 212/212
f 181/181 243/243 64/64
f 243/243 183/183 64/64
f 184/184 244/244 128/128
f 244/244 184/184 183/183
f 245/245 186/186 74/74
f 130/130 245/245 133/133
f 73/73 245/245 74/74
f 245/245 73/73 133/133
f 246/246 130/130 76/76
f 246/246 76/76 70/70
f 246/246 245/245 130/130
f 245/245 246/246 186/186
f 246/246 70/70 72/72
f 186/186 246/246 72/72
f 247/247 195/195 145/145
f 247/247 145/145 15/15
f 187/187 247/247 15/15
f 247/247 187/187 132/132
f 247/247 132/132 133/133
f 195/195 247/247 133/133
f 248/248 77/77 131/131
f 188/188 248/248 131/131
f 77/77 248/248 78/78
f 248/248 134/134 78/78
f 248/248 188/188 134/134
f 249/249 189/189 137/137
f 190/190 249/249 137/137
f 116/116 249/249 167/167
f 189/189 249/249 116/116
f 249/249 169/169 167/167
f 169/169 249/249 109/109
f 249/249 190/190 109/109
f 250/250 61/61 63/63
f 192/192 250/250 63/63
f 161/161 250/250 164/164
f 250/250 192/192 164/164
f 250/250 40/40 62/62
f 61/61 250/250 62/62
f 250/250 115/115 40/40
f 250/250 161/161 115/115
f 251/251 73/73 75/75
f 251/251 194/194 73/73
f 222/222 251/251 75/75
f 252/252 144/144 145/145
f 252/252 199/199 144/144
f 252/252 197/197 198/198
f 199/199 252/252 198/198
f 195/195 253/253 145/145
f 194/194 253/253 195/195
f 253/253 252/252 145/145
f 254/254 198/198 226/226
f 254/254 199/199 198/198
f 254/254 226/226 143/143
f 199/199 254/254 56/56
f 254/254 55/55 56/56
f 55/55 254/254 143/143
f 255/255 151/151 105/105
f 202/202 255/255 105/105
f 207/207 255/255 202/202
f 102/102 256/256 180/180
f 209/209 256/256 102/102
f 256/256 209/209 257/257
f 256/256 182/182 180/180
f 182/182 256/256 258/258
f 256/256 257/257 258/258
f 209/209 259/259 257/257
f 259/259 260/260 257/257
f 259/259 261/261 206/206
f 260/260 259/259 206/206
f 48/48 262/262 104/104
f 262/262 48/48 50/50
f 263/263 264/264 265/265
f 266/266 206/206 208/208
f 267/267 266/266 208/208
f 266/266 260/260 206/206
f 260/260 266/266 268/268
f 269/269 204/204 203/203
f 211/211 269/269 203/203
f 204/204 269/269 25/25
f 269/269 211/211 150/150
f 213/213 270/270 214/214
f 271/271 155/155 157/157
f 272/272 212/212 214/214
f 272/272 242/242 212/212
f 216/216 273/273 38/38
f 273/273 57/57 38/38
f 273/273 215/215 57/57
f 107/107 274/274 101/101
f 101/101 274/274 37/37
f 274/274 216/216 37/37
f 242/242 275/275 217/217
f 275/275 218/218 217/217
f 220/220 276/276 157/157
f 276/276 271/271 157/157
f 219/219 277/277 224/224
f 277/277 156/156 278/278
f 156/156 277/277 157/157
f 277/277 219/219 157/157
f 223/223 277/277 278/278
f 277/277 223/223 224/224
f 279/279 219/219 224/224
f 221/221 279/279 224/224
f 156/156 280/280 278/278
f 155/155 280/280 156/156
f 229/229 281/281 230/230
f 282/282 283/283 284/284
f 7/7 285/285 286/286
f 287/287 285/285 7/7
f 288/288 289/289 290/290
f 291/291 289/289 292/292
f 293/293 291/291 292/292
f 293/293 294/294 291/291
f 294/294 295/295 291/291
f 296/296 297/297 290/290
f 289/289 296/296 290/290
f 296/296 289/289 291/291
f 295/295 298/298 299/299
f 298/298 295/295 294/294
f 300/300 301/301 302/302
f 227/227 301/301 303/303
f 301/301 300/300 303/303
f 304/304 227/227 196/196
f 301/301 304/304 231/231
f 304/304 301/301 227/227
f 304/304 152/152 154/154
f 304/304 196/196 152/152
f 229/229 304/304 154/154
f 304/304 229/229 231/231
f 305/305 142/142 143/143
f 142/142 305/305 96/96
f 306/306 307/307 303/303
f 307/307 227/227 303/303
f 227/227 307/307 225/225
f 94/94 308/308 95/95
f 96/96 308/308 94/94
f 305/305 308/308 96/96
f 308/308 305/305 306/306
f 309/309 288/288 290/290
f 230/230 310/310 231/231
f 311/311 312/312 284/284
f 281/281 312/312 230/230
f 312/312 310/310 230/230
f 310/310 312/312 311/311
f 313/313 314/314 315/315
f 313/313 315/315 316/316
f 311/311 317/317 318/318
f 317/317 311/311 284/284
f 319/319 320/320 318/318
f 321/321 319/319 318/318
f 319/319 321/321 314/314
f 317/317 321/321 318/318
f 289/289 322/322 292/292
f 322/322 289/289 288/288
f 173/173 323/323 174/174
f 324/324 240/240 176/176
f 324/324 232/232 174/174
f 323/323 324/324 174/174
f 324/324 323/323 240/240
f 232/232 324/324 165/165
f 324/324 176/176 165/165
f 325/325 182/182 258/258
f 182/182 325/325 181/181
f 325/325 243/243 181/181
f 153/153 326/326 222/222
f 326/326 251/251 222/222
f 326/326 153/153 152/152
f 197/197 326/326 152/152
f 255/255 327/327 151/151
f 327/327 255/255 207/207
f 151/151 327/327 50/50
f 328/328 260/260 268/268
f 257/257 328/328 258/258
f 260/260 328/328 257/257
f 329/329 209/209 104/104
f 262/262 329/329 104/104
f 329/329 262/262 261/261
f 259/259 329/329 261/261
f 329/329 259/259 209/209
f 330/330 211/211 210/210
f 202/202 330/330 208/208
f 211/211 330/330 202/202
f 331/331 264/264 263/263
f 267/267 331/331 263/263
f 332/332 333/333 268/268
f 266/266 332/332 268/268
f 332/332 266/266 267/267
f 332/332 267/267 263/263
f 334/334 335/335 336/336
f 337/337 338/338 339/339
f 340/340 337/337 339/339
f 337/337 340/340 341/341
f 342/342 343/343 344/344
f 342/342 340/340 343/343
f 340/340 342/342 341/341
f 342/342 345/345 341/341
f 269/269 346/346 25/25
f 346/346 269/269 150/150
f 346/346 150/150 23/23
f 22/22 346/346 23/23
f 346/346 22/22 25/25
f 315/315 347/347 316/316
f 283/283 347/347 315/315
f 348/348 276/276 220/220
f 276/276 348/348 218/218
f 218/218 348/348 107/107
f 348/348 274/274 107/107
f 349/349 276/276 218/218
f 349/349 275/275 242/242
f 275/275 349/349 218/218
f 276/276 349/349 271/271
f 272/272 349/349 242/242
f 349/349 272/272 271/271
f 219/219 350/350 220/220
f 279/279 350/350 219/219
f 350/350 273/273 220/220
f 215/215 350/350 147/147
f 273/273 350/350 215/215
f 351/351 279/279 221/221
f 146/146 351/351 75/75
f 351/351 221/221 75/75
f 351/351 146/146 147/147
f 350/350 351/351 147/147
f 351/351 350/350 279/279
f 352/352 281/281 229/229
f 153/153 352/352 154/154
f 352/352 229/229 154/154
f 352/352 153/153 222/222
f 223/223 352/352 222/222
f 285/285 353/353 286/286
f 354/354 355/355 299/299
f 355/355 295/295 299/299
f 353/353 355/355 354/354
f 295/295 355/355 291/291
f 355/355 296/296 291/291
f 298/298 356/356 299/299
f 343/343 356/356 344/344
f 305/305 357/357 306/306
f 357/357 307/307 306/306
f 357/357 305/305 143/143
f 226/226 357/357 143/143
f 225/225 357/357 226/226
f 307/307 357/357 225/225
f 358/358 308/308 306/306
f 5/5 359/359 7/7
f 309/309 360/360 288/288
f 361/361 362/362 316/316
f 293/293 362/362 294/294
f 362/362 298/298 294/294
f 363/363 301/301 231/231
f 310/310 363/363 231/231
f 301/301 363/363 302/302
f 363/363 311/311 318/318
f 363/363 310/310 311/311
f 363/363 320/320 302/302
f 320/320 363/363 318/318
f 364/364 312/312 281/281
f 364/364 282/282 284/284
f 312/312 364/364 284/284
f 280/280 364/364 278/278
f 314/314 365/365 315/315
f 365/365 283/283 315/315
f 321/321 365/365 314/314
f 365/365 321/321 317/317
f 283/283 365/365 284/284
f 365/365 317/317 284/284
f 366/366 320/320 319/319
f 366/366 322/322 288/288
f 322/322 366/366 319/319
f 360/360 366/366 288/288
f 366/366 360/360 367/367
f 322/322 368/368 292/292
f 368/368 313/313 292/292
f 313/313 368/368 314/314
f 368/368 319/319 314/314
f 368/368 322/322 319/319
f 369/369 325/325 258/258
f 369/369 213/213 212/212
f 241/241 369/369 212/212
f 243/243 370/370 183/183
f 370/370 244/244 183/183
f 371/371 326/326 197/197
f 252/252 371/371 197/197
f 253/253 371/371 252/252
f 371/371 253/253 194/194
f 251/251 371/371 194/194
f 326/326 371/371 251/251
f 262/262 372/372 261/261
f 372/372 327/327 207/207
f 372/372 262/262 50/50
f 327/327 372/372 50/50
f 261/261 372/372 206/206
f 372/372 207/207 206/206
f 328/328 373/373 374/374
f 373/373 328/328 268/268
f 333/333 373/373 268/268
f 375/375 328/328 374/374
f 270/270 375/375 374/374
f 375/375 270/270 213/213
f 328/328 375/375 258/258
f 375/375 369/369 258/258
f 369/369 375/375 213/213
f 376/376 377/377 344/344
f 378/378 377/377 376/376
f 377/377 342/342 344/344
f 331/331 379/379 264/264
f 334/334 379/379 210/210
f 379/379 334/334 336/336
f 380/380 331/331 267/267
f 380/380 267/267 208/208
f 330/330 380/380 208/208
f 381/381 336/336 338/338
f 337/337 381/381 338/338
f 381/381 337/337 341/341
f 345/345 381/381 341/341
f 381/381 382/382 336/336
f 382/382 381/381 345/345
f 379/379 382/382 264/264
f 382/382 379/379 336/336
f 373/373 383/383 374/374
f 383/383 373/373 333/333
f 384/384 263/263 265/265
f 384/384 383/383 333/333
f 384/384 332/332 263/263
f 332/332 384/384 333/333
f 273/273 385/385 220/220
f 385/385 348/348 220/220
f 385/385 273/273 216/216
f 274/274 385/385 216/216
f 348/348 385/385 274/274
f 386/386 352/352 223/223
f 352/352 386/386 281/281
f 386/386 223/223 278/278
f 364/364 386/386 278/278
f 386/386 364/364 281/281
f 387/387 353/353 354/354
f 387/387 388/388 286/286
f 353/353 387/387 286/286
f 389/389 355/355 353/353
f 389/389 353/353 285/285
f 296/296 389/389 297/297
f 355/355 389/389 296/296
f 389/389 287/287 297/297
f 389/389 285/285 287/287
f 390/390 356/356 343/343
f 340/340 390/390 343/343
f 391/391 390/390 340/340
f 308/308 392/392 95/95
f 358/358 392/392 308/308
f 392/392 93/93 95/95
f 93/93 392/392 53/53
f 393/393 306/306 303/303
f 393/393 358/358 306/306
f 393/393 394/394 358/358
f 300/300 393/393 303/303
f 297/297 395/395 290/290
f 396/396 287/287 7/7
f 359/359 396/396 7/7
f 395/395 396/396 359/359
f 287/287 396/396 297/297
f 396/396 395/395 297/297
f 397/397 360/360 309/309
f 398/398 313/313 316/316
f 362/362 398/398 316/316
f 398/398 362/362 293/293
f 398/398 293/293 292/292
f 313/313 398/398 292/292
f 399/399 361/361 376/376
f 399/399 362/362 361/361
f 399/399 376/376 344/344
f 362/362 399/399 298/298
f 356/356 399/399 344/344
f 399/399 356/356 298/298
f 366/366 400/400 320/320
f 400/400 366/366 367/367
f 325/325 401/401 243/243
f 401/401 370/370 243/243
f 401/401 369/369 241/241
f 369/369 401/401 325/325
f 402/402 345/345 342/342
f 377/377 402/402 342/342
f 380/380 403/403 331/331
f 379/379 403/403 210/210
f 403/403 379/379 331/331
f 403/403 330/330 210/210
f 403/403 380/380 330/330
f 382/382 404/404 264/264
f 264/264 404/404 265/265
f 404/404 378/378 265/265
f 404/404 377/377 378/378
f 404/404 402/402 377/377
f 404/404 382/382 345/345
f 402/402 404/404 345/345
f 405/405 280/280 155/155
f 405/405 406/406 282/282
f 364/364 405/405 282/282
f 405/405 364/364 280/280
f 407/407 405/405 155/155
f 405/405 407/407 406/406
f 406/406 408/408 282/282
f 408/408 283/283 282/282
f 408/408 347/347 283/283
f 361/361 409/409 376/376
f 410/410 409/409 361/361
f 409/409 378/378 376/376
f 378/378 409/409 265/265
f 411/411 384/384 265/265
f 409/409 411/411 265/265
f 411/411 409/409 410/410
f 347/347 412/412 316/316
f 412/412 361/361 316/316
f 412/412 410/410 361/361
f 413/413 354/354 299/299
f 356/356 413/413 299/299
f 390/390 413/413 356/356
f 414/414 392/392 358/358
f 394/394 414/414 358/358
f 414/414 394/394 158/158
f 414/414 158/158 8/8
f 53/53 414/414 8/8
f 392/392 414/414 53/53
f 415/415 400/400 367/367
f 394/394 415/415 158/158
f 416/416 228/228 158/158
f 415/415 416/416 158/158
f 416/416 415/415 367/367
f 360/360 416/416 367/367
f 397/397 416/416 360/360
f 228/228 417/417 5/5
f 417/417 359/359 5/5
f 416/416 417/417 228/228
f 417/417 416/416 397/397
f 418/418 397/397 309/309
f 418/418 309/309 290/290
f 395/395 418/418 290/290
f 418/418 395/395 359/359
f 417/417 418/418 359/359
f 418/418 417/417 397/397
f 401/401 419/419 370/370
f 128/128 419/419 127/127
f 419/419 106/106 127/127
f 244/244 419/419 128/128
f 370/370 419/419 244/244
f 271/271 420/420 155/155
f 420/420 407/407 155/155
f 272/272 420/420 271/271
f 421/421 272/272 214/214
f 421/421 420/420 272/272
f 420/420 421/421 407/407
f 411/411 422/422 384/384
f 384/384 422/422 383/383
f 423/423 412/412 347/347
f 413/413 424/424 354/354
f 424/424 413/413 390/390
f 424/424 387/387 354/354
f 387/387 424/424 388/388
f 424/424 390/390 391/391
f 415/415 425/425 400/400
f 320/320 425/425 302/302
f 400/400 425/425 320/320
f 425/425 415/415 394/394
f 426/426 419/419 401/401
f 426/426 217/217 107/107
f 106/106 426/426 107/107
f 419/419 426/426 106/106
f 426/426 241/241 217/217
f 426/426 401/401 241/241
f 270/270 427/427 214/214
f 427/427 421/421 214/214
f 427/427 270/270 374/374
f 383/383 427/427 374/374
f 421/421 427/427 428/428
f 427/427 422/422 428/428
f 422/422 427/427 383/383
f 407/407 429/429 406/406
f 421/421 429/429 407/407
f 429/429 421/421 428/428
f 429/429 408/408 406/406
f 422/422 430/430 428/428
f 430/430 423/423 428/428
f 430/430 422/422 411/411
f 393/393 431/431 394/394
f 431/431 425/425 394/394
f 431/431 393/393 300/300
f 431/431 300/300 302/302
f 425/425 431/431 302/302
f 429/429 432/432 408/408
f 408/408 432/432 347/347
f 432/432 423/423 347/347
f 423/423 432/432 428/428
f 432/432 429/429 428/428
f 433/433 411/411 410/410
f 433/433 430/430 411/411
f 430/430 433/433 423/423
f 412/412 433/433 410/410
f 423/423 433/433 412/412
f 434/434 435/435 436/436
f 434/434 436/436 437/437
f 435/435 438/438 439/439
f 435/435 439/439 436/436
f 438/438 440/440 441/441
f 438/438 441/441 439/439
f 440/440 442/442 443/443
f 440/440 443/443 441/441
f 442/442 444/444 445/445
f 442/442 445/445 443/443
f 444/444 446/446 447/447
f 444/444 447/447 445/445
f 446/446 448/448 449/449
f 446/446 449/449 447/447
f 448/448 450/450 451/451
f 448/448 451/451 449/449
f 450/450 452/452 453/453
f 450/450 453/453 451/451
f 452/452 454/454 455/455
f 452/452 455/455 453/453
f 454/454 456/456 457/457
f 454/454 457/457 455/455
f 456/456 458/458 459/459
f 456/456 459/459 457/457
f 458/458 460/460 461/461
f 458/458 461/461 459/459
f 460/460 462/462 463/463
f 460/460 463/463 461/461
f 462/462 464/464 465/465
f 462/462 465/465 463/463
f 464/464 466/466 465/465
f 467/467 468/468 469/469
f 467/467 469/469 470/470
f 468/468 471/471 472/472
f 468/468 472/472 469/469
f 471/471 473/473 474/474
f 471/471 474/474 472/472
f 473/473 475/475 476/476
f 473/473 476/476 474/474
f 475/475 477/477 478/478
f 475/475 478/478 476/476
f 477/477 479/479 480/480
f 477/477 480/480 478/478
f 479/479 481/481 482/482
f 479/479 482/482 480/480
f 481/481 483/483 484/484
f 481/481 484/484 482/482
f 483/483 485/485 486/486
f 483/483 486/486 484/484
f 485/485 487/487 488/488
f 485/485 488/488 486/486
f 487/487 489/489 490/490
f 487/487 490/490 488/488
f 489/489 491/491 492/492
f 489/489 492/492 490/490
f 491/491 493/493 494/494
f 491/491 494/494 492/492
f 493/493 495/495 496/496
f 493/493 496/496 494/494
f 495/495 434/434 437/437
f 495/495 437/437 496/496
f 497 498 499
f 500 501 502
f 500 503 501
f 504 502 505
f 502 506 505
f 507 508 509
f 510 511 512
f 513 514 515
f 516 515 517
f 518 519 520
f 518 520 521
f 518 522 519
f 523 524 525
f 525 524 522
f 526 527 512
f 510 512 527
f 526 499 528
f 526 528 527
f 529 530 531
f 532 533 534
f 535 536 537
f 535 537 538
f 515 539 517
f 515 514 539
f 540 514 541
f 507 542 513
f 513 542 543
f 507 509 542
f 544 545 546
f 518 525 547
f 518 547 522
f 525 522 547
f 523 548 524
f 523 545 548
f 544 548 545
f 522 524 548
f 504 505 549
f 497 550 498
f 499 551 528
f 552 528 551
f 531 553 554
f 531 554 534
f 532 534 554
f 533 555 534
f 529 531 555
f 531 534 555
f 556 557 558
f 559 558 557
f 560 561 562
f 563 541 564
f 565 566 567
f 567 566 564
f 568 564 566
f 569 570 571
f 565 509 572
f 565 572 566
f 573 574 508
f 575 576 577
f 578 579 577
f 575 577 579
f 540 580 581
f 540 541 580
f 529 555 582
f 517 581 583
f 576 583 577
f 516 517 583
f 516 583 576
f 540 581 584
f 540 584 514
f 514 584 539
f 517 539 584
f 517 584 581
f 563 585 541
f 541 585 580
f 567 586 543
f 567 564 586
f 541 586 564
f 513 543 586
f 513 586 514
f 514 586 541
f 565 587 509
f 509 587 542
f 565 567 587
f 567 543 587
f 543 542 587
f 545 588 546
f 559 588 558
f 523 588 545
f 504 549 589
f 497 504 589
f 497 590 550
f 497 589 590
f 591 590 589
f 550 590 592
f 552 593 528
f 527 528 593
f 570 594 595
f 533 596 597
f 533 597 555
f 598 599 600
f 560 600 599
f 519 522 601
f 596 602 603
f 604 605 579
f 606 607 608
f 606 609 607
f 606 610 609
f 535 611 536
f 612 613 614
f 608 607 615
f 616 615 607
f 575 617 576
f 535 538 618
f 561 619 562
f 608 615 620
f 621 622 623
f 621 624 622
f 624 625 622
f 626 627 572
f 626 628 627
f 629 627 628
f 512 511 630
f 626 572 631
f 626 631 574
f 508 574 631
f 508 631 509
f 509 631 572
f 529 632 530
f 530 632 585
f 580 585 632
f 633 582 634
f 555 635 582
f 612 635 597
f 555 597 635
f 582 635 634
f 581 636 583
f 581 580 636
f 580 632 636
f 529 582 636
f 529 636 632
f 546 588 637
f 559 637 588
f 550 592 638
f 498 550 638
f 639 551 638
f 498 638 499
f 499 638 551
f 510 640 511
f 511 640 641
f 510 527 640
f 527 593 640
f 569 642 570
f 570 642 594
f 643 594 642
f 595 594 644
f 596 645 597
f 621 645 603
f 596 603 645
f 621 623 645
f 623 613 645
f 612 645 613
f 612 597 645
f 519 601 646
f 522 647 601
f 544 647 548
f 522 548 647
f 648 649 650
f 651 652 653
f 506 654 505
f 606 655 610
f 606 608 655
f 608 620 655
f 656 657 658
f 659 658 657
f 656 658 660
f 660 658 611
f 623 661 613
f 613 661 614
f 623 622 661
f 662 614 661
f 662 661 620
f 604 663 664
f 575 665 617
f 575 579 665
f 609 610 666
f 609 666 667
f 668 667 666
f 668 666 669
f 535 618 670
f 535 670 611
f 660 611 670
f 656 671 657
f 560 671 561
f 560 599 671
f 599 657 671
f 672 600 673
f 560 673 600
f 560 562 673
f 562 674 673
f 672 673 675
f 674 675 673
f 562 619 676
f 677 678 619
f 619 678 676
f 624 678 625
f 570 595 679
f 511 680 630
f 630 680 681
f 626 681 628
f 628 681 680
f 612 614 682
f 612 682 635
f 634 635 682
f 578 633 683
f 633 634 683
f 578 683 579
f 604 579 683
f 583 636 684
f 577 583 684
f 633 684 582
f 582 684 636
f 578 684 633
f 578 577 684
f 559 685 637
f 598 546 686
f 546 637 686
f 598 686 599
f 659 657 686
f 599 686 657
f 659 686 685
f 637 685 686
f 629 687 571
f 629 688 687
f 650 689 690
f 690 689 691
f 593 692 640
f 552 692 593
f 595 644 693
f 568 679 693
f 595 693 679
f 563 693 644
f 563 564 693
f 568 693 564
f 563 644 694
f 563 694 585
f 530 585 694
f 531 694 553
f 531 530 694
f 601 695 646
f 696 697 698
f 696 521 697
f 699 700 701
f 699 695 700
f 598 600 702
f 698 703 704
f 646 695 703
f 705 706 707
f 643 708 594
f 594 708 644
f 553 708 554
f 553 694 708
f 644 708 694
f 532 709 533
f 602 710 711
f 651 712 713
f 569 714 715
f 714 716 715
f 717 715 716
f 690 691 718
f 719 718 691
f 690 718 720
f 506 721 654
f 502 721 506
f 502 501 721
f 722 723 724
f 725 726 727
f 656 726 671
f 656 660 726
f 660 727 726
f 561 726 725
f 561 671 726
f 725 727 728
f 668 728 727
f 668 669 728
f 677 729 669
f 677 619 729
f 725 728 729
f 669 729 728
f 561 725 729
f 561 729 619
f 677 730 655
f 677 669 730
f 610 655 730
f 610 730 666
f 669 666 730
f 620 731 655
f 620 661 731
f 677 655 731
f 622 731 661
f 625 731 622
f 625 678 731
f 677 731 678
f 662 732 663
f 662 620 732
f 615 732 620
f 733 663 732
f 616 732 615
f 616 733 732
f 711 734 735
f 707 735 734
f 562 736 674
f 562 676 736
f 624 737 678
f 676 678 737
f 570 679 738
f 629 738 627
f 570 738 571
f 629 571 738
f 572 627 739
f 566 572 739
f 627 738 739
f 679 739 738
f 568 566 739
f 568 739 679
f 641 688 740
f 511 641 740
f 511 740 680
f 628 680 740
f 629 628 740
f 629 740 688
f 626 574 741
f 626 741 681
f 573 741 574
f 573 630 741
f 630 681 741
f 634 682 742
f 634 742 683
f 662 742 614
f 614 742 682
f 662 663 742
f 604 742 663
f 604 683 742
f 559 557 743
f 559 743 685
f 659 743 658
f 659 685 743
f 556 536 743
f 556 743 557
f 536 611 743
f 611 658 743
f 569 571 744
f 571 687 744
f 569 744 714
f 641 640 745
f 640 692 745
f 691 689 745
f 691 745 692
f 641 746 688
f 688 746 687
f 641 745 746
f 719 691 747
f 691 692 747
f 639 719 747
f 552 747 692
f 552 551 747
f 639 747 551
f 601 647 748
f 601 748 695
f 695 748 700
f 672 749 600
f 600 749 702
f 750 702 749
f 672 675 749
f 751 749 675
f 751 750 749
f 750 752 702
f 750 753 752
f 701 754 752
f 701 752 753
f 598 755 546
f 544 546 755
f 756 757 758
f 699 701 759
f 699 759 760
f 701 753 759
f 761 759 753
f 698 697 762
f 698 762 703
f 521 762 697
f 646 703 762
f 705 763 706
f 651 653 764
f 705 707 765
f 707 734 765
f 532 766 709
f 532 554 766
f 554 708 766
f 596 767 602
f 533 767 596
f 533 709 767
f 711 768 734
f 711 710 768
f 651 769 712
f 651 764 769
f 717 770 713
f 771 652 770
f 651 770 652
f 651 713 770
f 771 770 716
f 717 716 770
f 717 713 772
f 717 772 715
f 771 773 652
f 652 773 653
f 723 774 724
f 775 776 777
f 778 779 503
f 503 779 780
f 781 782 783
f 784 782 785
f 784 785 786
f 785 787 786
f 785 788 787
f 781 789 790
f 781 790 782
f 785 782 790
f 791 792 788
f 787 788 792
f 793 794 795
f 796 794 720
f 796 795 794
f 690 720 797
f 722 797 794
f 720 794 797
f 648 650 797
f 650 690 797
f 648 797 724
f 722 724 797
f 639 638 798
f 592 798 638
f 796 799 800
f 796 720 799
f 718 799 720
f 591 801 590
f 590 801 592
f 592 801 798
f 800 798 801
f 781 783 802
f 722 803 723
f 775 804 805
f 723 804 774
f 723 803 804
f 805 804 803
f 806 807 808
f 809 806 808
f 810 811 805
f 775 805 811
f 810 812 813
f 810 813 814
f 807 814 813
f 810 814 811
f 784 815 782
f 783 782 815
f 670 816 817
f 668 727 817
f 668 817 818
f 660 817 727
f 660 670 817
f 751 675 819
f 674 819 675
f 674 736 819
f 714 820 649
f 714 744 820
f 650 649 820
f 650 820 689
f 647 821 748
f 700 748 821
f 544 821 647
f 761 753 822
f 751 822 750
f 750 822 753
f 598 702 823
f 598 823 755
f 754 755 823
f 754 823 752
f 702 752 823
f 704 703 824
f 699 824 695
f 695 824 703
f 758 757 825
f 758 825 760
f 761 826 827
f 761 827 759
f 760 759 827
f 758 760 827
f 828 829 830
f 831 832 833
f 831 833 834
f 835 834 833
f 836 837 838
f 837 834 838
f 835 838 834
f 835 839 838
f 521 840 762
f 646 762 840
f 519 646 840
f 519 840 520
f 521 520 840
f 809 841 806
f 806 841 776
f 712 769 842
f 710 842 769
f 602 842 710
f 602 767 842
f 710 769 843
f 734 768 843
f 710 843 768
f 764 843 769
f 734 843 765
f 764 765 843
f 712 844 713
f 713 844 772
f 712 766 844
f 643 844 708
f 708 844 766
f 715 772 845
f 569 845 642
f 569 715 845
f 643 642 845
f 643 845 844
f 772 844 845
f 724 774 846
f 648 846 649
f 648 724 846
f 714 649 846
f 714 846 716
f 778 847 779
f 791 848 849
f 791 788 848
f 849 848 847
f 785 848 788
f 785 790 848
f 791 850 792
f 836 850 837
f 800 851 798
f 800 799 851
f 639 798 851
f 639 851 719
f 719 851 718
f 718 851 799
f 800 801 852
f 503 853 501
f 783 854 802
f 809 855 856
f 787 855 786
f 787 792 855
f 722 794 857
f 722 857 803
f 793 857 794
f 810 805 857
f 805 803 857
f 793 812 857
f 810 857 812
f 774 804 858
f 775 777 858
f 775 858 804
f 771 858 773
f 806 859 807
f 806 776 859
f 807 859 814
f 811 814 859
f 775 859 776
f 775 811 859
f 813 812 860
f 783 815 860
f 813 860 815
f 783 860 854
f 861 854 860
f 784 862 815
f 784 808 862
f 807 862 808
f 807 813 862
f 813 815 862
f 751 819 863
f 707 706 863
f 707 863 735
f 676 864 736
f 676 737 864
f 689 820 865
f 689 865 745
f 745 865 746
f 687 746 865
f 687 865 744
f 744 865 820
f 754 866 755
f 700 821 866
f 544 755 866
f 544 866 821
f 701 866 754
f 701 700 866
f 867 868 822
f 761 822 868
f 761 868 826
f 867 822 869
f 867 869 763
f 706 763 869
f 751 869 822
f 751 863 869
f 706 869 863
f 836 870 871
f 871 870 872
f 836 838 870
f 757 873 825
f 704 873 830
f 828 830 873
f 760 825 874
f 699 760 874
f 699 874 824
f 832 828 875
f 832 875 833
f 835 833 875
f 835 875 839
f 828 876 875
f 839 875 876
f 757 876 873
f 828 873 876
f 867 877 868
f 826 868 877
f 756 758 878
f 826 877 878
f 758 827 878
f 826 878 827
f 712 879 766
f 712 842 879
f 709 766 879
f 709 879 767
f 767 879 842
f 716 846 880
f 774 880 846
f 771 716 880
f 771 880 858
f 774 858 880
f 849 847 881
f 778 882 881
f 778 881 847
f 847 848 883
f 779 847 883
f 789 883 790
f 790 883 848
f 789 780 883
f 780 779 883
f 837 850 884
f 837 884 834
f 834 884 885
f 591 886 801
f 801 886 852
f 591 589 886
f 549 886 589
f 796 800 887
f 800 852 887
f 852 888 887
f 796 887 795
f 781 889 789
f 503 780 890
f 503 890 853
f 853 890 889
f 789 890 780
f 789 889 890
f 802 854 891
f 809 808 892
f 809 892 855
f 786 855 892
f 784 786 892
f 784 892 808
f 871 856 893
f 856 855 893
f 836 871 893
f 792 893 855
f 836 893 850
f 792 850 893
f 812 894 860
f 861 860 894
f 736 895 819
f 736 864 895
f 735 863 895
f 819 895 863
f 838 839 896
f 838 896 870
f 825 897 874
f 704 897 873
f 825 873 897
f 704 824 897
f 824 874 897
f 757 898 876
f 756 898 757
f 756 872 898
f 872 870 898
f 870 896 898
f 839 876 898
f 839 898 896
f 653 773 899
f 777 900 899
f 777 899 858
f 773 858 899
f 653 899 901
f 900 901 899
f 777 902 900
f 777 776 902
f 776 841 902
f 871 903 856
f 856 903 904
f 871 872 903
f 756 903 872
f 756 878 905
f 756 905 903
f 904 903 905
f 809 906 841
f 809 856 906
f 856 904 906
f 791 849 907
f 791 907 850
f 850 907 884
f 852 886 908
f 852 908 888
f 654 888 908
f 505 654 908
f 505 908 549
f 549 908 886
f 861 894 909
f 654 909 888
f 654 721 910
f 654 910 909
f 861 909 910
f 861 910 854
f 854 910 891
f 501 911 721
f 501 853 911
f 721 911 910
f 891 910 911
f 802 891 912
f 781 802 912
f 781 912 889
f 853 889 912
f 853 912 911
f 891 911 912
f 864 913 895
f 621 913 624
f 621 603 913
f 624 913 737
f 737 913 864
f 653 914 764
f 653 901 914
f 764 914 765
f 705 765 915
f 765 914 915
f 901 915 914
f 878 916 905
f 877 916 878
f 841 906 917
f 849 918 907
f 884 907 918
f 849 881 918
f 882 918 881
f 885 884 918
f 894 919 909
f 793 919 812
f 812 919 894
f 888 909 919
f 895 913 920
f 602 711 920
f 602 920 603
f 603 920 913
f 711 735 920
f 735 895 920
f 705 921 763
f 705 915 921
f 867 763 921
f 867 921 877
f 922 921 915
f 922 916 921
f 877 921 916
f 900 923 901
f 901 923 915
f 922 915 923
f 900 902 923
f 922 924 916
f 922 917 924
f 905 916 924
f 888 925 887
f 888 919 925
f 795 887 925
f 793 795 925
f 793 925 919
f 902 926 923
f 841 926 902
f 841 917 926
f 922 926 917
f 922 923 926
f 904 905 927
f 905 924 927
f 917 927 924
f 904 927 906
f 906 927 917
f 928 929 930
f 931 928 930
f 930 929 932
f 932 931 930
f 928 933 929
f 934 928 931
f 934 933 928
f 929 933 932
f 935 931 932
f 932 933 935
f 935 934 931
f 933 934 935
f 936 937 938
f 939 936 938
f 938 937 940
f 940 939 938
f 936 941 937
f 942 936 939
f 942 941 936
f 937 941 940
f 943 939 940
f 940 941 943
f 943 942 939
f 941 942 943
f 944 945 946
f 947 944 946
f 946 945 948
f 948 947 946
f 944 949 945
f 950 944 947
f 950 949 944
f 945 949 948
f 951 947 948
f 948 949 951
f 951 950 947
f 949 950 951
