v 0 0 0.012
v 0.0455 0.0339 0.012
v 0.0909 0.0561 0.012
v 0.1364 0.0743 0.012
v 0.1818 0.0895 0.012
v 0.2273 0.1022 0.012
v 0.2727 0.1123 0.012
v 0.3182 0.1202 0.012
v 0.3636 0.1257 0.012
v 0.4091 0.1289 0.012
v 0.4545 0.13 0.012
v 0.5 0.129 0.012
v 0.5455 0.1259 0.012
v 0.5909 0.1209 0.012
v 0.6364 0.1141 0.012
v 0.6818 0.1056 0.012
v 0.7273 0.0954 0.012
v 0.7727 0.0837 0.012
v 0.8182 0.0705 0.012
v 0.8636 0.056 0.012
v 0.9091 0.04 0.012
v 0.9545 0.0223 0.012
v 1 0 0.012
v 0 0 0.012
v 0.0455 -0.0339 0.012
v 0.0909 -0.0561 0.012
v 0.1364 -0.0743 0.012
v 0.1818 -0.0895 0.012
v 0.2273 -0.1022 0.012
v 0.2727 -0.1123 0.012
v 0.3182 -0.1202 0.012
v 0.3636 -0.1257 0.012
v 0.4091 -0.1289 0.012
v 0.4545 -0.13 0.012
v 0.5 -0.129 0.012
v 0.5455 -0.1259 0.012
v 0.5909 -0.1209 0.012
v 0.6364 -0.1141 0.012
v 0.6818 -0.1056 0.012
v 0.7273 -0.0954 0.012
v 0.7727 -0.0837 0.012
v 0.8182 -0.0705 0.012
v 0.8636 -0.056 0.012
v 0.9091 -0.04 0.012
v 0.9545 -0.0223 0.012
v 1 -0 0.012
v 0 0 -0.012
v 0.0455 0.0339 -0.012
v 0.0909 0.0561 -0.012
v 0.1364 0.0743 -0.012
v 0.1818 0.0895 -0.012
v 0.2273 0.1022 -0.012
v 0.2727 0.1123 -0.012
v 0.3182 0.1202 -0.012
v 0.3636 0.1257 -0.012
v 0.4091 0.1289 -0.012
v 0.4545 0.13 -0.012
v 0.5 0.129 -0.012
v 0.5455 0.1259 -0.012
v 0.5909 0.1209 -0.012
v 0.6364 0.1141 -0.012
v 0.6818 0.1056 -0.012
v 0.7273 0.0954 -0.012
v 0.7727 0.0837 -0.012
v 0.8182 0.0705 -0.012
v 0.8636 0.056 -0.012
v 0.9091 0.04 -0.012
v 0.9545 0.0223 -0.012
v 1 0 -0.012
v 0 0 -0.012
v 0.0455 -0.0339 -0.012
v 0.0909 -0.0561 -0.012
v 0.1364 -0.0743 -0.012
v 0.1818 -0.0895 -0.012
v 0.2273 -0.1022 -0.012
v 0.2727 -0.1123 -0.012
v 0.3182 -0.1202 -0.012
v 0.3636 -0.1257 -0.012
v 0.4091 -0.1289 -0.012
v 0.4545 -0.13 -0.012
v 0.5 -0.129 -0.012
v 0.5455 -0.1259 -0.012
v 0.5909 -0.1209 -0.012
v 0.6364 -0.1141 -0.012
v 0.6818 -0.1056 -0.012
v 0.7273 -0.0954 -0.012
v 0.7727 -0.0837 -0.012
v 0.8182 -0.0705 -0.012
v 0.8636 -0.056 -0.012
v 0.9091 -0.04 -0.012
v 0.9545 -0.0223 -0.012
v 1 -0 -0.012
f 1 2 25
f 1 25 24
f 2 3 26
f 2 26 25
f 3 4 27
f 3 27 26
f 4 5 28
f 4 28 27
f 5 6 29
f 5 29 28
f 6 7 30
f 6 30 29
f 7 8 31
f 7 31 30
f 8 9 32
f 8 32 31
f 9 10 33
f 9 33 32
f 10 11 34
f 10 34 33
f 11 12 35
f 11 35 34
f 12 13 36
f 12 36 35
f 13 14 37
f 13 37 36
f 14 15 38
f 14 38 37
f 15 16 39
f 15 39 38
f 16 17 40
f 16 40 39
f 17 18 41
f 17 41 40
f 18 19 42
f 18 42 41
f 19 20 43
f 19 43 42
f 20 21 44
f 20 44 43
f 21 22 45
f 21 45 44
f 22 23 46
f 22 46 45
f 47 71 48
f 47 70 71
f 48 72 49
f 48 71 72
f 49 73 50
f 49 72 73
f 50 74 51
f 50 73 74
f 51 75 52
f 51 74 75
f 52 76 53
f 52 75 76
f 53 77 54
f 53 76 77
f 54 78 55
f 54 77 78
f 55 79 56
f 55 78 79
f 56 80 57
f 56 79 80
f 57 81 58
f 57 80 81
f 58 82 59
f 58 81 82
f 59 83 60
f 59 82 83
f 60 84 61
f 60 83 84
f 61 85 62
f 61 84 85
f 62 86 63
f 62 85 86
f 63 87 64
f 63 86 87
f 64 88 65
f 64 87 88
f 65 89 66
f 65 88 89
f 66 90 67
f 66 89 90
f 67 91 68
f 67 90 91
f 68 92 69
f 68 91 92
f 1 47 48
f 1 48 2
f 70 24 25
f 70 25 71
f 2 48 49
f 2 49 3
f 71 25 26
f 71 26 72
f 3 49 50
f 3 50 4
f 72 26 27
f 72 27 73
f 4 50 51
f 4 51 5
f 73 27 28
f 73 28 74
f 5 51 52
f 5 52 6
f 74 28 29
f 74 29 75
f 6 52 53
f 6 53 7
f 75 29 30
f 75 30 76
f 7 53 54
f 7 54 8
f 76 30 31
f 76 31 77
f 8 54 55
f 8 55 9
f 77 31 32
f 77 32 78
f 9 55 56
f 9 56 10
f 78 32 33
f 78 33 79
f 10 56 57
f 10 57 11
f 79 33 34
f 79 34 80
f 11 57 58
f 11 58 12
f 80 34 35
f 80 35 81
f 12 58 59
f 12 59 13
f 81 35 36
f 81 36 82
f 13 59 60
f 13 60 14
f 82 36 37
f 82 37 83
f 14 60 61
f 14 61 15
f 83 37 38
f 83 38 84
f 15 61 62
f 15 62 16
f 84 38 39
f 84 39 85
f 16 62 63
f 16 63 17
f 85 39 40
f 85 40 86
f 17 63 64
f 17 64 18
f 86 40 41
f 86 41 87
f 18 64 65
f 18 65 19
f 87 41 42
f 87 42 88
f 19 65 66
f 19 66 20
f 88 42 43
f 88 43 89
f 20 66 67
f 20 67 21
f 89 43 44
f 89 44 90
f 21 67 68
f 21 68 22
f 90 44 45
f 90 45 91
f 22 68 69
f 22 69 23
f 91 45 46
f 91 46 92
